<?xml version="1.0" encoding="utf-8"?>
<!-- Generator: Adobe Illustrator 15.0.2, SVG Export Plug-In . SVG Version: 6.00 Build 0)  -->
<!DOCTYPE svg PUBLIC "-//W3C//DTD SVG 1.1//EN" "http://www.w3.org/Graphics/SVG/1.1/DTD/svg11.dtd">
<svg version="1.1" id="Capa_1" xmlns="http://www.w3.org/2000/svg" xmlns:xlink="http://www.w3.org/1999/xlink" x="0px" y="0px"
	 width="190px" height="72px" viewBox="0 0 190 72" enable-background="new 0 0 190 72" xml:space="preserve">
<g>
	<rect x="28.713" y="48.43" fill="#AB6BA4" width="137.728" height="0.617"/>
	<g>
		<g>
			<path fill="#BC89B6" d="M39.133,27.064c0-0.741-0.15-1.372-0.452-1.892c-0.3-0.521-0.765-0.782-1.389-0.782
				c-0.694,0-1.205,0.226-1.527,0.677c-0.325,0.451-0.487,0.954-0.487,1.51c0,0.81,0.261,1.452,0.782,1.927
				c0.521,0.475,1.175,0.886,1.961,1.232c0.786,0.347,1.631,0.699,2.534,1.058c0.903,0.359,1.747,0.828,2.535,1.405
				c0.787,0.578,1.441,1.337,1.962,2.275c0.521,0.938,0.78,2.157,0.78,3.661c0,2.64-0.752,4.555-2.257,5.746
				c-1.504,1.192-3.679,1.787-6.526,1.787c-1.343,0-2.528-0.108-3.559-0.328c-1.03-0.22-1.898-0.604-2.603-1.146
				c-0.707-0.544-1.245-1.256-1.614-2.136c-0.372-0.88-0.555-1.969-0.555-3.266v-0.867h6.25v0.592c0,1.063,0.194,1.811,0.588,2.238
				c0.394,0.427,0.902,0.641,1.528,0.641c0.671,0,1.185-0.231,1.545-0.692c0.358-0.463,0.538-1.028,0.538-1.701
				c0-0.813-0.25-1.452-0.746-1.927c-0.499-0.476-1.124-0.88-1.876-1.215s-1.568-0.677-2.448-1.023
				c-0.879-0.349-1.696-0.8-2.447-1.356c-0.753-0.555-1.377-1.285-1.875-2.187c-0.5-0.902-0.746-2.083-0.746-3.541
				c0-2.523,0.671-4.444,2.012-5.765c1.343-1.319,3.38-1.978,6.112-1.978c2.825,0,4.867,0.608,6.127,1.822
				c1.262,1.215,1.891,3.154,1.891,5.815h-6.04v-0.587L39.133,27.064L39.133,27.064z"/>
			<path fill="#BC89B6" d="M60.311,20.501l6.042,24.789h-6.875l-0.659-4.338h-5.138l-0.66,4.338h-6.77l5.938-24.789H60.311z
				 M56.215,25.569L54.444,36.09h3.611l-1.77-10.52L56.215,25.569L56.215,25.569z"/>
			<path fill="#BC89B6" d="M77.532,20.501c1.227,0,2.274,0.163,3.143,0.487c0.868,0.323,1.573,0.78,2.117,1.371
				c0.543,0.59,0.936,1.29,1.179,2.101c0.245,0.81,0.366,1.69,0.366,2.638c0,1.667-0.336,3.009-1.007,4.028
				c-0.672,1.019-1.749,1.642-3.229,1.874v0.069c1.55,0.139,2.615,0.684,3.194,1.632c0.578,0.95,0.868,2.257,0.868,3.923v2.118
				c0,0.324,0,0.659,0,1.007c0,0.349,0.012,0.678,0.035,0.99c0.022,0.313,0.059,0.595,0.104,0.851
				c0.046,0.255,0.104,0.452,0.173,0.591c0.092,0.138,0.185,0.272,0.279,0.397c0.092,0.129,0.243,0.252,0.452,0.366v0.346h-6.875
				c-0.163-0.323-0.283-0.706-0.364-1.145c-0.083-0.438-0.139-0.881-0.174-1.321c-0.035-0.439-0.059-0.859-0.069-1.267
				c-0.011-0.405-0.018-0.734-0.018-0.989v-1.667c0-0.692-0.035-1.272-0.104-1.736c-0.069-0.461-0.191-0.828-0.363-1.091
				c-0.175-0.266-0.396-0.453-0.659-0.557c-0.267-0.104-0.598-0.158-0.99-0.158h-1.701v9.93H67.43V20.5h10.102V20.501z
				 M75.172,30.987c0.926,0,1.607-0.272,2.047-0.815c0.441-0.543,0.66-1.256,0.66-2.135c0-1.042-0.215-1.781-0.642-2.223
				c-0.429-0.438-1.128-0.66-2.102-0.66h-1.249v5.833H75.172z"/>
			<path fill="#BC89B6" d="M96.833,25.153c-0.277-0.508-0.728-0.764-1.354-0.764c-0.485,0-0.874,0.127-1.163,0.382
				c-0.29,0.255-0.509,0.707-0.659,1.354c-0.15,0.648-0.249,1.523-0.295,2.622s-0.069,2.482-0.069,4.148
				c0,1.667,0.023,3.049,0.069,4.149c0.046,1.1,0.145,1.974,0.295,2.621c0.15,0.647,0.37,1.1,0.659,1.354
				c0.288,0.256,0.678,0.382,1.163,0.382c0.394,0,0.719-0.101,0.973-0.296c0.255-0.195,0.45-0.524,0.59-0.988
				c0.138-0.464,0.236-1.082,0.295-1.857c0.057-0.775,0.086-1.754,0.086-2.934h6.248v1.84c0,1.736-0.23,3.16-0.692,4.27
				c-0.464,1.11-1.077,1.987-1.842,2.623c-0.764,0.637-1.639,1.063-2.621,1.286c-0.984,0.219-1.997,0.329-3.039,0.329
				c-1.804,0-3.285-0.219-4.443-0.658c-1.157-0.438-2.06-1.172-2.708-2.204c-0.649-1.027-1.093-2.361-1.336-3.991
				c-0.243-1.633-0.365-3.605-0.365-5.918c0-2.361,0.144-4.364,0.434-6.008c0.289-1.642,0.781-2.973,1.477-3.992
				c0.695-1.021,1.608-1.757,2.744-2.208c1.132-0.451,2.534-0.677,4.2-0.677c1.458,0,2.697,0.185,3.715,0.556
				c1.018,0.37,1.846,0.898,2.481,1.579c0.637,0.684,1.099,1.506,1.39,2.466c0.288,0.961,0.433,2.043,0.433,3.246v1.564h-6.251
				v-1.39C97.251,26.625,97.111,25.664,96.833,25.153z"/>
			<path fill="#BC89B6" d="M105.723,26.978c0.3-1.633,0.799-2.963,1.493-3.993c0.694-1.03,1.607-1.782,2.743-2.257
				c1.132-0.476,2.521-0.712,4.165-0.712c1.646,0,3.033,0.238,4.169,0.712c1.132,0.475,2.048,1.227,2.745,2.257
				c0.692,1.03,1.19,2.361,1.489,3.993c0.3,1.631,0.452,3.605,0.452,5.919c0,2.316-0.15,4.287-0.452,5.919
				c-0.3,1.631-0.797,2.963-1.489,3.993c-0.695,1.029-1.61,1.763-2.745,2.202c-1.134,0.439-2.522,0.658-4.169,0.658
				c-1.643,0-3.032-0.219-4.165-0.658c-1.132-0.439-2.049-1.173-2.743-2.202c-0.694-1.03-1.193-2.362-1.493-3.993
				c-0.301-1.632-0.451-3.606-0.451-5.919C105.271,30.584,105.42,28.609,105.723,26.978z M112.006,37.045
				c0.048,1.1,0.144,1.974,0.296,2.621c0.15,0.647,0.37,1.1,0.657,1.354c0.291,0.256,0.678,0.382,1.164,0.382
				c0.488,0,0.873-0.127,1.165-0.382c0.291-0.255,0.507-0.707,0.658-1.354s0.248-1.523,0.294-2.621
				c0.049-1.099,0.071-2.482,0.071-4.149c0-1.666-0.022-3.049-0.071-4.148c-0.047-1.1-0.143-1.973-0.294-2.622
				c-0.151-0.647-0.371-1.098-0.658-1.354c-0.292-0.255-0.677-0.382-1.165-0.382c-0.486,0-0.874,0.127-1.164,0.382
				c-0.289,0.255-0.507,0.707-0.657,1.354c-0.15,0.648-0.249,1.523-0.296,2.622s-0.069,2.481-0.069,4.148
				C111.937,34.564,111.959,35.948,112.006,37.045z"/>
			<path fill="#666666" d="M152.464,20.501l2.603,14.685h0.071l2.601-14.685h9.237V45.29h-6.039V26.821h-0.071L157.43,45.29h-4.649
				l-3.439-18.469h-0.068V45.29h-6.039V20.501H152.464z"/>
			<path fill="#666666" d="M140.139,20.501v5.278h-8.229v4.809h6.406v5.067h-6.406v4.358h8.54v5.275h-14.998V20.501H140.139z"/>
		</g>
		<g>
			
				<linearGradient id="SVGID_1_" gradientUnits="userSpaceOnUse" x1="1008.9551" y1="828.3223" x2="1008.9551" y2="853.1058" gradientTransform="matrix(1 0 0 1 -933 -809)">
				<stop  offset="0.4233" style="stop-color:#FFFFFF;stop-opacity:0.8"/>
				<stop  offset="0.6748" style="stop-color:#FFFFFF;stop-opacity:0"/>
			</linearGradient>
			<path fill="url(#SVGID_1_)" d="M78.001,34.661c0.248,0.379,0.414,0.855,0.502,1.457c0.077,0.512,0.114,1.125,0.114,1.872v1.667
				c0,0.248,0.005,0.569,0.018,0.963c0.011,0.383,0.033,0.795,0.066,1.223c0.033,0.41,0.087,0.822,0.162,1.226
				c0.024,0.141,0.056,0.273,0.092,0.397h4.612c-0.067-0.179-0.121-0.386-0.165-0.627c-0.052-0.281-0.091-0.602-0.116-0.946
				c-0.025-0.331-0.038-0.687-0.038-1.055v-3.125c0-1.486-0.248-2.648-0.733-3.448c-0.424-0.692-1.241-1.085-2.497-1.198
				l-0.831-0.075v-1.687l0.771-0.121c1.228-0.191,2.081-0.674,2.609-1.476c0.568-0.862,0.855-2.047,0.855-3.524
				c0-0.855-0.109-1.654-0.327-2.375c-0.204-0.682-0.524-1.252-0.977-1.745c-0.443-0.48-1.036-0.863-1.766-1.135
				c-0.76-0.284-1.711-0.429-2.822-0.429h-9.19v22.961h4.63v-9.926h2.615c0.512,0,0.943,0.07,1.322,0.217
				C77.356,33.93,77.721,34.232,78.001,34.661z M75.172,30.987h-2.198v-7.658h2.162c1.223,0,2.149,0.314,2.754,0.935
				c0.607,0.624,0.901,1.559,0.901,2.86c0,1.088-0.291,2-0.863,2.709C77.31,30.597,76.381,30.987,75.172,30.987z"/>
			
				<linearGradient id="SVGID_2_" gradientUnits="userSpaceOnUse" x1="1028.1504" y1="828.3213" x2="1028.1504" y2="853.1061" gradientTransform="matrix(1 0 0 1 -933 -809)">
				<stop  offset="0.4233" style="stop-color:#FFFFFF;stop-opacity:0.8"/>
				<stop  offset="0.6748" style="stop-color:#FFFFFF;stop-opacity:0"/>
			</linearGradient>
			<path fill="url(#SVGID_2_)" d="M102.136,40.171c0.415-0.994,0.624-2.313,0.624-3.919v-0.927h-4.429
				c-0.014,0.802-0.04,1.501-0.084,2.089c-0.063,0.851-0.172,1.522-0.332,2.052c-0.193,0.647-0.497,1.134-0.906,1.449
				c-0.415,0.322-0.932,0.484-1.53,0.484c-0.713,0-1.308-0.204-1.766-0.61c-0.438-0.386-0.749-0.984-0.945-1.833
				c-0.166-0.71-0.27-1.623-0.317-2.79c-0.048-1.096-0.071-2.504-0.071-4.186c0-1.682,0.022-3.092,0.071-4.189
				c0.047-1.167,0.152-2.078,0.317-2.789c0.196-0.846,0.505-1.445,0.946-1.833c0.46-0.404,1.054-0.609,1.765-0.609
				c0.954,0,1.72,0.44,2.157,1.239c0.36,0.661,0.528,1.715,0.528,3.319v0.475h4.422v-0.647c0-1.107-0.133-2.111-0.395-2.983
				c-0.246-0.817-0.646-1.527-1.183-2.103c-0.536-0.571-1.25-1.025-2.126-1.344c-0.915-0.332-2.06-0.501-3.402-0.501
				c-1.542,0-2.842,0.207-3.863,0.613c-0.97,0.385-1.73,0.997-2.326,1.871c-0.618,0.907-1.066,2.131-1.331,3.637
				c-0.277,1.581-0.419,3.547-0.419,5.848c0,2.259,0.119,4.206,0.354,5.784c0.222,1.501,0.628,2.725,1.206,3.643
				c0.544,0.865,1.283,1.468,2.259,1.839c1.048,0.396,2.434,0.6,4.12,0.6c0.97,0,1.925-0.101,2.841-0.308
				c0.848-0.187,1.577-0.545,2.235-1.091C101.2,41.905,101.732,41.141,102.136,40.171z"/>
			
				<linearGradient id="SVGID_3_" gradientUnits="userSpaceOnUse" x1="1047.123" y1="828.3203" x2="1047.123" y2="853.1046" gradientTransform="matrix(1 0 0 1 -933 -809)">
				<stop  offset="0.4233" style="stop-color:#FFFFFF;stop-opacity:0.8"/>
				<stop  offset="0.6748" style="stop-color:#FFFFFF;stop-opacity:0"/>
			</linearGradient>
			<path fill="url(#SVGID_3_)" d="M120.275,41.385c0.62-0.92,1.076-2.147,1.354-3.646c0.29-1.572,0.436-3.507,0.436-5.755
				s-0.146-4.184-0.436-5.755c-0.277-1.499-0.733-2.728-1.354-3.648c-0.599-0.887-1.364-1.517-2.339-1.925
				c-1.016-0.425-2.299-0.641-3.814-0.641c-1.515,0-2.796,0.215-3.814,0.641c-0.976,0.408-1.74,1.038-2.339,1.925
				c-0.621,0.923-1.076,2.15-1.352,3.648c-0.29,1.569-0.437,3.505-0.437,5.755c0,2.248,0.146,4.185,0.437,5.755
				c0.275,1.498,0.73,2.727,1.352,3.646c0.594,0.882,1.352,1.491,2.314,1.864c1.024,0.397,2.315,0.597,3.836,0.597
				c1.523,0,2.813-0.199,3.838-0.597C118.926,42.874,119.683,42.264,120.275,41.385z M117.152,36.17
				c-0.048,1.168-0.153,2.081-0.318,2.789c-0.196,0.849-0.505,1.446-0.944,1.835c-0.459,0.403-1.053,0.608-1.767,0.608
				c-0.712,0-1.308-0.205-1.767-0.609c-0.438-0.387-0.746-0.985-0.947-1.834c-0.161-0.71-0.264-1.621-0.315-2.789
				c-0.048-1.108-0.069-2.478-0.069-4.188s0.021-3.079,0.069-4.188c0.052-1.167,0.154-2.08,0.315-2.79
				c0.199-0.845,0.507-1.444,0.947-1.833c0.46-0.405,1.055-0.609,1.767-0.609s1.306,0.205,1.766,0.608
				c0.441,0.389,0.749,0.988,0.945,1.834c0.165,0.708,0.271,1.622,0.318,2.79c0.049,1.113,0.07,2.521,0.07,4.188
				S117.201,35.059,117.152,36.17z"/>
			
				<linearGradient id="SVGID_4_" gradientUnits="userSpaceOnUse" x1="989.2988" y1="828.3223" x2="989.2988" y2="853.1056" gradientTransform="matrix(1 0 0 1 -933 -809)">
				<stop  offset="0.4233" style="stop-color:#FFFFFF;stop-opacity:0.8"/>
				<stop  offset="0.6748" style="stop-color:#FFFFFF;stop-opacity:0"/>
			</linearGradient>
			<path fill="url(#SVGID_4_)" d="M52.907,20.501l-5.499,22.961h4.828l0.659-4.339h6.708l0.658,4.339h4.927l-5.596-22.961H52.907z
				 M53.364,36.09l2.078-12.346h1.614l2.078,12.346H53.364z"/>
			
				<linearGradient id="SVGID_5_" gradientUnits="userSpaceOnUse" x1="970.2754" y1="828.3232" x2="970.2754" y2="853.1057" gradientTransform="matrix(1 0 0 1 -933 -809)">
				<stop  offset="0.4233" style="stop-color:#FFFFFF;stop-opacity:0.8"/>
				<stop  offset="0.6748" style="stop-color:#FFFFFF;stop-opacity:0"/>
			</linearGradient>
			<path fill="url(#SVGID_5_)" d="M44.255,34.008c-0.455-0.818-1.028-1.485-1.705-1.983c-0.721-0.53-1.506-0.965-2.331-1.293
				c-0.906-0.359-1.77-0.72-2.565-1.071c-0.874-0.385-1.616-0.854-2.208-1.394c-0.716-0.65-1.08-1.527-1.08-2.601
				c0-0.75,0.222-1.436,0.657-2.043c0.347-0.482,1.021-1.057,2.27-1.057c0.944,0,1.72,0.439,2.179,1.238
				c0.334,0.579,0.525,1.26,0.566,2.026h4.196c-0.125-1.925-0.657-3.351-1.584-4.245c-1.081-1.041-2.929-1.567-5.495-1.567
				c-2.471,0-4.311,0.577-5.47,1.717c-1.155,1.135-1.741,2.854-1.741,5.113c0,1.295,0.213,2.339,0.632,3.099
				c0.432,0.783,0.976,1.42,1.617,1.894c0.686,0.507,1.44,0.923,2.241,1.24c0.877,0.346,1.713,0.695,2.484,1.04
				c0.843,0.376,1.561,0.845,2.133,1.387c0.684,0.651,1.03,1.522,1.03,2.588c0,0.876-0.246,1.637-0.73,2.26
				c-0.532,0.687-1.315,1.05-2.266,1.05c-0.877,0-1.639-0.325-2.201-0.938c-0.512-0.558-0.782-1.389-0.824-2.535h-4.43
				c0.004,1.148,0.167,2.112,0.484,2.864c0.311,0.737,0.745,1.317,1.33,1.766c0.594,0.456,1.347,0.786,2.238,0.976
				c0.962,0.206,2.096,0.31,3.368,0.31c2.624,0,4.627-0.534,5.959-1.589c1.286-1.019,1.911-2.664,1.911-5.031
				C44.922,35.885,44.696,34.804,44.255,34.008z"/>
			
				<linearGradient id="SVGID_6_" gradientUnits="userSpaceOnUse" x1="1065.9492" y1="828.3223" x2="1065.9492" y2="853.1056" gradientTransform="matrix(1 0 0 1 -933 -809)">
				<stop  offset="0.4233" style="stop-color:#FFFFFF;stop-opacity:0.8"/>
				<stop  offset="0.6748" style="stop-color:#FFFFFF;stop-opacity:0"/>
			</linearGradient>
			<polygon fill="url(#SVGID_6_)" points="126.363,43.463 139.535,43.463 139.535,40.013 130.996,40.013 130.996,33.829 
				137.4,33.829 137.4,30.588 130.996,30.588 130.996,23.953 139.225,23.953 139.225,20.501 126.363,20.501 			"/>
			
				<linearGradient id="SVGID_7_" gradientUnits="userSpaceOnUse" x1="1088.1016" y1="828.3223" x2="1088.1016" y2="853.1056" gradientTransform="matrix(1 0 0 1 -933 -809)">
				<stop  offset="0.4233" style="stop-color:#FFFFFF;stop-opacity:0.8"/>
				<stop  offset="0.6748" style="stop-color:#FFFFFF;stop-opacity:0"/>
			</linearGradient>
			<polygon fill="url(#SVGID_7_)" points="161.845,24.994 161.845,43.463 166.063,43.463 166.063,20.501 158.505,20.501 
				155.902,35.186 154.302,35.186 151.697,20.501 144.142,20.501 144.142,43.463 148.355,43.463 148.355,24.994 150.097,24.994 
				153.534,43.463 156.669,43.463 160.105,24.994 			"/>
		</g>
	</g>
	<g>
		<path fill="#666666" d="M27.501,54.883l0.698-0.068c0.042,0.233,0.126,0.407,0.256,0.517c0.128,0.108,0.301,0.164,0.52,0.164
			c0.23,0,0.404-0.051,0.522-0.148c0.118-0.097,0.176-0.212,0.176-0.343c0-0.085-0.024-0.156-0.074-0.216
			c-0.05-0.056-0.136-0.11-0.258-0.156c-0.085-0.029-0.275-0.08-0.575-0.155c-0.384-0.094-0.654-0.214-0.81-0.352
			c-0.218-0.195-0.328-0.433-0.328-0.715c0-0.183,0.052-0.351,0.154-0.508c0.103-0.155,0.251-0.276,0.443-0.361
			c0.193-0.082,0.427-0.121,0.7-0.121c0.446,0,0.781,0.098,1.007,0.294c0.225,0.195,0.343,0.457,0.355,0.781l-0.717,0.032
			c-0.031-0.186-0.096-0.315-0.197-0.396c-0.102-0.084-0.253-0.121-0.455-0.121c-0.209,0-0.372,0.044-0.49,0.127
			c-0.076,0.056-0.114,0.128-0.114,0.222c0,0.086,0.036,0.155,0.107,0.217c0.09,0.077,0.311,0.155,0.659,0.238
			c0.35,0.083,0.607,0.166,0.775,0.256c0.168,0.089,0.297,0.21,0.393,0.364c0.096,0.152,0.142,0.342,0.142,0.564
			c0,0.204-0.057,0.396-0.169,0.573c-0.114,0.179-0.273,0.31-0.48,0.396c-0.207,0.088-0.465,0.131-0.773,0.131
			c-0.449,0-0.794-0.104-1.036-0.313C27.69,55.582,27.548,55.279,27.501,54.883z"/>
		<path fill="#666666" d="M30.988,53.114v-0.63h0.681v0.63H30.988z M30.988,56.039v-2.574h0.681v2.574H30.988z"/>
		<path fill="#666666" d="M32.128,55.304l0.683-0.104c0.029,0.133,0.088,0.233,0.177,0.301c0.088,0.066,0.213,0.104,0.374,0.104
			c0.175,0,0.308-0.033,0.397-0.098c0.059-0.047,0.089-0.106,0.089-0.183c0-0.053-0.017-0.094-0.049-0.128
			c-0.034-0.032-0.109-0.062-0.227-0.089c-0.55-0.121-0.898-0.232-1.045-0.332c-0.204-0.14-0.306-0.33-0.306-0.578
			c0-0.224,0.088-0.409,0.265-0.563c0.176-0.152,0.449-0.227,0.819-0.227c0.353,0,0.614,0.055,0.785,0.172
			c0.171,0.117,0.29,0.286,0.354,0.508l-0.643,0.12c-0.027-0.098-0.08-0.176-0.156-0.228s-0.187-0.083-0.328-0.083
			c-0.18,0-0.309,0.026-0.386,0.079c-0.051,0.035-0.078,0.082-0.078,0.137c0,0.051,0.022,0.087,0.068,0.121
			c0.061,0.046,0.272,0.11,0.637,0.19c0.363,0.085,0.615,0.186,0.759,0.303c0.143,0.121,0.214,0.29,0.214,0.507
			c0,0.234-0.099,0.438-0.296,0.605c-0.196,0.17-0.488,0.258-0.875,0.258c-0.351,0-0.628-0.071-0.833-0.214
			C32.324,55.741,32.192,55.549,32.128,55.304z"/>
		<path fill="#666666" d="M36.309,53.465v0.542h-0.466v1.038c0,0.21,0.005,0.329,0.014,0.365c0.009,0.034,0.029,0.063,0.061,0.086
			c0.031,0.021,0.07,0.034,0.115,0.034c0.063,0,0.154-0.021,0.273-0.066l0.058,0.53c-0.158,0.068-0.337,0.103-0.538,0.103
			c-0.122,0-0.233-0.019-0.332-0.063c-0.099-0.04-0.171-0.092-0.217-0.156c-0.047-0.066-0.078-0.155-0.096-0.264
			c-0.015-0.081-0.021-0.24-0.021-0.481V54.01h-0.313v-0.542h0.313v-0.515l0.683-0.397v0.909H36.309z"/>
		<path fill="#666666" d="M38.273,55.22l0.679,0.115c-0.087,0.25-0.225,0.437-0.414,0.571c-0.188,0.127-0.423,0.193-0.708,0.193
			c-0.446,0-0.778-0.149-0.993-0.438c-0.17-0.233-0.255-0.532-0.255-0.886c0-0.431,0.111-0.762,0.334-1.003
			c0.223-0.241,0.504-0.363,0.847-0.363c0.383,0,0.685,0.125,0.906,0.379c0.222,0.255,0.328,0.641,0.317,1.162h-1.706
			c0.005,0.202,0.06,0.36,0.164,0.471c0.105,0.113,0.236,0.167,0.393,0.167c0.107,0,0.196-0.027,0.27-0.086
			C38.181,55.441,38.236,55.35,38.273,55.22z M38.311,54.531c-0.005-0.197-0.056-0.348-0.153-0.45
			c-0.097-0.102-0.215-0.156-0.354-0.156c-0.148,0-0.271,0.053-0.369,0.16c-0.096,0.11-0.144,0.258-0.142,0.441L38.311,54.531
			L38.311,54.531z"/>
		<path fill="#666666" d="M39.491,53.465h0.628v0.351c0.225-0.273,0.492-0.409,0.802-0.409c0.165,0,0.308,0.034,0.429,0.102
			c0.121,0.068,0.222,0.17,0.298,0.308c0.113-0.138,0.235-0.239,0.366-0.308c0.13-0.067,0.27-0.102,0.419-0.102
			c0.189,0,0.349,0.039,0.479,0.116c0.131,0.078,0.229,0.19,0.293,0.337c0.047,0.112,0.07,0.29,0.07,0.534v1.646h-0.681v-1.472
			c0-0.256-0.023-0.419-0.071-0.493c-0.062-0.098-0.159-0.147-0.291-0.147c-0.095,0-0.185,0.029-0.268,0.087
			c-0.084,0.057-0.146,0.143-0.183,0.256c-0.038,0.113-0.056,0.292-0.056,0.533v1.236h-0.681v-1.411
			c0-0.251-0.012-0.411-0.037-0.484c-0.024-0.074-0.061-0.126-0.113-0.162c-0.051-0.035-0.12-0.052-0.207-0.052
			c-0.105,0-0.199,0.027-0.284,0.086c-0.084,0.057-0.144,0.14-0.181,0.245c-0.037,0.107-0.055,0.285-0.055,0.531v1.254h-0.681
			V53.465z"/>
		<path fill="#666666" d="M44.465,54.25l-0.618-0.112c0.07-0.249,0.19-0.432,0.359-0.552c0.17-0.12,0.422-0.18,0.757-0.18
			c0.304,0,0.53,0.035,0.679,0.108c0.148,0.071,0.253,0.162,0.313,0.273c0.061,0.11,0.091,0.314,0.091,0.609l-0.008,0.795
			c0,0.224,0.011,0.394,0.032,0.5c0.022,0.108,0.063,0.224,0.122,0.347h-0.673c-0.017-0.045-0.04-0.113-0.065-0.202
			c-0.012-0.041-0.019-0.066-0.024-0.08c-0.116,0.114-0.241,0.198-0.373,0.255c-0.132,0.057-0.273,0.086-0.424,0.086
			c-0.265,0-0.473-0.072-0.627-0.218c-0.152-0.142-0.228-0.326-0.228-0.543c0-0.146,0.034-0.275,0.104-0.391
			c0.069-0.115,0.167-0.2,0.292-0.26c0.125-0.062,0.306-0.113,0.542-0.158c0.318-0.057,0.539-0.117,0.661-0.169v-0.067
			c0-0.126-0.032-0.225-0.096-0.28c-0.065-0.052-0.188-0.083-0.366-0.083c-0.121,0-0.216,0.023-0.284,0.071
			C44.562,54.047,44.508,54.13,44.465,54.25z M45.375,54.802c-0.086,0.029-0.225,0.064-0.414,0.105
			c-0.189,0.04-0.313,0.082-0.371,0.12c-0.088,0.062-0.133,0.143-0.133,0.24c0,0.093,0.036,0.178,0.107,0.248
			c0.07,0.069,0.161,0.104,0.271,0.104c0.122,0,0.239-0.041,0.351-0.121c0.083-0.062,0.137-0.136,0.163-0.225
			c0.018-0.057,0.026-0.169,0.026-0.331V54.802z"/>
		<path fill="#666666" d="M50.457,56.039h-0.632V55.66c-0.105,0.147-0.229,0.258-0.373,0.329c-0.143,0.069-0.287,0.108-0.432,0.108
			c-0.296,0-0.549-0.122-0.76-0.359c-0.21-0.237-0.317-0.571-0.317-0.996c0-0.438,0.103-0.77,0.309-0.996
			c0.205-0.227,0.464-0.34,0.778-0.34c0.287,0,0.536,0.12,0.746,0.359v-1.281h0.68L50.457,56.039L50.457,56.039z M48.639,54.695
			c0,0.275,0.038,0.475,0.114,0.598c0.11,0.176,0.264,0.265,0.461,0.265c0.157,0,0.29-0.065,0.4-0.198
			c0.11-0.135,0.165-0.332,0.165-0.598c0-0.297-0.053-0.509-0.16-0.64c-0.107-0.127-0.243-0.192-0.41-0.192
			c-0.161,0-0.297,0.065-0.405,0.19C48.693,54.248,48.639,54.44,48.639,54.695z"/>
		<path fill="#666666" d="M52.619,55.22l0.679,0.115c-0.087,0.25-0.225,0.437-0.414,0.571c-0.188,0.127-0.424,0.193-0.707,0.193
			c-0.447,0-0.779-0.149-0.994-0.438c-0.169-0.233-0.254-0.532-0.254-0.886c0-0.431,0.111-0.762,0.334-1.003
			c0.223-0.241,0.504-0.363,0.847-0.363c0.383,0,0.685,0.125,0.906,0.379c0.223,0.255,0.329,0.641,0.318,1.162h-1.706
			c0.005,0.202,0.06,0.36,0.164,0.471c0.105,0.113,0.236,0.167,0.393,0.167c0.107,0,0.196-0.027,0.27-0.086
			C52.526,55.441,52.582,55.35,52.619,55.22z M52.659,54.531c-0.005-0.197-0.055-0.348-0.152-0.45
			c-0.097-0.102-0.216-0.156-0.355-0.156c-0.148,0-0.271,0.053-0.368,0.16c-0.096,0.11-0.144,0.258-0.143,0.441L52.659,54.531
			L52.659,54.531z"/>
		<path fill="#666666" d="M58.293,56.039h-0.78l-0.31-0.808h-1.421l-0.293,0.808h-0.761l1.383-3.555h0.759L58.293,56.039z
			 M56.973,54.632l-0.49-1.318l-0.479,1.318H56.973z"/>
		<path fill="#666666" d="M60.914,54.226l-0.671,0.12c-0.022-0.133-0.074-0.233-0.154-0.302c-0.081-0.067-0.184-0.102-0.312-0.102
			c-0.169,0-0.305,0.058-0.406,0.175c-0.101,0.119-0.151,0.313-0.151,0.588c0,0.306,0.051,0.521,0.154,0.647
			c0.102,0.125,0.24,0.19,0.413,0.19c0.129,0,0.235-0.037,0.317-0.111c0.083-0.074,0.141-0.2,0.175-0.381l0.669,0.116
			c-0.07,0.306-0.203,0.538-0.399,0.694s-0.462,0.236-0.793,0.236c-0.376,0-0.675-0.12-0.9-0.356
			c-0.224-0.238-0.336-0.568-0.336-0.987c0-0.425,0.113-0.754,0.338-0.991c0.225-0.235,0.528-0.355,0.911-0.355
			c0.314,0,0.563,0.067,0.748,0.202C60.699,53.743,60.832,53.948,60.914,54.226z"/>
		<path fill="#666666" d="M63.675,54.226l-0.672,0.12c-0.022-0.133-0.074-0.233-0.154-0.302c-0.081-0.067-0.184-0.102-0.312-0.102
			c-0.169,0-0.305,0.058-0.406,0.175c-0.101,0.119-0.151,0.313-0.151,0.588c0,0.306,0.051,0.521,0.154,0.647
			c0.102,0.125,0.241,0.19,0.413,0.19c0.129,0,0.235-0.037,0.318-0.111c0.083-0.074,0.141-0.2,0.175-0.381l0.669,0.116
			c-0.069,0.306-0.202,0.538-0.4,0.694c-0.196,0.156-0.461,0.236-0.792,0.236c-0.376,0-0.676-0.12-0.901-0.356
			c-0.224-0.238-0.335-0.568-0.335-0.987c0-0.425,0.113-0.754,0.337-0.991c0.225-0.235,0.528-0.355,0.911-0.355
			c0.313,0,0.563,0.067,0.749,0.202C63.459,53.743,63.593,53.948,63.675,54.226z"/>
		<path fill="#666666" d="M65.682,55.22l0.679,0.115c-0.087,0.25-0.225,0.437-0.414,0.571c-0.188,0.127-0.423,0.193-0.707,0.193
			c-0.447,0-0.779-0.149-0.993-0.438c-0.17-0.233-0.254-0.532-0.254-0.886c0-0.431,0.111-0.762,0.334-1.003
			c0.223-0.241,0.504-0.363,0.846-0.363c0.383,0,0.685,0.125,0.906,0.379c0.223,0.255,0.328,0.641,0.317,1.162H64.69
			c0.005,0.202,0.06,0.36,0.164,0.471c0.105,0.113,0.237,0.167,0.393,0.167c0.107,0,0.197-0.027,0.27-0.086
			C65.588,55.441,65.645,55.35,65.682,55.22z M65.72,54.531c-0.005-0.197-0.056-0.348-0.153-0.45
			c-0.097-0.102-0.215-0.156-0.354-0.156c-0.148,0-0.271,0.053-0.368,0.16c-0.096,0.11-0.144,0.258-0.143,0.441L65.72,54.531
			L65.72,54.531z"/>
		<path fill="#666666" d="M66.711,55.304l0.684-0.104c0.029,0.133,0.088,0.233,0.176,0.301c0.089,0.066,0.214,0.104,0.374,0.104
			c0.176,0,0.309-0.033,0.397-0.098c0.059-0.047,0.088-0.106,0.088-0.183c0-0.053-0.017-0.094-0.049-0.128
			c-0.034-0.032-0.109-0.062-0.227-0.089c-0.55-0.121-0.898-0.232-1.044-0.332c-0.204-0.14-0.306-0.33-0.306-0.578
			c0-0.224,0.088-0.409,0.264-0.563c0.176-0.152,0.45-0.227,0.819-0.227c0.353,0,0.613,0.055,0.785,0.172
			c0.171,0.117,0.29,0.286,0.354,0.508l-0.643,0.12c-0.027-0.098-0.08-0.176-0.156-0.228s-0.187-0.083-0.329-0.083
			c-0.18,0-0.308,0.026-0.385,0.079c-0.051,0.035-0.078,0.082-0.078,0.137c0,0.051,0.022,0.087,0.068,0.121
			c0.061,0.046,0.273,0.11,0.637,0.19c0.363,0.085,0.616,0.186,0.76,0.303c0.143,0.121,0.214,0.29,0.214,0.507
			c0,0.234-0.099,0.438-0.296,0.605c-0.196,0.17-0.488,0.258-0.874,0.258c-0.352,0-0.629-0.071-0.833-0.214
			C66.909,55.741,66.774,55.549,66.711,55.304z"/>
		<path fill="#666666" d="M69.554,54.715c0-0.226,0.055-0.445,0.167-0.656c0.112-0.212,0.269-0.374,0.473-0.485
			c0.205-0.112,0.433-0.167,0.685-0.167c0.39,0,0.708,0.126,0.958,0.379c0.249,0.254,0.373,0.573,0.373,0.958
			c0,0.391-0.126,0.713-0.377,0.969s-0.568,0.386-0.949,0.386c-0.235,0-0.461-0.052-0.675-0.16
			c-0.213-0.106-0.376-0.263-0.488-0.469C69.609,55.264,69.554,55.011,69.554,54.715z M70.252,54.752
			c0,0.254,0.061,0.45,0.182,0.586c0.121,0.136,0.271,0.204,0.449,0.204c0.178,0,0.328-0.068,0.447-0.204
			c0.121-0.136,0.181-0.334,0.181-0.591c0-0.255-0.06-0.447-0.181-0.581c-0.12-0.137-0.269-0.204-0.447-0.204
			c-0.177,0-0.328,0.067-0.449,0.204C70.313,54.3,70.252,54.496,70.252,54.752z"/>
		<path fill="#666666" d="M72.728,55.357h0.68v0.487c0,0.197-0.017,0.355-0.05,0.467c-0.034,0.114-0.099,0.217-0.192,0.307
			c-0.094,0.088-0.214,0.159-0.361,0.214l-0.133-0.282c0.138-0.045,0.235-0.106,0.294-0.188c0.057-0.08,0.087-0.189,0.091-0.325
			h-0.329L72.728,55.357L72.728,55.357z"/>
		<path fill="#666666" d="M75.51,56.039v-3.555h1.509c0.38,0,0.656,0.033,0.829,0.096c0.171,0.065,0.309,0.179,0.413,0.342
			c0.104,0.162,0.156,0.35,0.156,0.559c0,0.268-0.079,0.487-0.235,0.661c-0.156,0.175-0.392,0.283-0.703,0.328
			c0.156,0.089,0.283,0.189,0.384,0.297c0.101,0.108,0.237,0.299,0.408,0.575l0.434,0.693h-0.858l-0.519-0.776
			c-0.184-0.277-0.31-0.45-0.378-0.521c-0.067-0.073-0.139-0.121-0.215-0.149c-0.077-0.025-0.197-0.039-0.361-0.039h-0.146v1.483
			H75.51V56.039z M76.226,53.987h0.532c0.344,0,0.559-0.015,0.644-0.044s0.153-0.081,0.202-0.151
			c0.049-0.071,0.073-0.157,0.073-0.265c0-0.121-0.032-0.219-0.096-0.292c-0.064-0.073-0.154-0.121-0.271-0.14
			c-0.057-0.008-0.232-0.015-0.523-0.015h-0.561V53.987z"/>
		<path fill="#666666" d="M80.577,55.22l0.679,0.115c-0.087,0.25-0.225,0.437-0.414,0.571c-0.188,0.127-0.424,0.193-0.707,0.193
			c-0.447,0-0.779-0.149-0.994-0.438c-0.17-0.233-0.254-0.532-0.254-0.886c0-0.431,0.111-0.762,0.334-1.003
			c0.223-0.241,0.504-0.363,0.847-0.363c0.383,0,0.685,0.125,0.906,0.379c0.222,0.255,0.327,0.641,0.317,1.162h-1.706
			c0.005,0.202,0.06,0.36,0.164,0.471c0.105,0.113,0.236,0.167,0.393,0.167c0.106,0,0.196-0.027,0.27-0.086
			C80.486,55.441,80.54,55.35,80.577,55.22z M80.616,54.531c-0.005-0.197-0.056-0.348-0.152-0.45
			c-0.097-0.102-0.216-0.156-0.355-0.156c-0.148,0-0.271,0.053-0.368,0.16c-0.096,0.11-0.145,0.258-0.142,0.441L80.616,54.531
			L80.616,54.531z"/>
		<path fill="#666666" d="M84.093,54.226l-0.671,0.12c-0.022-0.133-0.074-0.233-0.154-0.302c-0.081-0.067-0.184-0.102-0.312-0.102
			c-0.169,0-0.305,0.058-0.406,0.175c-0.101,0.119-0.151,0.313-0.151,0.588c0,0.306,0.051,0.521,0.154,0.647
			c0.102,0.125,0.24,0.19,0.413,0.19c0.129,0,0.235-0.037,0.317-0.111c0.083-0.074,0.141-0.2,0.175-0.381l0.669,0.116
			c-0.07,0.306-0.202,0.538-0.399,0.694c-0.197,0.156-0.462,0.236-0.793,0.236c-0.376,0-0.675-0.12-0.9-0.356
			c-0.224-0.238-0.336-0.568-0.336-0.987c0-0.425,0.113-0.754,0.337-0.991c0.225-0.235,0.528-0.355,0.911-0.355
			c0.314,0,0.563,0.067,0.748,0.202C83.878,53.743,84.011,53.948,84.093,54.226z"/>
		<path fill="#666666" d="M85.79,53.465v0.542h-0.466v1.038c0,0.21,0.005,0.329,0.014,0.365c0.009,0.034,0.029,0.063,0.06,0.086
			c0.031,0.021,0.07,0.034,0.116,0.034c0.063,0,0.154-0.021,0.273-0.066l0.058,0.53c-0.158,0.068-0.337,0.103-0.538,0.103
			c-0.122,0-0.233-0.019-0.332-0.063c-0.099-0.04-0.171-0.092-0.217-0.156c-0.046-0.066-0.078-0.155-0.095-0.264
			c-0.015-0.081-0.021-0.24-0.021-0.481V54.01h-0.313v-0.542h0.313v-0.515l0.683-0.397v0.909H85.79z"/>
		<path fill="#666666" d="M86.261,53.114v-0.63h0.681v0.63H86.261z M86.261,56.039v-2.574h0.681v2.574H86.261z"/>
		<path fill="#666666" d="M87.344,53.465h0.378v-0.194c0-0.218,0.022-0.378,0.069-0.484c0.046-0.107,0.131-0.193,0.255-0.26
			c0.123-0.067,0.279-0.1,0.468-0.1c0.193,0,0.384,0.029,0.57,0.086l-0.091,0.474c-0.109-0.025-0.213-0.038-0.313-0.038
			c-0.098,0-0.169,0.022-0.212,0.069c-0.042,0.045-0.064,0.135-0.064,0.266v0.182h0.509V54h-0.51v2.038h-0.681V54h-0.378V53.465z"/>
		<path fill="#666666" d="M89.295,53.114v-0.63h0.681v0.63H89.295z M89.295,56.039v-2.574h0.681v2.574H89.295z"/>
		<path fill="#666666" d="M92.918,54.226l-0.671,0.12c-0.022-0.133-0.073-0.233-0.154-0.302c-0.08-0.067-0.184-0.102-0.312-0.102
			c-0.169,0-0.305,0.058-0.406,0.175c-0.101,0.119-0.151,0.313-0.151,0.588c0,0.306,0.052,0.521,0.154,0.647
			c0.102,0.125,0.241,0.19,0.413,0.19c0.129,0,0.235-0.037,0.317-0.111c0.083-0.074,0.141-0.2,0.175-0.381l0.669,0.116
			c-0.069,0.306-0.202,0.538-0.399,0.694s-0.462,0.236-0.792,0.236c-0.376,0-0.676-0.12-0.9-0.356
			c-0.224-0.238-0.336-0.568-0.336-0.987c0-0.425,0.113-0.754,0.337-0.991c0.225-0.235,0.528-0.355,0.911-0.355
			c0.313,0,0.562,0.067,0.748,0.202C92.703,53.743,92.836,53.948,92.918,54.226z"/>
		<path fill="#666666" d="M93.942,54.25l-0.618-0.112c0.069-0.249,0.189-0.432,0.36-0.552c0.17-0.12,0.421-0.18,0.756-0.18
			c0.304,0,0.53,0.035,0.678,0.108c0.149,0.071,0.255,0.162,0.314,0.273c0.06,0.11,0.091,0.314,0.091,0.609l-0.007,0.795
			c0,0.224,0.01,0.394,0.032,0.5c0.021,0.108,0.062,0.226,0.121,0.347h-0.673c-0.018-0.046-0.039-0.114-0.065-0.202
			c-0.011-0.041-0.019-0.066-0.024-0.08c-0.117,0.114-0.241,0.196-0.374,0.255c-0.131,0.056-0.274,0.086-0.424,0.086
			c-0.264,0-0.473-0.072-0.627-0.218c-0.152-0.142-0.228-0.327-0.228-0.543c0-0.146,0.034-0.275,0.104-0.391
			c0.07-0.116,0.167-0.2,0.293-0.26c0.125-0.062,0.306-0.113,0.541-0.158c0.319-0.059,0.539-0.117,0.663-0.169v-0.067
			c0-0.128-0.032-0.225-0.097-0.28c-0.064-0.054-0.187-0.083-0.365-0.083c-0.121,0-0.215,0.023-0.284,0.071
			C94.041,54.047,93.984,54.13,93.942,54.25z M94.854,54.802c-0.087,0.029-0.225,0.064-0.415,0.105
			c-0.189,0.04-0.313,0.082-0.371,0.12c-0.089,0.062-0.132,0.143-0.132,0.24c0,0.093,0.036,0.178,0.107,0.248
			c0.069,0.069,0.16,0.104,0.271,0.104c0.123,0,0.239-0.041,0.351-0.121c0.083-0.062,0.138-0.136,0.163-0.225
			c0.017-0.057,0.026-0.169,0.026-0.331V54.802z"/>
		<path fill="#666666" d="M98.439,54.226l-0.674,0.12c-0.021-0.133-0.073-0.233-0.153-0.302c-0.08-0.067-0.184-0.102-0.312-0.102
			c-0.17,0-0.306,0.058-0.406,0.175c-0.101,0.119-0.15,0.313-0.15,0.588c0,0.306,0.05,0.521,0.153,0.647
			c0.103,0.125,0.24,0.19,0.413,0.19c0.13,0,0.235-0.037,0.317-0.111c0.084-0.074,0.142-0.2,0.176-0.381l0.669,0.116
			c-0.069,0.306-0.202,0.538-0.399,0.694c-0.196,0.156-0.462,0.236-0.793,0.236c-0.376,0-0.676-0.12-0.9-0.356
			c-0.225-0.238-0.336-0.568-0.336-0.987c0-0.425,0.112-0.754,0.337-0.991c0.225-0.235,0.528-0.355,0.912-0.355
			c0.313,0,0.562,0.067,0.748,0.202C98.226,53.743,98.358,53.948,98.439,54.226z"/>
		<path fill="#666666" d="M98.956,53.114v-0.63h0.68v0.63H98.956z M98.956,56.039v-2.574h0.68v2.574H98.956z"/>
		<path fill="#666666" d="M100.177,54.715c0-0.226,0.055-0.445,0.167-0.656c0.111-0.212,0.271-0.374,0.475-0.485
			c0.204-0.112,0.432-0.167,0.685-0.167c0.389,0,0.708,0.126,0.955,0.379c0.25,0.254,0.374,0.573,0.374,0.958
			c0,0.391-0.126,0.713-0.377,0.969c-0.254,0.256-0.57,0.386-0.95,0.386c-0.236,0-0.464-0.052-0.674-0.16
			c-0.215-0.107-0.377-0.263-0.491-0.469C100.23,55.264,100.177,55.011,100.177,54.715z M100.875,54.752
			c0,0.254,0.062,0.45,0.181,0.586c0.122,0.136,0.272,0.204,0.449,0.204c0.178,0,0.328-0.068,0.446-0.204
			c0.122-0.136,0.182-0.334,0.182-0.591c0-0.255-0.059-0.447-0.182-0.581c-0.119-0.137-0.269-0.204-0.446-0.204
			c-0.177,0-0.327,0.067-0.449,0.204C100.937,54.3,100.875,54.496,100.875,54.752z M101.161,53.148l0.334-0.724h0.764l-0.667,0.724
			H101.161z"/>
		<path fill="#666666" d="M105.708,56.039h-0.682v-1.314c0-0.277-0.015-0.457-0.044-0.54c-0.029-0.081-0.076-0.144-0.141-0.189
			c-0.066-0.045-0.145-0.067-0.236-0.067c-0.121,0-0.226,0.032-0.317,0.097c-0.094,0.065-0.159,0.15-0.192,0.256
			c-0.036,0.107-0.052,0.305-0.052,0.593v1.166h-0.681v-2.574h0.633v0.377c0.224-0.29,0.508-0.434,0.848-0.434
			c0.151,0,0.289,0.028,0.413,0.084c0.121,0.053,0.219,0.12,0.281,0.207c0.064,0.086,0.109,0.18,0.135,0.288
			c0.021,0.107,0.037,0.258,0.037,0.458L105.708,56.039L105.708,56.039z"/>
		<path fill="#666666" d="M106.382,55.357h0.682v0.487c0,0.197-0.018,0.355-0.052,0.467c-0.034,0.114-0.099,0.217-0.191,0.307
			c-0.096,0.088-0.217,0.159-0.362,0.214l-0.133-0.282c0.138-0.045,0.232-0.106,0.293-0.188c0.057-0.08,0.088-0.189,0.091-0.325
			h-0.329L106.382,55.357L106.382,55.357z"/>
		<path fill="#666666" d="M111.436,54.732l0.696,0.223c-0.107,0.389-0.283,0.674-0.533,0.864c-0.247,0.19-0.562,0.282-0.943,0.282
			c-0.472,0-0.86-0.158-1.163-0.484c-0.305-0.324-0.456-0.763-0.456-1.324c0-0.591,0.153-1.051,0.458-1.375
			c0.306-0.328,0.707-0.493,1.204-0.493c0.435,0,0.789,0.128,1.058,0.388c0.162,0.152,0.285,0.367,0.363,0.652l-0.71,0.17
			c-0.042-0.185-0.127-0.328-0.26-0.436c-0.132-0.106-0.294-0.157-0.485-0.157c-0.264,0-0.478,0.093-0.641,0.285
			c-0.162,0.188-0.246,0.493-0.246,0.915c0,0.449,0.081,0.771,0.243,0.961c0.159,0.189,0.37,0.284,0.63,0.284
			c0.19,0,0.356-0.058,0.493-0.181C111.278,55.183,111.376,54.991,111.436,54.732z"/>
		<path fill="#666666" d="M113.251,54.25l-0.619-0.112c0.07-0.249,0.189-0.432,0.361-0.552c0.17-0.12,0.421-0.18,0.756-0.18
			c0.303,0,0.53,0.035,0.677,0.108c0.151,0.071,0.256,0.162,0.314,0.273c0.061,0.11,0.091,0.314,0.091,0.609l-0.007,0.795
			c0,0.224,0.01,0.394,0.033,0.5c0.019,0.108,0.059,0.226,0.12,0.347h-0.673c-0.018-0.046-0.039-0.114-0.064-0.202
			c-0.014-0.041-0.02-0.066-0.024-0.08c-0.116,0.114-0.241,0.196-0.374,0.255c-0.131,0.056-0.273,0.086-0.425,0.086
			c-0.264,0-0.473-0.072-0.626-0.218c-0.155-0.142-0.229-0.327-0.229-0.543c0-0.146,0.034-0.275,0.104-0.391
			c0.069-0.116,0.167-0.2,0.293-0.26c0.124-0.062,0.307-0.113,0.54-0.158c0.32-0.059,0.539-0.117,0.663-0.169v-0.067
			c0-0.128-0.032-0.225-0.097-0.28c-0.065-0.054-0.188-0.083-0.363-0.083c-0.121,0-0.219,0.023-0.284,0.071
			C113.35,54.047,113.293,54.13,113.251,54.25z M114.162,54.802c-0.086,0.029-0.224,0.064-0.414,0.105
			c-0.189,0.04-0.313,0.082-0.371,0.12c-0.087,0.062-0.13,0.143-0.13,0.24c0,0.093,0.035,0.178,0.106,0.248
			c0.069,0.069,0.158,0.104,0.268,0.104c0.123,0,0.24-0.041,0.354-0.121c0.085-0.062,0.138-0.136,0.161-0.225
			c0.018-0.057,0.025-0.169,0.025-0.331V54.802z"/>
		<path fill="#666666" d="M117.845,56.039h-0.682v-1.314c0-0.277-0.015-0.457-0.044-0.54c-0.029-0.081-0.076-0.144-0.141-0.189
			c-0.066-0.045-0.145-0.067-0.236-0.067c-0.118,0-0.226,0.032-0.317,0.097c-0.095,0.065-0.159,0.15-0.193,0.256
			c-0.035,0.107-0.052,0.305-0.052,0.593v1.166h-0.679v-2.574h0.632v0.377c0.226-0.29,0.508-0.434,0.848-0.434
			c0.151,0,0.289,0.028,0.413,0.084c0.124,0.053,0.219,0.12,0.282,0.207c0.064,0.086,0.108,0.18,0.134,0.288
			c0.023,0.107,0.037,0.258,0.037,0.458v1.599h-0.002V56.039z"/>
		<path fill="#666666" d="M120.778,54.226l-0.67,0.12c-0.022-0.133-0.074-0.233-0.156-0.302c-0.084-0.067-0.188-0.102-0.313-0.102
			c-0.169,0-0.305,0.058-0.405,0.175c-0.1,0.119-0.152,0.313-0.152,0.588c0,0.306,0.053,0.521,0.156,0.647
			c0.1,0.125,0.241,0.19,0.411,0.19c0.129,0,0.236-0.037,0.319-0.111s0.141-0.2,0.175-0.381l0.669,0.116
			c-0.069,0.306-0.202,0.538-0.398,0.694c-0.195,0.156-0.463,0.236-0.792,0.236c-0.377,0-0.674-0.12-0.9-0.356
			c-0.224-0.238-0.336-0.568-0.336-0.987c0-0.425,0.115-0.754,0.338-0.991c0.226-0.235,0.528-0.355,0.912-0.355
			c0.314,0,0.564,0.067,0.746,0.202C120.564,53.743,120.697,53.948,120.778,54.226z"/>
		<path fill="#666666" d="M122.786,55.22l0.679,0.115c-0.087,0.25-0.225,0.437-0.413,0.571c-0.19,0.13-0.424,0.193-0.708,0.193
			c-0.447,0-0.778-0.149-0.992-0.438c-0.17-0.233-0.255-0.532-0.255-0.886c0-0.431,0.111-0.762,0.333-1.003
			c0.221-0.241,0.505-0.363,0.846-0.363c0.383,0,0.686,0.125,0.906,0.379c0.225,0.255,0.329,0.641,0.317,1.162h-1.706
			c0.006,0.202,0.06,0.36,0.164,0.471c0.104,0.113,0.236,0.167,0.394,0.167c0.107,0,0.195-0.027,0.269-0.086
			C122.694,55.441,122.749,55.35,122.786,55.22z M122.825,54.531c-0.005-0.197-0.057-0.348-0.153-0.45
			c-0.097-0.102-0.216-0.156-0.354-0.156c-0.152,0-0.272,0.053-0.37,0.16c-0.094,0.11-0.144,0.258-0.142,0.441L122.825,54.531
			L122.825,54.531z"/>
		<path fill="#666666" d="M124.056,56.039v-3.555h0.682v3.555H124.056z"/>
		<path fill="#666666" d="M125.945,54.25l-0.618-0.112c0.069-0.249,0.19-0.432,0.36-0.552s0.423-0.18,0.758-0.18
			c0.3,0,0.53,0.035,0.676,0.108c0.15,0.071,0.255,0.162,0.313,0.273c0.062,0.11,0.093,0.314,0.093,0.609l-0.009,0.795
			c0,0.224,0.012,0.394,0.033,0.5c0.021,0.108,0.062,0.224,0.121,0.347h-0.675c-0.017-0.045-0.043-0.113-0.066-0.202
			c-0.014-0.041-0.017-0.066-0.021-0.08c-0.117,0.114-0.239,0.198-0.372,0.255c-0.133,0.058-0.274,0.086-0.425,0.086
			c-0.266,0-0.475-0.072-0.629-0.218c-0.154-0.142-0.226-0.326-0.226-0.543c0-0.146,0.033-0.275,0.104-0.391
			c0.069-0.115,0.167-0.2,0.291-0.26c0.127-0.062,0.307-0.113,0.543-0.158c0.317-0.057,0.539-0.117,0.66-0.169v-0.067
			c0-0.126-0.032-0.225-0.096-0.28c-0.064-0.052-0.188-0.083-0.364-0.083c-0.12,0-0.219,0.023-0.286,0.071
			C126.043,54.046,125.987,54.13,125.945,54.25z M126.855,54.802c-0.086,0.029-0.225,0.064-0.413,0.105
			c-0.189,0.04-0.313,0.082-0.372,0.12c-0.086,0.062-0.133,0.143-0.133,0.24c0,0.093,0.036,0.178,0.108,0.248
			c0.071,0.069,0.16,0.104,0.271,0.104c0.121,0,0.239-0.041,0.354-0.121c0.084-0.062,0.136-0.136,0.16-0.225
			c0.018-0.057,0.025-0.169,0.025-0.331V54.802L126.855,54.802z"/>
		<path fill="#666666" d="M130.44,54.226l-0.673,0.12c-0.02-0.133-0.074-0.233-0.156-0.302c-0.081-0.067-0.185-0.102-0.313-0.102
			c-0.168,0-0.302,0.058-0.402,0.175c-0.102,0.119-0.154,0.313-0.154,0.588c0,0.306,0.053,0.521,0.156,0.647
			c0.102,0.125,0.241,0.19,0.413,0.19c0.127,0,0.233-0.037,0.317-0.111c0.085-0.074,0.141-0.2,0.175-0.381l0.671,0.116
			c-0.069,0.306-0.202,0.538-0.399,0.694c-0.194,0.156-0.462,0.236-0.792,0.236c-0.378,0-0.676-0.12-0.9-0.356
			c-0.224-0.238-0.337-0.568-0.337-0.987c0-0.425,0.115-0.754,0.339-0.991c0.225-0.235,0.529-0.355,0.911-0.355
			c0.314,0,0.565,0.067,0.746,0.202C130.227,53.743,130.359,53.948,130.44,54.226z"/>
		<path fill="#666666" d="M130.957,53.114v-0.63h0.68v0.63H130.957z M130.957,56.039v-2.574h0.68v2.574H130.957z"/>
		<path fill="#666666" d="M132.178,54.715c0-0.226,0.058-0.445,0.169-0.656c0.111-0.212,0.269-0.374,0.473-0.485
			c0.206-0.112,0.432-0.167,0.685-0.167c0.391,0,0.708,0.126,0.957,0.379c0.247,0.254,0.369,0.573,0.369,0.958
			c0,0.391-0.123,0.713-0.374,0.969c-0.254,0.256-0.569,0.386-0.95,0.386c-0.234,0-0.462-0.052-0.674-0.16
			c-0.217-0.107-0.376-0.263-0.49-0.469C132.235,55.264,132.178,55.011,132.178,54.715z M132.878,54.752
			c0,0.254,0.06,0.45,0.181,0.586c0.123,0.136,0.271,0.204,0.449,0.204c0.178,0,0.328-0.068,0.446-0.204
			c0.122-0.136,0.18-0.334,0.18-0.591c0-0.255-0.057-0.447-0.18-0.581c-0.119-0.137-0.269-0.204-0.446-0.204
			c-0.179,0-0.327,0.067-0.449,0.204C132.938,54.3,132.878,54.496,132.878,54.752z M133.163,53.148l0.335-0.724h0.763l-0.666,0.724
			H133.163z"/>
		<path fill="#666666" d="M137.71,56.039h-0.679v-1.314c0-0.277-0.017-0.457-0.046-0.54c-0.028-0.081-0.075-0.144-0.142-0.189
			c-0.065-0.045-0.145-0.067-0.237-0.067c-0.118,0-0.223,0.032-0.317,0.097c-0.094,0.065-0.155,0.15-0.19,0.256
			c-0.034,0.107-0.052,0.305-0.052,0.593v1.166h-0.682v-2.574h0.633v0.377c0.225-0.29,0.507-0.434,0.849-0.434
			c0.15,0,0.288,0.028,0.411,0.084c0.123,0.053,0.219,0.12,0.283,0.207c0.063,0.086,0.108,0.18,0.133,0.288
			c0.024,0.107,0.037,0.258,0.037,0.458v1.599h-0.001V56.039z"/>
		<path fill="#666666" d="M139.458,53.465h0.725l0.615,1.828l0.602-1.828h0.705l-0.908,2.477l-0.162,0.449
			c-0.059,0.148-0.117,0.262-0.172,0.343c-0.052,0.08-0.116,0.145-0.187,0.19c-0.071,0.053-0.155,0.087-0.259,0.115
			c-0.104,0.027-0.221,0.044-0.349,0.044c-0.131,0-0.26-0.017-0.388-0.044l-0.059-0.534c0.106,0.02,0.201,0.029,0.29,0.029
			c0.156,0,0.275-0.045,0.353-0.139c0.076-0.09,0.133-0.211,0.174-0.354L139.458,53.465z"/>
		<path fill="#666666" d="M143.778,54.284c0-0.363,0.056-0.666,0.164-0.912c0.081-0.182,0.189-0.343,0.327-0.487
			c0.139-0.145,0.294-0.249,0.463-0.319c0.22-0.094,0.474-0.143,0.766-0.143c0.523,0,0.942,0.161,1.257,0.489
			c0.314,0.324,0.471,0.775,0.471,1.354c0,0.573-0.156,1.022-0.468,1.348c-0.311,0.323-0.729,0.485-1.25,0.485
			c-0.529,0-0.949-0.16-1.262-0.483C143.936,55.293,143.778,54.849,143.778,54.284z M144.519,54.26c0,0.401,0.092,0.707,0.278,0.915
			c0.187,0.207,0.423,0.311,0.708,0.311c0.289,0,0.523-0.103,0.707-0.31c0.185-0.205,0.274-0.515,0.274-0.926
			c0-0.406-0.086-0.708-0.265-0.913c-0.182-0.199-0.416-0.3-0.712-0.3c-0.293,0-0.536,0.102-0.713,0.304
			C144.609,53.545,144.519,53.85,144.519,54.26z"/>
		<path fill="#666666" d="M147.762,53.465h0.637v0.377c0.085-0.128,0.192-0.233,0.333-0.314c0.14-0.083,0.297-0.121,0.467-0.121
			c0.299,0,0.554,0.118,0.761,0.352c0.209,0.234,0.314,0.562,0.314,0.98c0,0.432-0.105,0.765-0.315,1.003
			c-0.211,0.238-0.466,0.36-0.765,0.36c-0.141,0-0.271-0.029-0.386-0.087c-0.117-0.054-0.237-0.155-0.365-0.291v1.295h-0.679
			L147.762,53.465L147.762,53.465z M148.436,54.708c0,0.288,0.057,0.5,0.172,0.639c0.117,0.138,0.257,0.207,0.419,0.207
			c0.159,0,0.293-0.061,0.397-0.189c0.105-0.126,0.156-0.335,0.156-0.624c0-0.27-0.053-0.471-0.16-0.603
			c-0.107-0.131-0.241-0.195-0.399-0.195c-0.167,0-0.305,0.064-0.415,0.19C148.49,54.266,148.436,54.455,148.436,54.708z"/>
		<path fill="#666666" d="M150.655,54.715c0-0.226,0.056-0.445,0.167-0.656c0.111-0.212,0.271-0.374,0.475-0.485
			c0.201-0.112,0.432-0.167,0.683-0.167c0.391,0,0.708,0.126,0.957,0.379c0.247,0.254,0.371,0.573,0.371,0.958
			c0,0.391-0.124,0.713-0.377,0.969c-0.251,0.256-0.57,0.386-0.95,0.386c-0.233,0-0.461-0.052-0.674-0.16
			c-0.214-0.107-0.375-0.263-0.489-0.469C150.711,55.264,150.655,55.011,150.655,54.715z M151.354,54.752
			c0,0.254,0.062,0.45,0.182,0.586c0.121,0.136,0.271,0.204,0.448,0.204c0.18,0,0.329-0.068,0.447-0.204
			c0.121-0.136,0.183-0.334,0.183-0.591c0-0.255-0.06-0.447-0.183-0.581c-0.12-0.137-0.268-0.204-0.447-0.204
			c-0.177,0-0.327,0.067-0.448,0.204C151.415,54.3,151.354,54.496,151.354,54.752z"/>
		<path fill="#666666" d="M153.605,55.304l0.684-0.104c0.028,0.133,0.088,0.233,0.177,0.301c0.087,0.066,0.214,0.104,0.374,0.104
			c0.177,0,0.31-0.033,0.396-0.098c0.058-0.047,0.088-0.106,0.088-0.183c0-0.053-0.017-0.094-0.049-0.128
			c-0.034-0.032-0.11-0.062-0.228-0.089c-0.549-0.121-0.897-0.232-1.045-0.332c-0.203-0.14-0.306-0.33-0.306-0.578
			c0-0.224,0.088-0.409,0.265-0.563c0.175-0.152,0.448-0.227,0.818-0.227c0.353,0,0.613,0.055,0.785,0.172
			c0.17,0.117,0.29,0.286,0.353,0.508l-0.641,0.12c-0.027-0.098-0.08-0.176-0.156-0.228c-0.078-0.052-0.189-0.083-0.328-0.083
			c-0.18,0-0.308,0.026-0.386,0.079c-0.053,0.035-0.079,0.082-0.079,0.137c0,0.051,0.022,0.087,0.068,0.121
			c0.062,0.046,0.273,0.11,0.638,0.19c0.362,0.084,0.615,0.186,0.76,0.303c0.142,0.121,0.213,0.29,0.213,0.507
			c0,0.234-0.098,0.438-0.295,0.605c-0.195,0.17-0.487,0.258-0.875,0.258c-0.352,0-0.629-0.071-0.832-0.214
			C153.802,55.739,153.669,55.549,153.605,55.304z"/>
		<path fill="#666666" d="M156.606,53.114v-0.63h0.682v0.63H156.606z M156.606,56.039v-2.574h0.682v2.574H156.606z"/>
		<path fill="#666666" d="M160.23,54.226l-0.672,0.12c-0.023-0.133-0.073-0.233-0.156-0.302c-0.082-0.067-0.186-0.102-0.312-0.102
			c-0.17,0-0.306,0.058-0.406,0.175c-0.098,0.119-0.15,0.313-0.15,0.588c0,0.306,0.053,0.521,0.156,0.647
			c0.102,0.125,0.239,0.19,0.413,0.19c0.127,0,0.232-0.037,0.317-0.111c0.082-0.074,0.141-0.2,0.175-0.381l0.669,0.116
			c-0.07,0.306-0.203,0.538-0.398,0.694c-0.198,0.156-0.464,0.236-0.794,0.236c-0.375,0-0.674-0.12-0.9-0.356
			c-0.224-0.238-0.335-0.568-0.335-0.987c0-0.425,0.114-0.754,0.337-0.991c0.225-0.235,0.528-0.355,0.914-0.355
			c0.313,0,0.562,0.067,0.746,0.202C160.017,53.743,160.149,53.948,160.23,54.226z"/>
		<path fill="#666666" d="M160.747,53.114v-0.63h0.68v0.63H160.747z M160.747,56.039v-2.574h0.68v2.574H160.747z"/>
		<path fill="#666666" d="M161.968,54.715c0-0.226,0.055-0.445,0.167-0.656c0.111-0.212,0.271-0.374,0.474-0.485
			c0.203-0.112,0.432-0.167,0.684-0.167c0.391,0,0.708,0.126,0.957,0.379c0.25,0.254,0.372,0.573,0.372,0.958
			c0,0.391-0.124,0.713-0.378,0.969c-0.251,0.256-0.57,0.386-0.949,0.386c-0.234,0-0.462-0.052-0.675-0.16
			c-0.212-0.106-0.377-0.263-0.488-0.469C162.021,55.265,161.968,55.011,161.968,54.715z M162.666,54.752
			c0,0.254,0.062,0.45,0.181,0.586c0.122,0.136,0.272,0.204,0.449,0.204c0.18,0,0.328-0.068,0.446-0.204
			c0.122-0.136,0.184-0.334,0.184-0.591c0-0.255-0.06-0.447-0.184-0.581c-0.119-0.137-0.267-0.204-0.446-0.204
			c-0.177,0-0.327,0.067-0.449,0.204C162.728,54.3,162.666,54.496,162.666,54.752z M162.952,53.148l0.334-0.724h0.764l-0.669,0.724
			H162.952z"/>
		<path fill="#666666" d="M167.499,56.039h-0.68v-1.314c0-0.277-0.015-0.457-0.044-0.54c-0.029-0.081-0.076-0.144-0.143-0.189
			c-0.064-0.045-0.145-0.067-0.236-0.067c-0.118,0-0.224,0.032-0.317,0.097c-0.094,0.065-0.157,0.15-0.192,0.256
			c-0.034,0.107-0.052,0.305-0.052,0.593v1.166h-0.681v-2.574h0.635v0.377c0.226-0.29,0.505-0.434,0.847-0.434
			c0.152,0,0.29,0.028,0.411,0.084c0.124,0.053,0.219,0.12,0.284,0.207c0.063,0.086,0.108,0.18,0.133,0.288
			c0.024,0.107,0.037,0.258,0.037,0.458v1.597h-0.002V56.039L167.499,56.039z"/>
		<path fill="#666666" d="M49.949,61.995h-0.634v-0.378c-0.105,0.147-0.229,0.256-0.372,0.328c-0.144,0.071-0.288,0.106-0.432,0.106
			c-0.296,0-0.549-0.118-0.76-0.355c-0.21-0.24-0.317-0.571-0.317-0.998c0-0.437,0.103-0.769,0.309-0.996
			c0.205-0.226,0.464-0.339,0.778-0.339c0.288,0,0.536,0.121,0.746,0.359v-1.279h0.681L49.949,61.995L49.949,61.995z M48.131,60.652
			c0,0.275,0.038,0.475,0.113,0.596c0.11,0.179,0.264,0.268,0.461,0.268c0.157,0,0.291-0.066,0.4-0.201
			c0.11-0.133,0.165-0.33,0.165-0.596c0-0.297-0.053-0.51-0.16-0.64c-0.107-0.128-0.243-0.192-0.41-0.192
			c-0.161,0-0.296,0.063-0.405,0.19C48.185,60.205,48.131,60.396,48.131,60.652z"/>
		<path fill="#666666" d="M52.11,61.176l0.679,0.116c-0.087,0.248-0.225,0.436-0.414,0.568c-0.188,0.13-0.423,0.194-0.707,0.194
			c-0.447,0-0.779-0.147-0.993-0.438c-0.17-0.231-0.255-0.53-0.255-0.884c0-0.43,0.111-0.761,0.334-1.002
			c0.223-0.243,0.504-0.364,0.847-0.364c0.383,0,0.685,0.125,0.906,0.379c0.222,0.256,0.328,0.64,0.317,1.161h-1.706
			c0.005,0.203,0.059,0.363,0.164,0.47c0.105,0.113,0.237,0.169,0.393,0.169c0.107,0,0.196-0.028,0.27-0.087
			C52.018,61.398,52.073,61.305,52.11,61.176z M52.148,60.487c-0.005-0.196-0.056-0.347-0.153-0.448
			c-0.097-0.104-0.215-0.156-0.354-0.156c-0.148,0-0.271,0.052-0.368,0.161c-0.096,0.111-0.145,0.259-0.143,0.439h1.018V60.487z"/>
		<path fill="#666666" d="M54.763,58.442h1.312c0.295,0,0.521,0.022,0.675,0.067c0.208,0.062,0.387,0.17,0.536,0.328
			c0.148,0.156,0.261,0.349,0.339,0.574c0.078,0.229,0.116,0.508,0.116,0.842c0,0.293-0.036,0.543-0.108,0.755
			c-0.089,0.259-0.217,0.468-0.38,0.63c-0.125,0.121-0.293,0.215-0.504,0.283c-0.159,0.053-0.37,0.074-0.635,0.074h-1.351
			L54.763,58.442L54.763,58.442z M55.479,59.043v2.354h0.536c0.2,0,0.345-0.012,0.434-0.034c0.116-0.029,0.213-0.079,0.29-0.149
			c0.076-0.069,0.14-0.183,0.188-0.342c0.048-0.16,0.072-0.377,0.072-0.65c0-0.275-0.024-0.486-0.072-0.633
			c-0.049-0.147-0.117-0.263-0.204-0.346c-0.087-0.082-0.197-0.138-0.332-0.166c-0.1-0.023-0.296-0.034-0.589-0.034H55.479
			L55.479,59.043z"/>
		<path fill="#666666" d="M58.853,60.207l-0.618-0.111c0.069-0.25,0.19-0.435,0.358-0.553c0.17-0.121,0.422-0.18,0.757-0.18
			c0.304,0,0.53,0.036,0.678,0.107c0.149,0.072,0.254,0.16,0.314,0.274c0.06,0.11,0.091,0.313,0.091,0.606l-0.007,0.795
			c0,0.225,0.01,0.396,0.032,0.502c0.022,0.106,0.063,0.224,0.122,0.345h-0.673c-0.018-0.046-0.04-0.112-0.065-0.2
			c-0.012-0.041-0.019-0.066-0.024-0.08c-0.116,0.114-0.241,0.196-0.373,0.255c-0.132,0.056-0.273,0.087-0.425,0.087
			c-0.264,0-0.473-0.073-0.626-0.219c-0.153-0.145-0.228-0.327-0.228-0.542c0-0.149,0.034-0.275,0.104-0.393
			c0.07-0.114,0.167-0.199,0.293-0.259c0.125-0.06,0.306-0.116,0.541-0.158c0.318-0.06,0.539-0.115,0.662-0.166V60.25
			c0-0.131-0.032-0.225-0.096-0.28c-0.065-0.055-0.188-0.083-0.366-0.083c-0.121,0-0.216,0.02-0.284,0.071
			C58.95,60.003,58.896,60.087,58.853,60.207z M59.764,60.759c-0.086,0.029-0.225,0.063-0.414,0.104
			c-0.19,0.041-0.313,0.083-0.372,0.122c-0.087,0.059-0.132,0.143-0.132,0.237c0,0.094,0.035,0.181,0.106,0.25
			c0.071,0.068,0.161,0.104,0.271,0.104c0.122,0,0.24-0.043,0.351-0.121c0.083-0.062,0.137-0.137,0.163-0.226
			c0.017-0.056,0.025-0.168,0.025-0.329V60.759z"/>
		<path fill="#666666" d="M62.285,59.422v0.542h-0.466v1.038c0,0.209,0.005,0.332,0.014,0.366c0.009,0.035,0.029,0.064,0.061,0.086
			c0.031,0.022,0.069,0.034,0.115,0.034c0.063,0,0.154-0.021,0.273-0.066l0.058,0.529c-0.158,0.067-0.337,0.102-0.538,0.102
			c-0.122,0-0.233-0.017-0.332-0.062c-0.099-0.04-0.171-0.091-0.217-0.157c-0.046-0.065-0.078-0.156-0.095-0.266
			c-0.015-0.078-0.021-0.236-0.021-0.478v-1.124h-0.313v-0.543h0.313v-0.511l0.683-0.396v0.91h0.465V59.422z"/>
		<path fill="#666666" d="M62.6,60.672c0-0.225,0.056-0.445,0.168-0.657c0.112-0.211,0.27-0.373,0.473-0.484
			c0.205-0.112,0.433-0.167,0.685-0.167c0.39,0,0.708,0.126,0.958,0.379c0.249,0.253,0.373,0.573,0.373,0.959
			c0,0.39-0.126,0.712-0.377,0.968c-0.251,0.256-0.568,0.384-0.949,0.384c-0.235,0-0.461-0.052-0.675-0.158
			c-0.214-0.107-0.376-0.262-0.488-0.468C62.655,61.22,62.6,60.968,62.6,60.672z M63.3,60.709c0,0.257,0.06,0.45,0.181,0.586
			s0.271,0.204,0.449,0.204c0.179,0,0.328-0.068,0.447-0.204c0.121-0.136,0.181-0.333,0.181-0.591c0-0.253-0.06-0.447-0.181-0.583
			c-0.12-0.136-0.268-0.202-0.447-0.202c-0.177,0-0.328,0.066-0.449,0.202S63.3,60.453,63.3,60.709z"/>
		<path fill="#666666" d="M65.55,61.261l0.683-0.104c0.029,0.133,0.088,0.232,0.177,0.303c0.088,0.067,0.213,0.102,0.374,0.102
			c0.176,0,0.308-0.032,0.397-0.096c0.059-0.045,0.089-0.106,0.089-0.183c0-0.052-0.017-0.094-0.049-0.128
			c-0.034-0.032-0.109-0.062-0.227-0.089c-0.55-0.12-0.898-0.231-1.045-0.331c-0.204-0.138-0.306-0.328-0.306-0.574
			c0-0.226,0.088-0.413,0.265-0.567c0.176-0.153,0.449-0.225,0.819-0.225c0.353,0,0.614,0.055,0.785,0.172
			c0.171,0.116,0.289,0.286,0.354,0.506l-0.643,0.12c-0.027-0.099-0.08-0.178-0.156-0.228c-0.077-0.052-0.187-0.083-0.328-0.083
			c-0.18,0-0.309,0.026-0.386,0.078c-0.051,0.034-0.078,0.081-0.078,0.138c0,0.05,0.022,0.087,0.068,0.121
			c0.061,0.046,0.273,0.11,0.637,0.19c0.363,0.087,0.615,0.188,0.759,0.302c0.143,0.121,0.214,0.292,0.214,0.505
			c0,0.237-0.099,0.439-0.296,0.609c-0.196,0.17-0.488,0.254-0.875,0.254c-0.352,0-0.628-0.071-0.833-0.212
			C65.748,61.698,65.614,61.506,65.55,61.261z"/>
		<path fill="#666666" d="M69.935,61.995v-3.553h1.152c0.436,0,0.72,0.017,0.853,0.053c0.203,0.052,0.374,0.166,0.512,0.349
			c0.137,0.178,0.206,0.405,0.206,0.691c0,0.219-0.04,0.399-0.12,0.551c-0.079,0.148-0.18,0.263-0.301,0.35
			c-0.122,0.086-0.246,0.141-0.372,0.168c-0.17,0.034-0.419,0.051-0.744,0.051h-0.467v1.339h-0.718V61.995z M70.654,59.043v1.009
			h0.393c0.283,0,0.472-0.018,0.568-0.057c0.096-0.037,0.17-0.092,0.225-0.174c0.055-0.079,0.082-0.169,0.082-0.276
			c0-0.127-0.038-0.234-0.115-0.321c-0.076-0.082-0.171-0.136-0.288-0.155c-0.086-0.018-0.258-0.024-0.517-0.024L70.654,59.043
			L70.654,59.043z"/>
		<path fill="#666666" d="M74.732,61.176l0.679,0.116c-0.087,0.248-0.225,0.436-0.414,0.568c-0.188,0.13-0.423,0.194-0.707,0.194
			c-0.447,0-0.778-0.147-0.993-0.438c-0.17-0.233-0.254-0.53-0.254-0.886c0-0.428,0.111-0.762,0.334-1.003
			c0.223-0.243,0.504-0.362,0.846-0.362c0.383,0,0.685,0.123,0.907,0.379c0.222,0.253,0.327,0.639,0.317,1.159h-1.707
			c0.005,0.202,0.06,0.362,0.165,0.47c0.105,0.113,0.236,0.168,0.393,0.168c0.107,0,0.196-0.029,0.269-0.086
			C74.639,61.398,74.695,61.305,74.732,61.176z M74.771,60.487c-0.005-0.196-0.055-0.347-0.152-0.448
			c-0.097-0.104-0.215-0.156-0.355-0.156c-0.148,0-0.271,0.052-0.368,0.161c-0.096,0.111-0.144,0.259-0.143,0.439h1.018V60.487z"/>
		<path fill="#666666" d="M76.653,61.995h-0.681v-2.574h0.633v0.365c0.108-0.174,0.205-0.287,0.292-0.341
			c0.087-0.056,0.185-0.084,0.294-0.084c0.156,0,0.304,0.043,0.448,0.125l-0.211,0.596c-0.114-0.076-0.221-0.113-0.32-0.113
			c-0.095,0-0.176,0.024-0.242,0.083c-0.066,0.051-0.118,0.147-0.156,0.285c-0.038,0.136-0.057,0.425-0.057,0.861L76.653,61.995
			L76.653,61.995z"/>
		<path fill="#666666" d="M77.694,61.261l0.683-0.104c0.029,0.133,0.088,0.232,0.177,0.303c0.088,0.067,0.213,0.102,0.374,0.102
			c0.176,0,0.309-0.032,0.397-0.096c0.059-0.045,0.089-0.106,0.089-0.183c0-0.052-0.017-0.094-0.049-0.128
			c-0.034-0.032-0.109-0.062-0.227-0.089c-0.55-0.12-0.898-0.231-1.045-0.331c-0.204-0.138-0.306-0.328-0.306-0.574
			c0-0.226,0.088-0.413,0.265-0.567c0.176-0.153,0.449-0.225,0.819-0.225c0.353,0,0.614,0.055,0.785,0.172
			c0.171,0.116,0.29,0.286,0.354,0.506l-0.643,0.12c-0.027-0.099-0.079-0.178-0.156-0.228c-0.077-0.052-0.187-0.083-0.328-0.083
			c-0.18,0-0.309,0.026-0.386,0.078c-0.051,0.034-0.078,0.081-0.078,0.138c0,0.05,0.023,0.087,0.068,0.121
			c0.061,0.046,0.273,0.11,0.637,0.19c0.363,0.087,0.615,0.188,0.759,0.302c0.143,0.121,0.214,0.292,0.214,0.505
			c0,0.237-0.099,0.439-0.296,0.609c-0.196,0.17-0.488,0.254-0.875,0.254c-0.352,0-0.628-0.071-0.833-0.212
			C77.891,61.698,77.758,61.506,77.694,61.261z"/>
		<path fill="#666666" d="M80.538,60.672c0-0.225,0.056-0.445,0.167-0.657c0.112-0.211,0.27-0.373,0.473-0.484
			c0.205-0.112,0.433-0.167,0.685-0.167c0.39,0,0.708,0.126,0.958,0.379c0.249,0.253,0.373,0.573,0.373,0.959
			c0,0.39-0.126,0.712-0.377,0.968c-0.251,0.256-0.568,0.384-0.95,0.384c-0.235,0-0.461-0.052-0.675-0.158
			c-0.214-0.107-0.376-0.262-0.488-0.468C80.591,61.219,80.538,60.968,80.538,60.672z M81.235,60.709
			c0,0.257,0.061,0.45,0.182,0.586s0.271,0.204,0.448,0.204c0.178,0,0.328-0.068,0.447-0.204c0.121-0.136,0.18-0.333,0.18-0.591
			c0-0.253-0.059-0.447-0.18-0.583c-0.121-0.136-0.269-0.202-0.447-0.202c-0.178,0-0.327,0.066-0.448,0.202
			C81.297,60.257,81.235,60.453,81.235,60.709z"/>
		<path fill="#666666" d="M86.067,61.995h-0.68v-1.313c0-0.278-0.015-0.458-0.044-0.539c-0.029-0.08-0.076-0.146-0.142-0.189
			c-0.065-0.047-0.144-0.066-0.236-0.066c-0.119,0-0.225,0.032-0.317,0.095c-0.094,0.063-0.157,0.151-0.192,0.259
			c-0.035,0.106-0.052,0.304-0.052,0.591v1.165h-0.681v-2.573h0.633V59.8c0.225-0.291,0.507-0.435,0.848-0.435
			c0.151,0,0.289,0.025,0.412,0.084c0.124,0.052,0.219,0.121,0.282,0.207c0.064,0.086,0.109,0.18,0.134,0.287
			c0.025,0.104,0.037,0.259,0.037,0.458L86.067,61.995L86.067,61.995z"/>
		<path fill="#666666" d="M87.269,60.207l-0.619-0.111c0.069-0.25,0.19-0.435,0.359-0.553c0.17-0.121,0.422-0.18,0.757-0.18
			c0.303,0,0.53,0.036,0.678,0.107c0.148,0.072,0.253,0.16,0.313,0.274c0.06,0.11,0.091,0.313,0.091,0.606l-0.007,0.795
			c0,0.225,0.011,0.396,0.033,0.502c0.021,0.106,0.062,0.224,0.122,0.345h-0.673c-0.018-0.046-0.04-0.112-0.066-0.2
			c-0.012-0.041-0.019-0.066-0.024-0.08c-0.116,0.114-0.24,0.196-0.373,0.255c-0.132,0.056-0.273,0.087-0.425,0.087
			c-0.264,0-0.473-0.073-0.626-0.219c-0.153-0.145-0.228-0.327-0.228-0.542c0-0.149,0.034-0.275,0.104-0.393
			c0.07-0.114,0.167-0.199,0.293-0.259c0.125-0.06,0.306-0.116,0.541-0.158c0.318-0.06,0.539-0.115,0.662-0.166V60.25
			c0-0.131-0.032-0.225-0.096-0.28c-0.064-0.055-0.187-0.083-0.365-0.083c-0.121,0-0.217,0.02-0.285,0.071
			C87.365,60.003,87.31,60.087,87.269,60.207z M88.178,60.759c-0.086,0.029-0.225,0.063-0.414,0.104
			c-0.189,0.041-0.313,0.083-0.371,0.122c-0.088,0.059-0.133,0.143-0.133,0.237c0,0.094,0.036,0.181,0.107,0.25
			c0.07,0.068,0.161,0.104,0.271,0.104c0.122,0,0.239-0.043,0.351-0.121c0.083-0.062,0.137-0.137,0.163-0.226
			c0.018-0.056,0.026-0.168,0.026-0.329V60.759z"/>
		<path fill="#666666" d="M89.521,61.995v-3.553h0.68v3.553H89.521z"/>
		<path fill="#666666" d="M92.389,61.176l0.678,0.116c-0.087,0.248-0.225,0.436-0.413,0.568c-0.188,0.13-0.424,0.194-0.708,0.194
			c-0.446,0-0.778-0.147-0.993-0.438c-0.17-0.231-0.255-0.53-0.255-0.884c0-0.43,0.111-0.761,0.334-1.002
			c0.223-0.243,0.504-0.364,0.846-0.364c0.382,0,0.685,0.125,0.905,0.379c0.222,0.256,0.328,0.64,0.317,1.161h-1.704
			c0.005,0.203,0.06,0.363,0.164,0.47c0.105,0.113,0.236,0.169,0.393,0.169c0.106,0,0.195-0.028,0.268-0.087
			C92.298,61.4,92.354,61.305,92.389,61.176z M92.428,60.487c-0.005-0.196-0.056-0.347-0.152-0.448
			c-0.096-0.104-0.215-0.154-0.354-0.154c-0.148,0-0.271,0.052-0.368,0.159c-0.096,0.111-0.145,0.259-0.143,0.44L92.428,60.487
			L92.428,60.487z"/>
		<path fill="#666666" d="M93.42,61.261l0.683-0.104c0.029,0.133,0.088,0.232,0.177,0.303c0.088,0.067,0.214,0.102,0.374,0.102
			c0.177,0,0.31-0.032,0.398-0.096c0.058-0.045,0.089-0.106,0.089-0.183c0-0.052-0.017-0.094-0.049-0.128
			c-0.034-0.032-0.11-0.062-0.228-0.089c-0.549-0.12-0.897-0.231-1.044-0.331c-0.204-0.138-0.306-0.328-0.306-0.574
			c0-0.226,0.088-0.413,0.265-0.567c0.175-0.153,0.448-0.225,0.819-0.225c0.352,0,0.613,0.055,0.785,0.172
			c0.17,0.116,0.289,0.286,0.354,0.506l-0.643,0.12c-0.027-0.101-0.079-0.18-0.154-0.229c-0.078-0.052-0.187-0.083-0.329-0.083
			c-0.18,0-0.308,0.026-0.386,0.078c-0.051,0.034-0.078,0.081-0.078,0.138c0,0.049,0.022,0.088,0.068,0.121
			c0.061,0.046,0.274,0.11,0.637,0.19c0.363,0.087,0.615,0.188,0.759,0.302c0.143,0.122,0.214,0.293,0.214,0.506
			c0,0.236-0.099,0.438-0.296,0.608c-0.195,0.17-0.487,0.255-0.875,0.255c-0.352,0-0.628-0.071-0.833-0.213
			C93.617,61.698,93.482,61.506,93.42,61.261z"/>
		<path fill="#666666" d="M100.16,61.995h-0.633v-0.378c-0.105,0.147-0.229,0.256-0.372,0.328c-0.143,0.071-0.287,0.106-0.433,0.106
			c-0.293,0-0.549-0.118-0.76-0.355c-0.209-0.24-0.317-0.571-0.317-0.998c0-0.437,0.104-0.769,0.31-0.996
			c0.204-0.226,0.465-0.339,0.777-0.339c0.291,0,0.536,0.121,0.746,0.359v-1.279h0.682V61.995L100.16,61.995z M98.342,60.652
			c0,0.275,0.039,0.475,0.113,0.596c0.113,0.179,0.265,0.268,0.464,0.268c0.156,0,0.293-0.066,0.398-0.201
			c0.112-0.133,0.165-0.33,0.165-0.596c0-0.297-0.052-0.51-0.158-0.64c-0.109-0.128-0.245-0.192-0.41-0.192
			c-0.161,0-0.295,0.063-0.406,0.19C98.398,60.205,98.342,60.396,98.342,60.652z"/>
		<path fill="#666666" d="M102.322,61.176l0.676,0.116c-0.086,0.248-0.224,0.436-0.41,0.568c-0.19,0.13-0.427,0.194-0.708,0.194
			c-0.446,0-0.778-0.147-0.992-0.438c-0.17-0.231-0.256-0.53-0.256-0.884c0-0.43,0.111-0.761,0.334-1.002
			c0.224-0.243,0.502-0.364,0.846-0.364c0.382,0,0.684,0.125,0.905,0.379c0.224,0.256,0.328,0.64,0.317,1.161h-1.704
			c0.005,0.203,0.06,0.363,0.163,0.47c0.105,0.113,0.236,0.169,0.395,0.169c0.106,0,0.195-0.028,0.269-0.087
			C102.23,61.398,102.285,61.305,102.322,61.176z M102.361,60.487c-0.005-0.196-0.057-0.347-0.152-0.448
			c-0.098-0.104-0.218-0.156-0.357-0.156c-0.151,0-0.271,0.052-0.366,0.161c-0.096,0.109-0.146,0.259-0.146,0.439h1.02v0.003
			L102.361,60.487L102.361,60.487z"/>
		<path fill="#666666" d="M103.592,61.995v-3.553h0.682v3.553H103.592z"/>
		<path fill="#666666" d="M106.355,61.995v-3.553h2.635v0.601h-1.916v0.788h1.784v0.6h-1.784v0.968h1.985v0.598h-2.702v-0.001
			H106.355L106.355,61.995z"/>
		<path fill="#666666" d="M109.421,61.261l0.684-0.104c0.027,0.133,0.087,0.232,0.177,0.303c0.087,0.067,0.214,0.102,0.374,0.102
			c0.176,0,0.308-0.032,0.396-0.096c0.058-0.045,0.088-0.106,0.088-0.183c0-0.052-0.017-0.094-0.049-0.128
			c-0.034-0.032-0.112-0.062-0.228-0.089c-0.549-0.12-0.897-0.231-1.046-0.331c-0.203-0.138-0.306-0.328-0.306-0.574
			c0-0.226,0.089-0.413,0.266-0.567c0.175-0.153,0.448-0.225,0.817-0.225c0.354,0,0.614,0.055,0.786,0.172
			c0.168,0.116,0.288,0.286,0.353,0.506l-0.642,0.12c-0.027-0.099-0.08-0.178-0.156-0.228c-0.08-0.052-0.188-0.083-0.327-0.083
			c-0.182,0-0.308,0.026-0.388,0.078c-0.051,0.034-0.077,0.081-0.077,0.138c0,0.05,0.02,0.087,0.067,0.121
			c0.062,0.046,0.274,0.11,0.639,0.19c0.362,0.087,0.613,0.188,0.759,0.302c0.143,0.121,0.214,0.292,0.214,0.505
			c0,0.237-0.098,0.439-0.295,0.609c-0.195,0.17-0.487,0.254-0.876,0.254c-0.351,0-0.628-0.071-0.832-0.212
			C109.619,61.698,109.484,61.506,109.421,61.261z"/>
		<path fill="#666666" d="M113.602,59.422v0.542h-0.464v1.038c0,0.209,0.005,0.332,0.013,0.366c0.011,0.035,0.029,0.064,0.062,0.086
			c0.03,0.022,0.069,0.034,0.115,0.034c0.063,0,0.155-0.021,0.273-0.066l0.059,0.529c-0.159,0.067-0.339,0.102-0.54,0.102
			c-0.121,0-0.231-0.017-0.33-0.062c-0.097-0.04-0.17-0.091-0.219-0.157c-0.045-0.065-0.077-0.156-0.094-0.266
			c-0.016-0.078-0.019-0.236-0.019-0.478v-1.124h-0.313v-0.543h0.313v-0.511l0.681-0.396v0.91h0.465L113.602,59.422L113.602,59.422z
			"/>
		<path fill="#666666" d="M114.585,60.207l-0.618-0.111c0.069-0.25,0.189-0.435,0.357-0.553c0.17-0.121,0.423-0.18,0.758-0.18
			c0.303,0,0.531,0.036,0.679,0.107c0.147,0.072,0.252,0.16,0.313,0.274c0.062,0.11,0.092,0.313,0.092,0.606l-0.01,0.795
			c0,0.225,0.014,0.396,0.032,0.502c0.02,0.106,0.063,0.224,0.12,0.345h-0.674c-0.018-0.046-0.04-0.112-0.066-0.2
			c-0.011-0.041-0.019-0.066-0.023-0.08c-0.115,0.114-0.24,0.196-0.373,0.255c-0.13,0.058-0.271,0.087-0.424,0.087
			c-0.266,0-0.475-0.073-0.627-0.219c-0.152-0.145-0.229-0.327-0.229-0.542c0-0.149,0.034-0.275,0.104-0.393
			c0.07-0.114,0.167-0.199,0.294-0.259c0.124-0.06,0.307-0.116,0.542-0.158c0.318-0.06,0.538-0.115,0.661-0.166V60.25
			c0-0.131-0.032-0.225-0.095-0.28c-0.064-0.055-0.19-0.083-0.364-0.083c-0.121,0-0.219,0.02-0.285,0.071
			C114.682,60.003,114.627,60.087,114.585,60.207z M115.495,60.759c-0.086,0.029-0.226,0.063-0.413,0.104
			c-0.189,0.041-0.314,0.083-0.372,0.122c-0.086,0.059-0.132,0.143-0.132,0.237c0,0.094,0.036,0.181,0.107,0.25
			c0.071,0.068,0.16,0.104,0.271,0.104c0.122,0,0.238-0.043,0.352-0.121c0.085-0.062,0.136-0.137,0.16-0.226
			c0.019-0.056,0.026-0.168,0.026-0.329V60.759L115.495,60.759z"/>
		<path fill="#666666" d="M119.196,61.995h-0.632v-0.378c-0.106,0.147-0.229,0.256-0.372,0.328c-0.144,0.071-0.29,0.106-0.432,0.106
			c-0.294,0-0.55-0.118-0.762-0.355c-0.21-0.24-0.315-0.571-0.315-0.998c0-0.437,0.102-0.769,0.308-0.996
			c0.206-0.226,0.465-0.339,0.778-0.339c0.287,0,0.535,0.121,0.745,0.359v-1.279h0.678v3.552H119.196L119.196,61.995z
			 M117.38,60.652c0,0.275,0.037,0.475,0.115,0.596c0.11,0.179,0.262,0.268,0.46,0.268c0.156,0,0.293-0.066,0.397-0.201
			c0.113-0.133,0.166-0.33,0.166-0.596c0-0.297-0.052-0.51-0.158-0.64c-0.109-0.128-0.243-0.192-0.41-0.192
			c-0.157,0-0.294,0.063-0.403,0.19C117.434,60.205,117.38,60.396,117.38,60.652z"/>
		<path fill="#666666" d="M119.71,60.672c0-0.225,0.057-0.445,0.168-0.657c0.112-0.211,0.27-0.373,0.474-0.484
			c0.205-0.112,0.431-0.167,0.685-0.167c0.391,0,0.708,0.126,0.956,0.379s0.372,0.573,0.372,0.959c0,0.39-0.126,0.712-0.377,0.968
			c-0.253,0.256-0.569,0.384-0.949,0.384c-0.235,0-0.463-0.052-0.675-0.158c-0.216-0.107-0.376-0.262-0.488-0.468
			C119.765,61.219,119.71,60.968,119.71,60.672z M120.409,60.709c0,0.257,0.061,0.45,0.182,0.586
			c0.122,0.136,0.271,0.204,0.448,0.204c0.179,0,0.329-0.068,0.447-0.204c0.121-0.136,0.18-0.333,0.18-0.591
			c0-0.253-0.058-0.447-0.18-0.583c-0.12-0.136-0.269-0.202-0.447-0.202c-0.178,0-0.327,0.066-0.448,0.202
			S120.409,60.453,120.409,60.709z"/>
		<path fill="#666666" d="M126.641,61.995h-0.632v-0.378c-0.107,0.147-0.229,0.256-0.372,0.328
			c-0.145,0.071-0.291,0.106-0.433,0.106c-0.295,0-0.549-0.118-0.761-0.355c-0.211-0.24-0.316-0.571-0.316-0.998
			c0-0.437,0.103-0.769,0.308-0.996c0.206-0.226,0.465-0.339,0.777-0.339c0.288,0,0.536,0.121,0.747,0.359v-1.279h0.678
			L126.641,61.995L126.641,61.995z M124.823,60.652c0,0.275,0.037,0.475,0.113,0.596c0.112,0.179,0.265,0.268,0.462,0.268
			c0.156,0,0.292-0.066,0.398-0.201c0.111-0.133,0.165-0.33,0.165-0.596c0-0.297-0.052-0.51-0.159-0.64
			c-0.108-0.128-0.244-0.192-0.409-0.192c-0.158,0-0.294,0.063-0.403,0.19C124.877,60.205,124.823,60.396,124.823,60.652z"/>
		<path fill="#666666" d="M128.802,61.176l0.681,0.116c-0.088,0.248-0.226,0.436-0.415,0.568c-0.189,0.13-0.424,0.194-0.707,0.194
			c-0.447,0-0.778-0.147-0.994-0.438c-0.171-0.231-0.257-0.53-0.257-0.884c0-0.43,0.114-0.761,0.335-1.002
			c0.225-0.243,0.501-0.364,0.846-0.364c0.384,0,0.684,0.125,0.907,0.379c0.225,0.256,0.328,0.64,0.319,1.161h-1.709
			c0.005,0.203,0.059,0.363,0.164,0.47c0.104,0.113,0.236,0.169,0.394,0.169c0.106,0,0.195-0.028,0.27-0.087
			C128.71,61.398,128.765,61.305,128.802,61.176z M128.841,60.487c-0.005-0.196-0.055-0.347-0.152-0.448
			c-0.097-0.104-0.217-0.156-0.356-0.156c-0.146,0-0.27,0.052-0.365,0.161c-0.098,0.111-0.146,0.259-0.143,0.439h1.017V60.487
			L128.841,60.487z"/>
		<path fill="#666666" d="M131.446,61.995v-3.553h1.073l0.646,2.424l0.637-2.424h1.076v3.553h-0.667v-2.797l-0.704,2.797h-0.691
			l-0.705-2.797v2.797H131.446z"/>
		<path fill="#666666" d="M137.078,61.176l0.679,0.116c-0.088,0.248-0.226,0.436-0.413,0.568c-0.19,0.13-0.427,0.194-0.709,0.194
			c-0.446,0-0.777-0.147-0.992-0.438c-0.17-0.231-0.254-0.53-0.254-0.884c0-0.43,0.109-0.761,0.332-1.002
			c0.225-0.243,0.502-0.364,0.847-0.364c0.382,0,0.684,0.125,0.905,0.379c0.223,0.256,0.327,0.64,0.318,1.161h-1.706
			c0.005,0.203,0.059,0.363,0.162,0.47c0.105,0.113,0.236,0.169,0.395,0.169c0.107,0,0.195-0.028,0.269-0.087
			C136.984,61.398,137.041,61.305,137.078,61.176z M137.117,60.487c-0.005-0.196-0.057-0.347-0.152-0.448
			c-0.098-0.104-0.218-0.156-0.357-0.156c-0.148,0-0.27,0.052-0.366,0.161c-0.096,0.111-0.145,0.259-0.143,0.439h1.019V60.487
			L137.117,60.487z M136.246,59.105l0.335-0.724h0.765l-0.67,0.724H136.246z"/>
		<path fill="#666666" d="M138.021,61.995l0.93-1.327l-0.891-1.249h0.832l0.457,0.709l0.478-0.709h0.802l-0.875,1.222l0.954,1.354
			h-0.837l-0.523-0.797l-0.53,0.797H138.021z"/>
		<path fill="#666666" d="M141.108,59.072v-0.63h0.682v0.63H141.108z M141.108,61.995v-2.574h0.682v2.574H141.108z"/>
		<path fill="#666666" d="M144.732,60.183l-0.672,0.121c-0.022-0.134-0.074-0.236-0.155-0.304c-0.082-0.066-0.186-0.101-0.312-0.101
			c-0.17,0-0.306,0.059-0.406,0.175s-0.153,0.313-0.153,0.588c0,0.306,0.053,0.521,0.156,0.647c0.103,0.126,0.24,0.189,0.413,0.189
			c0.13,0,0.235-0.037,0.319-0.111c0.082-0.073,0.141-0.199,0.175-0.379l0.669,0.113c-0.07,0.308-0.203,0.539-0.4,0.696
			c-0.195,0.157-0.461,0.234-0.791,0.234c-0.376,0-0.675-0.118-0.902-0.356c-0.224-0.236-0.333-0.564-0.333-0.985
			c0-0.425,0.112-0.757,0.334-0.993c0.226-0.233,0.53-0.354,0.914-0.354c0.313,0,0.564,0.066,0.748,0.202
			C144.519,59.7,144.651,59.906,144.732,60.183z"/>
		<path fill="#666666" d="M145.09,60.672c0-0.225,0.057-0.445,0.169-0.657c0.111-0.211,0.269-0.373,0.47-0.484
			c0.206-0.112,0.432-0.167,0.686-0.167c0.393,0,0.708,0.126,0.956,0.379c0.249,0.253,0.372,0.573,0.372,0.959
			c0,0.39-0.123,0.712-0.377,0.968c-0.251,0.256-0.568,0.384-0.949,0.384c-0.232,0-0.461-0.052-0.675-0.158
			c-0.214-0.107-0.376-0.262-0.487-0.468C145.146,61.219,145.09,60.968,145.09,60.672z M145.79,60.709
			c0,0.257,0.06,0.45,0.181,0.586c0.122,0.136,0.271,0.204,0.449,0.204c0.18,0,0.328-0.068,0.446-0.204
			c0.12-0.136,0.182-0.333,0.182-0.591c0-0.253-0.06-0.447-0.182-0.583c-0.119-0.136-0.267-0.202-0.446-0.202
			c-0.179,0-0.327,0.066-0.449,0.202C145.85,60.257,145.79,60.453,145.79,60.709z"/>
	</g>
</g>
</svg>
