<?xml version="1.0" encoding="utf-8"?>
<!-- Generator: Adobe Illustrator 15.0.2, SVG Export Plug-In . SVG Version: 6.00 Build 0)  -->
<!DOCTYPE svg PUBLIC "-//W3C//DTD SVG 1.1//EN" "http://www.w3.org/Graphics/SVG/1.1/DTD/svg11.dtd">
<svg version="1.1" id="Capa_1" xmlns="http://www.w3.org/2000/svg" xmlns:xlink="http://www.w3.org/1999/xlink" x="0px" y="0px"
	 width="229px" height="114px" viewBox="0 0 229 114" enable-background="new 0 0 229 114" xml:space="preserve">
<g>
	<g>
		<path fill="#333333" d="M34.183,99.348v-4.062h0.821v4.062H34.183z"/>
		<path fill="#333333" d="M38.457,99.348h-0.78v-1.503c0-0.316-0.017-0.522-0.051-0.615c-0.034-0.094-0.086-0.167-0.16-0.217
			c-0.075-0.053-0.165-0.08-0.271-0.08c-0.135,0-0.256,0.039-0.363,0.111c-0.107,0.074-0.182,0.172-0.22,0.295
			c-0.041,0.122-0.06,0.347-0.06,0.676v1.333h-0.779v-2.942h0.723v0.432c0.257-0.333,0.58-0.499,0.971-0.499
			c0.172,0,0.328,0.03,0.469,0.093c0.144,0.062,0.254,0.141,0.326,0.237c0.071,0.097,0.121,0.204,0.15,0.327
			c0.029,0.121,0.045,0.297,0.045,0.523V99.348z"/>
		<path fill="#333333" d="M38.971,98.508l0.781-0.119c0.031,0.151,0.102,0.266,0.203,0.345c0.101,0.078,0.243,0.118,0.427,0.118
			c0.2,0,0.352-0.037,0.454-0.112c0.066-0.051,0.102-0.119,0.102-0.207c0-0.059-0.018-0.107-0.056-0.146
			c-0.038-0.037-0.123-0.072-0.26-0.103c-0.628-0.138-1.026-0.265-1.193-0.38c-0.232-0.158-0.348-0.379-0.348-0.661
			c0-0.256,0.1-0.47,0.3-0.644c0.201-0.174,0.513-0.261,0.937-0.261c0.403,0,0.701,0.065,0.897,0.196
			c0.196,0.132,0.331,0.326,0.405,0.582l-0.735,0.137c-0.031-0.115-0.091-0.203-0.179-0.264c-0.088-0.062-0.211-0.092-0.374-0.092
			c-0.207,0-0.352,0.029-0.441,0.086c-0.06,0.041-0.088,0.094-0.088,0.158c0,0.057,0.025,0.103,0.075,0.141
			c0.071,0.053,0.313,0.125,0.729,0.219c0.417,0.096,0.705,0.211,0.869,0.348c0.163,0.137,0.244,0.332,0.244,0.579
			c0,0.269-0.113,0.501-0.339,0.694c-0.225,0.193-0.557,0.291-0.999,0.291c-0.401,0-0.72-0.081-0.951-0.242
			C39.196,99.007,39.041,98.786,38.971,98.508z"/>
		<path fill="#333333" d="M43.748,96.405v0.62h-0.529v1.187c0,0.239,0.005,0.379,0.016,0.42c0.008,0.038,0.032,0.07,0.069,0.098
			c0.036,0.025,0.079,0.037,0.131,0.037c0.071,0,0.177-0.023,0.313-0.074l0.066,0.604c-0.181,0.078-0.386,0.116-0.614,0.116
			c-0.142,0-0.268-0.023-0.38-0.07c-0.113-0.047-0.196-0.109-0.248-0.184c-0.054-0.074-0.09-0.175-0.109-0.303
			c-0.018-0.09-0.025-0.272-0.025-0.549v-1.282H42.08v-0.62h0.357v-0.586l0.781-0.453v1.039H43.748z"/>
		<path fill="#333333" d="M44.291,96.007v-0.721h0.779v0.721H44.291z M44.291,99.348v-2.942h0.779v2.942H44.291z"/>
		<path fill="#333333" d="M47.217,96.405v0.62h-0.532v1.187c0,0.239,0.005,0.379,0.015,0.42c0.011,0.038,0.034,0.07,0.069,0.098
			c0.037,0.025,0.08,0.037,0.132,0.037c0.072,0,0.177-0.023,0.313-0.074l0.066,0.604c-0.183,0.078-0.386,0.116-0.615,0.116
			c-0.141,0-0.267-0.023-0.38-0.07c-0.112-0.047-0.196-0.109-0.249-0.184c-0.052-0.074-0.087-0.175-0.107-0.303
			c-0.019-0.09-0.026-0.272-0.026-0.549v-1.282h-0.356v-0.62h0.356v-0.586l0.782-0.453v1.039H47.217z"/>
		<path fill="#333333" d="M49.693,99.348v-0.441c-0.106,0.157-0.247,0.28-0.422,0.372c-0.175,0.09-0.359,0.135-0.553,0.135
			c-0.198,0-0.375-0.043-0.532-0.13s-0.271-0.21-0.341-0.366s-0.105-0.373-0.105-0.65v-1.861h0.779v1.351
			c0,0.415,0.013,0.667,0.041,0.762c0.029,0.093,0.081,0.167,0.158,0.221c0.075,0.054,0.171,0.083,0.287,0.083
			c0.134,0,0.251-0.037,0.358-0.111c0.104-0.072,0.177-0.162,0.216-0.271c0.037-0.108,0.059-0.372,0.059-0.794v-1.24h0.777v2.942
			H49.693z"/>
		<path fill="#333333" d="M52.572,96.405v0.62h-0.533v1.187c0,0.239,0.008,0.379,0.016,0.42c0.012,0.038,0.033,0.07,0.069,0.098
			c0.036,0.025,0.08,0.037,0.131,0.037c0.073,0,0.178-0.023,0.313-0.074l0.069,0.604c-0.183,0.078-0.389,0.116-0.618,0.116
			c-0.139,0-0.266-0.023-0.379-0.07c-0.111-0.047-0.194-0.109-0.248-0.184c-0.051-0.074-0.088-0.175-0.108-0.303
			c-0.018-0.09-0.025-0.272-0.025-0.549v-1.282h-0.357v-0.62h0.357v-0.586l0.78-0.453v1.039H52.572z"/>
		<path fill="#333333" d="M52.933,97.834c0-0.259,0.062-0.509,0.19-0.75c0.128-0.241,0.31-0.428,0.542-0.556
			c0.233-0.127,0.495-0.19,0.782-0.19c0.445,0,0.811,0.145,1.095,0.435c0.284,0.288,0.427,0.653,0.427,1.096
			c0,0.445-0.144,0.813-0.43,1.105c-0.288,0.294-0.65,0.439-1.085,0.439c-0.271,0-0.526-0.061-0.772-0.182
			c-0.244-0.122-0.431-0.301-0.559-0.537C52.994,98.46,52.933,98.173,52.933,97.834z M53.731,97.876
			c0,0.291,0.068,0.516,0.208,0.671c0.136,0.155,0.308,0.231,0.512,0.231c0.202,0,0.373-0.076,0.512-0.231
			c0.136-0.155,0.204-0.381,0.204-0.677c0-0.287-0.068-0.51-0.204-0.664c-0.139-0.156-0.31-0.233-0.512-0.233
			c-0.204,0-0.376,0.077-0.512,0.233C53.8,97.36,53.731,97.584,53.731,97.876z"/>
		<path fill="#333333" d="M60.854,99.348h-0.723v-0.433c-0.121,0.168-0.263,0.293-0.424,0.374c-0.165,0.083-0.33,0.124-0.496,0.124
			c-0.338,0-0.629-0.136-0.869-0.408c-0.241-0.273-0.36-0.652-0.36-1.14c0-0.499,0.116-0.879,0.351-1.138
			c0.235-0.26,0.531-0.39,0.89-0.39c0.328,0,0.612,0.137,0.854,0.41v-1.462h0.778V99.348z M58.776,97.813
			c0,0.313,0.044,0.541,0.13,0.682c0.124,0.201,0.299,0.303,0.526,0.303c0.179,0,0.331-0.076,0.456-0.229
			c0.127-0.15,0.188-0.38,0.188-0.682c0-0.339-0.062-0.583-0.183-0.73c-0.12-0.148-0.278-0.225-0.467-0.225
			c-0.187,0-0.341,0.074-0.468,0.221C58.838,97.301,58.776,97.521,58.776,97.813z"/>
		<path fill="#333333" d="M63.325,98.411l0.775,0.131c-0.1,0.283-0.259,0.5-0.472,0.647c-0.215,0.149-0.485,0.224-0.808,0.224
			c-0.512,0-0.891-0.166-1.137-0.501c-0.193-0.269-0.291-0.605-0.291-1.015c0-0.487,0.128-0.869,0.383-1.146
			c0.254-0.274,0.576-0.413,0.967-0.413c0.438,0,0.784,0.145,1.036,0.435c0.253,0.288,0.375,0.731,0.362,1.328h-1.949
			c0.003,0.23,0.069,0.409,0.188,0.538c0.12,0.128,0.27,0.193,0.448,0.193c0.124,0,0.226-0.034,0.308-0.101
			C63.221,98.667,63.283,98.558,63.325,98.411z M63.369,97.624c-0.006-0.226-0.063-0.397-0.176-0.515
			c-0.109-0.118-0.246-0.177-0.402-0.177c-0.173,0-0.311,0.063-0.422,0.187c-0.11,0.124-0.166,0.291-0.164,0.505H63.369z"/>
		<path fill="#333333" d="M67.272,99.348v-3.375h-1.204v-0.687h3.227v0.687h-1.202v3.375H67.272z"/>
		<path fill="#333333" d="M70.252,99.348h-0.78v-2.942h0.723v0.418c0.125-0.197,0.237-0.328,0.336-0.391
			c0.098-0.063,0.211-0.095,0.336-0.095c0.179,0,0.349,0.048,0.514,0.147l-0.241,0.678c-0.132-0.084-0.254-0.127-0.367-0.127
			c-0.108,0-0.201,0.03-0.277,0.09c-0.074,0.06-0.134,0.17-0.177,0.327c-0.044,0.157-0.065,0.484-0.065,0.985V99.348z"/>
		<path fill="#333333" d="M72.297,97.302l-0.707-0.127c0.08-0.285,0.215-0.494,0.41-0.631c0.193-0.137,0.481-0.206,0.864-0.206
			c0.348,0,0.604,0.041,0.774,0.124c0.171,0.082,0.291,0.186,0.36,0.312c0.069,0.128,0.105,0.36,0.105,0.698l-0.011,0.908
			c0,0.259,0.014,0.448,0.037,0.571c0.025,0.122,0.072,0.257,0.142,0.396h-0.771c-0.02-0.052-0.045-0.128-0.075-0.229
			c-0.011-0.047-0.022-0.078-0.026-0.093c-0.133,0.13-0.276,0.227-0.428,0.29c-0.151,0.066-0.313,0.098-0.484,0.098
			c-0.304,0-0.54-0.082-0.717-0.246c-0.176-0.164-0.261-0.372-0.261-0.623c0-0.166,0.039-0.314,0.118-0.445
			c0.08-0.131,0.191-0.23,0.335-0.299c0.143-0.07,0.35-0.129,0.619-0.181c0.363-0.069,0.616-0.133,0.757-0.192v-0.078
			c0-0.148-0.038-0.256-0.112-0.319c-0.073-0.064-0.213-0.097-0.417-0.097c-0.138,0-0.246,0.028-0.325,0.082
			C72.407,97.069,72.345,97.167,72.297,97.302z M73.339,97.935c-0.101,0.033-0.259,0.072-0.475,0.119
			c-0.217,0.045-0.357,0.092-0.423,0.136c-0.103,0.071-0.155,0.163-0.155,0.273c0,0.108,0.043,0.204,0.124,0.282
			c0.082,0.08,0.187,0.119,0.31,0.119c0.14,0,0.274-0.045,0.401-0.138c0.095-0.069,0.155-0.155,0.187-0.258
			c0.02-0.066,0.031-0.192,0.031-0.38V97.935z"/>
		<path fill="#333333" d="M77.545,99.348h-0.778v-1.503c0-0.316-0.015-0.522-0.049-0.615c-0.034-0.094-0.088-0.167-0.163-0.217
			c-0.074-0.053-0.164-0.08-0.27-0.08c-0.134,0-0.256,0.039-0.362,0.111c-0.105,0.074-0.18,0.172-0.222,0.295
			c-0.039,0.122-0.057,0.347-0.057,0.676v1.333h-0.78v-2.942h0.725v0.432c0.256-0.333,0.579-0.499,0.967-0.499
			c0.174,0,0.33,0.03,0.473,0.093c0.143,0.062,0.25,0.141,0.323,0.237c0.072,0.097,0.123,0.204,0.152,0.327
			c0.029,0.121,0.041,0.297,0.041,0.523V99.348z"/>
		<path fill="#333333" d="M78.062,98.508l0.781-0.119c0.032,0.151,0.101,0.266,0.204,0.345c0.1,0.078,0.241,0.118,0.424,0.118
			c0.203,0,0.354-0.037,0.456-0.112c0.067-0.051,0.103-0.119,0.103-0.207c0-0.059-0.018-0.107-0.056-0.146
			c-0.04-0.037-0.126-0.072-0.261-0.103c-0.628-0.138-1.025-0.265-1.194-0.38c-0.233-0.158-0.349-0.379-0.349-0.661
			c0-0.256,0.1-0.47,0.302-0.644c0.201-0.174,0.514-0.261,0.938-0.261c0.401,0,0.701,0.065,0.896,0.196
			c0.194,0.132,0.33,0.326,0.404,0.582l-0.733,0.137c-0.031-0.115-0.091-0.203-0.18-0.264c-0.087-0.062-0.212-0.092-0.375-0.092
			c-0.205,0-0.352,0.029-0.439,0.086c-0.061,0.041-0.09,0.094-0.09,0.158c0,0.057,0.026,0.103,0.078,0.141
			c0.07,0.053,0.313,0.125,0.728,0.219c0.414,0.096,0.704,0.211,0.869,0.348c0.162,0.137,0.244,0.332,0.244,0.579
			c0,0.269-0.114,0.501-0.339,0.694s-0.561,0.291-1.002,0.291c-0.399,0-0.716-0.081-0.951-0.242
			C78.286,99.007,78.134,98.786,78.062,98.508z"/>
		<path fill="#333333" d="M81.471,96.405h0.726v0.432c0.092-0.147,0.221-0.268,0.381-0.359c0.163-0.094,0.339-0.14,0.534-0.14
			c0.343,0,0.633,0.134,0.871,0.401c0.24,0.27,0.357,0.642,0.357,1.12c0,0.491-0.119,0.872-0.36,1.146
			c-0.24,0.272-0.53,0.408-0.872,0.408c-0.164,0-0.31-0.031-0.441-0.098c-0.133-0.063-0.271-0.174-0.417-0.331v1.481h-0.778V96.405z
			 M82.238,97.826c0,0.33,0.067,0.575,0.198,0.731c0.131,0.158,0.291,0.238,0.479,0.238c0.181,0,0.332-0.074,0.452-0.218
			c0.119-0.146,0.179-0.382,0.179-0.713c0-0.31-0.062-0.538-0.184-0.688c-0.125-0.149-0.278-0.224-0.46-0.224
			c-0.192,0-0.351,0.072-0.476,0.219C82.304,97.319,82.238,97.538,82.238,97.826z"/>
		<path fill="#333333" d="M85.541,97.302l-0.706-0.127c0.077-0.285,0.214-0.494,0.409-0.631c0.193-0.137,0.481-0.206,0.863-0.206
			c0.349,0,0.606,0.041,0.775,0.124c0.17,0.082,0.29,0.186,0.358,0.312c0.069,0.128,0.104,0.36,0.104,0.698l-0.008,0.908
			c0,0.259,0.014,0.448,0.038,0.571c0.025,0.122,0.071,0.257,0.14,0.396h-0.771c-0.019-0.052-0.047-0.128-0.074-0.229
			c-0.013-0.047-0.022-0.078-0.028-0.093c-0.134,0.13-0.275,0.227-0.427,0.29c-0.151,0.066-0.313,0.098-0.485,0.098
			c-0.302,0-0.542-0.082-0.716-0.246c-0.175-0.164-0.262-0.372-0.262-0.623c0-0.166,0.038-0.314,0.118-0.445
			c0.081-0.131,0.192-0.23,0.333-0.299c0.146-0.07,0.352-0.129,0.621-0.181c0.364-0.069,0.618-0.133,0.757-0.192v-0.078
			c0-0.148-0.038-0.256-0.112-0.319c-0.072-0.064-0.212-0.097-0.417-0.097c-0.138,0-0.248,0.028-0.325,0.082
			C85.648,97.069,85.589,97.167,85.541,97.302z M86.582,97.935c-0.1,0.033-0.259,0.072-0.475,0.119
			c-0.215,0.045-0.355,0.092-0.423,0.136c-0.103,0.071-0.153,0.163-0.153,0.273c0,0.108,0.042,0.204,0.121,0.282
			c0.083,0.08,0.187,0.119,0.313,0.119c0.14,0,0.272-0.045,0.4-0.138c0.096-0.069,0.156-0.155,0.187-0.258
			c0.019-0.066,0.03-0.192,0.03-0.38V97.935z"/>
		<path fill="#333333" d="M88.859,99.348h-0.778v-2.942h0.723v0.418c0.123-0.197,0.234-0.328,0.333-0.391
			c0.1-0.063,0.212-0.095,0.336-0.095c0.177,0,0.351,0.048,0.515,0.147l-0.242,0.678c-0.131-0.084-0.252-0.127-0.365-0.127
			c-0.11,0-0.202,0.03-0.278,0.09c-0.074,0.06-0.135,0.17-0.178,0.327c-0.042,0.157-0.064,0.484-0.064,0.985V99.348z"/>
		<path fill="#333333" d="M92.024,98.411l0.778,0.131c-0.101,0.283-0.258,0.5-0.474,0.647c-0.214,0.149-0.485,0.224-0.808,0.224
			c-0.511,0-0.89-0.166-1.135-0.501c-0.195-0.269-0.291-0.605-0.291-1.015c0-0.487,0.127-0.869,0.381-1.146
			c0.255-0.274,0.579-0.413,0.967-0.413c0.438,0,0.783,0.145,1.037,0.435c0.252,0.288,0.374,0.731,0.363,1.328h-1.951
			c0.006,0.23,0.069,0.409,0.188,0.538c0.12,0.128,0.269,0.193,0.449,0.193c0.121,0,0.225-0.034,0.308-0.101
			C91.92,98.667,91.985,98.558,92.024,98.411z M92.07,97.624c-0.006-0.226-0.063-0.397-0.174-0.515
			c-0.11-0.118-0.247-0.177-0.405-0.177c-0.17,0-0.312,0.063-0.421,0.187c-0.111,0.124-0.166,0.291-0.163,0.505H92.07z"/>
		<path fill="#333333" d="M96.153,99.348h-0.778v-1.503c0-0.316-0.015-0.522-0.048-0.615c-0.034-0.094-0.089-0.167-0.163-0.217
			c-0.074-0.053-0.165-0.08-0.271-0.08c-0.135,0-0.255,0.039-0.363,0.111c-0.105,0.074-0.178,0.172-0.219,0.295
			c-0.039,0.122-0.062,0.347-0.062,0.676v1.333h-0.776v-2.942h0.724v0.432c0.256-0.333,0.579-0.499,0.968-0.499
			c0.171,0,0.33,0.03,0.472,0.093c0.143,0.062,0.25,0.141,0.322,0.237c0.074,0.097,0.126,0.204,0.152,0.327
			c0.03,0.121,0.043,0.297,0.043,0.523V99.348z"/>
		<path fill="#333333" d="M99.508,97.274l-0.766,0.139c-0.026-0.152-0.084-0.269-0.177-0.346c-0.092-0.078-0.209-0.117-0.355-0.117
			c-0.194,0-0.349,0.068-0.464,0.201c-0.114,0.135-0.173,0.357-0.173,0.672c0,0.35,0.059,0.596,0.176,0.74s0.274,0.215,0.474,0.215
			c0.147,0,0.268-0.041,0.362-0.125c0.093-0.085,0.159-0.229,0.199-0.434l0.763,0.13c-0.079,0.351-0.23,0.616-0.456,0.796
			c-0.224,0.179-0.527,0.268-0.906,0.268c-0.431,0-0.774-0.135-1.029-0.406c-0.257-0.271-0.382-0.648-0.382-1.128
			c0-0.485,0.128-0.864,0.383-1.136c0.258-0.271,0.606-0.405,1.042-0.405c0.358,0,0.644,0.077,0.854,0.231
			S99.416,96.959,99.508,97.274z"/>
		<path fill="#333333" d="M100.098,96.007v-0.721h0.78v0.721H100.098z M100.098,99.348v-2.942h0.78v2.942H100.098z"/>
		<path fill="#333333" d="M102.256,97.302l-0.703-0.127c0.08-0.285,0.215-0.494,0.409-0.631c0.192-0.137,0.482-0.206,0.863-0.206
			c0.347,0,0.607,0.041,0.776,0.124c0.17,0.082,0.29,0.186,0.359,0.312c0.066,0.128,0.103,0.36,0.103,0.698l-0.007,0.908
			c0,0.259,0.014,0.448,0.036,0.571c0.024,0.122,0.071,0.257,0.141,0.396h-0.771c-0.021-0.052-0.043-0.128-0.075-0.229
			c-0.013-0.047-0.021-0.078-0.026-0.093c-0.136,0.13-0.276,0.227-0.428,0.29c-0.152,0.066-0.312,0.098-0.484,0.098
			c-0.303,0-0.542-0.082-0.716-0.246c-0.175-0.164-0.263-0.372-0.263-0.623c0-0.166,0.039-0.314,0.12-0.445
			c0.079-0.131,0.191-0.23,0.332-0.299c0.146-0.07,0.35-0.129,0.62-0.181c0.363-0.069,0.615-0.133,0.756-0.192v-0.078
			c0-0.148-0.036-0.256-0.11-0.319c-0.072-0.064-0.213-0.097-0.419-0.097c-0.138,0-0.247,0.028-0.324,0.082
			C102.368,97.069,102.305,97.167,102.256,97.302z M103.299,97.935c-0.099,0.033-0.258,0.072-0.474,0.119
			c-0.216,0.045-0.356,0.092-0.424,0.136c-0.1,0.071-0.152,0.163-0.152,0.273c0,0.108,0.042,0.204,0.122,0.282
			c0.081,0.08,0.185,0.119,0.311,0.119c0.141,0,0.274-0.045,0.401-0.138c0.094-0.069,0.156-0.155,0.187-0.258
			c0.021-0.066,0.029-0.192,0.029-0.38V97.935z"/>
		<path fill="#333333" d="M104.814,98.568h0.776v0.558c0,0.225-0.021,0.402-0.06,0.533c-0.038,0.129-0.111,0.247-0.218,0.35
			c-0.108,0.104-0.246,0.186-0.412,0.244l-0.152-0.322c0.156-0.051,0.267-0.121,0.334-0.212s0.103-0.215,0.105-0.371h-0.374V98.568z
			"/>
		<path fill="#333333" d="M111.442,99.348h-0.891l-0.355-0.923h-1.624l-0.337,0.923h-0.868l1.582-4.062h0.866L111.442,99.348z
			 M109.933,97.739l-0.561-1.506l-0.549,1.506H109.933z"/>
		<path fill="#333333" d="M114.437,97.274l-0.768,0.139c-0.024-0.152-0.084-0.269-0.175-0.346c-0.092-0.078-0.21-0.117-0.356-0.117
			c-0.194,0-0.349,0.068-0.464,0.201c-0.116,0.135-0.173,0.357-0.173,0.672c0,0.35,0.059,0.596,0.177,0.74
			c0.116,0.145,0.275,0.215,0.473,0.215c0.147,0,0.269-0.041,0.362-0.125c0.094-0.085,0.158-0.229,0.199-0.434l0.765,0.13
			c-0.081,0.351-0.231,0.616-0.457,0.796c-0.227,0.179-0.528,0.268-0.907,0.268c-0.43,0-0.773-0.135-1.028-0.406
			c-0.258-0.271-0.382-0.648-0.382-1.128c0-0.485,0.124-0.864,0.383-1.136c0.257-0.271,0.605-0.405,1.043-0.405
			c0.356,0,0.644,0.077,0.855,0.231C114.192,96.724,114.346,96.959,114.437,97.274z"/>
		<path fill="#333333" d="M117.592,97.274l-0.766,0.139c-0.026-0.152-0.085-0.269-0.178-0.346c-0.088-0.078-0.21-0.117-0.355-0.117
			c-0.193,0-0.35,0.068-0.465,0.201c-0.114,0.135-0.172,0.357-0.172,0.672c0,0.35,0.058,0.596,0.176,0.74
			c0.119,0.145,0.274,0.215,0.472,0.215c0.147,0,0.269-0.041,0.364-0.125c0.095-0.085,0.162-0.229,0.2-0.434l0.764,0.13
			c-0.079,0.351-0.23,0.616-0.457,0.796c-0.226,0.179-0.527,0.268-0.905,0.268c-0.431,0-0.774-0.135-1.029-0.406
			c-0.256-0.271-0.385-0.648-0.385-1.128c0-0.485,0.129-0.864,0.386-1.136c0.256-0.271,0.604-0.405,1.042-0.405
			c0.359,0,0.643,0.077,0.854,0.231S117.501,96.959,117.592,97.274z"/>
		<path fill="#333333" d="M119.887,98.411l0.776,0.131c-0.1,0.283-0.259,0.5-0.473,0.647c-0.215,0.149-0.483,0.224-0.809,0.224
			c-0.51,0-0.889-0.166-1.136-0.501c-0.193-0.269-0.291-0.605-0.291-1.015c0-0.487,0.128-0.869,0.384-1.146
			c0.254-0.274,0.576-0.413,0.967-0.413c0.437,0,0.784,0.145,1.036,0.435c0.253,0.288,0.373,0.731,0.362,1.328h-1.95
			c0.006,0.23,0.067,0.409,0.188,0.538c0.121,0.128,0.271,0.193,0.447,0.193c0.122,0,0.226-0.034,0.31-0.101
			C119.781,98.667,119.845,98.558,119.887,98.411z M119.932,97.624c-0.006-0.226-0.064-0.397-0.174-0.515
			c-0.111-0.118-0.247-0.177-0.406-0.177c-0.168,0-0.309,0.063-0.42,0.187s-0.166,0.291-0.164,0.505H119.932z"/>
		<path fill="#333333" d="M121.065,98.508l0.78-0.119c0.035,0.151,0.101,0.266,0.203,0.345c0.101,0.078,0.244,0.118,0.426,0.118
			c0.203,0,0.352-0.037,0.454-0.112c0.067-0.051,0.103-0.119,0.103-0.207c0-0.059-0.019-0.107-0.055-0.146
			c-0.039-0.037-0.126-0.072-0.261-0.103c-0.627-0.138-1.025-0.265-1.194-0.38c-0.231-0.158-0.348-0.379-0.348-0.661
			c0-0.256,0.101-0.47,0.301-0.644s0.515-0.261,0.938-0.261c0.4,0,0.701,0.065,0.896,0.196c0.196,0.132,0.33,0.326,0.405,0.582
			l-0.735,0.137c-0.03-0.115-0.089-0.203-0.178-0.264c-0.087-0.062-0.212-0.092-0.375-0.092c-0.206,0-0.353,0.029-0.441,0.086
			c-0.059,0.041-0.087,0.094-0.087,0.158c0,0.057,0.023,0.103,0.076,0.141c0.068,0.053,0.312,0.125,0.728,0.219
			c0.416,0.096,0.703,0.211,0.867,0.348s0.245,0.332,0.245,0.579c0,0.269-0.113,0.501-0.337,0.694
			c-0.227,0.193-0.562,0.291-1.002,0.291c-0.4,0-0.718-0.081-0.95-0.242C121.29,99.007,121.137,98.786,121.065,98.508z"/>
		<path fill="#333333" d="M124.315,97.834c0-0.259,0.062-0.509,0.19-0.75c0.128-0.241,0.309-0.428,0.542-0.556
			c0.233-0.127,0.495-0.19,0.782-0.19c0.443,0,0.812,0.145,1.096,0.435c0.284,0.288,0.426,0.653,0.426,1.096
			c0,0.445-0.144,0.813-0.432,1.105c-0.287,0.294-0.649,0.439-1.084,0.439c-0.271,0-0.526-0.061-0.771-0.182
			c-0.245-0.122-0.432-0.301-0.56-0.537C124.377,98.46,124.315,98.173,124.315,97.834z M125.113,97.876
			c0,0.291,0.069,0.516,0.206,0.671c0.14,0.155,0.309,0.231,0.515,0.231c0.202,0,0.373-0.076,0.511-0.231s0.206-0.381,0.206-0.677
			c0-0.287-0.068-0.51-0.206-0.664c-0.138-0.156-0.309-0.233-0.511-0.233c-0.206,0-0.375,0.077-0.515,0.233
			C125.183,97.36,125.113,97.584,125.113,97.876z"/>
		<path fill="#333333" d="M130.119,97.302l-0.707-0.127c0.08-0.285,0.217-0.494,0.412-0.631c0.194-0.137,0.48-0.206,0.862-0.206
			c0.348,0,0.606,0.041,0.774,0.124c0.172,0.082,0.292,0.186,0.361,0.312c0.069,0.128,0.103,0.36,0.103,0.698l-0.008,0.908
			c0,0.259,0.014,0.448,0.037,0.571c0.025,0.122,0.071,0.257,0.142,0.396h-0.771c-0.021-0.052-0.046-0.128-0.076-0.229
			c-0.012-0.047-0.021-0.078-0.026-0.093c-0.133,0.13-0.276,0.227-0.426,0.29c-0.152,0.066-0.314,0.098-0.487,0.098
			c-0.302,0-0.541-0.082-0.714-0.246c-0.176-0.164-0.263-0.372-0.263-0.623c0-0.166,0.038-0.314,0.117-0.445
			c0.08-0.131,0.192-0.23,0.335-0.299c0.144-0.07,0.35-0.129,0.619-0.181c0.363-0.069,0.616-0.133,0.758-0.192v-0.078
			c0-0.148-0.039-0.256-0.112-0.319c-0.073-0.064-0.212-0.097-0.418-0.097c-0.139,0-0.247,0.028-0.324,0.082
			C130.229,97.069,130.168,97.167,130.119,97.302z M131.162,97.935c-0.1,0.033-0.259,0.072-0.476,0.119
			c-0.216,0.045-0.357,0.092-0.424,0.136c-0.101,0.071-0.15,0.163-0.15,0.273c0,0.108,0.039,0.204,0.121,0.282
			c0.081,0.08,0.185,0.119,0.309,0.119c0.142,0,0.276-0.045,0.402-0.138c0.095-0.069,0.157-0.155,0.186-0.258
			c0.021-0.066,0.032-0.192,0.032-0.38V97.935z"/>
		<path fill="#333333" d="M134.271,99.348v-4.062h0.777v4.062H134.271z"/>
		<path fill="#333333" d="M136.428,97.302l-0.706-0.127c0.079-0.285,0.216-0.494,0.41-0.631s0.481-0.206,0.865-0.206
			c0.346,0,0.604,0.041,0.773,0.124c0.171,0.082,0.291,0.186,0.359,0.312c0.07,0.128,0.104,0.36,0.104,0.698l-0.009,0.908
			c0,0.259,0.012,0.448,0.037,0.571c0.027,0.122,0.073,0.257,0.141,0.396h-0.771c-0.02-0.052-0.046-0.128-0.074-0.229
			c-0.014-0.047-0.021-0.078-0.027-0.093c-0.133,0.13-0.275,0.227-0.426,0.29c-0.154,0.066-0.314,0.098-0.486,0.098
			c-0.303,0-0.541-0.082-0.717-0.246c-0.174-0.164-0.261-0.372-0.261-0.623c0-0.166,0.039-0.314,0.118-0.445s0.192-0.23,0.334-0.299
			c0.143-0.07,0.351-0.129,0.62-0.181c0.364-0.069,0.615-0.133,0.757-0.192v-0.078c0-0.148-0.037-0.256-0.111-0.319
			c-0.074-0.064-0.215-0.097-0.418-0.097c-0.14,0-0.247,0.028-0.325,0.082C136.539,97.069,136.478,97.167,136.428,97.302z
			 M137.471,97.935c-0.101,0.033-0.259,0.072-0.474,0.119c-0.219,0.045-0.359,0.092-0.425,0.136
			c-0.103,0.071-0.151,0.163-0.151,0.273c0,0.108,0.04,0.204,0.121,0.282c0.082,0.08,0.186,0.119,0.311,0.119
			c0.14,0,0.273-0.045,0.401-0.138c0.095-0.069,0.154-0.155,0.186-0.258c0.02-0.066,0.031-0.192,0.031-0.38V97.935z"/>
		<path fill="#333333" d="M140.559,99.348v-4.062h0.819v4.062H140.559z"/>
		<path fill="#333333" d="M144.833,99.348h-0.78v-1.503c0-0.316-0.018-0.522-0.051-0.615c-0.031-0.094-0.086-0.167-0.16-0.217
			c-0.076-0.053-0.165-0.08-0.271-0.08c-0.135,0-0.256,0.039-0.363,0.111c-0.106,0.074-0.182,0.172-0.221,0.295
			c-0.04,0.122-0.06,0.347-0.06,0.676v1.333h-0.777v-2.942h0.722v0.432c0.256-0.333,0.58-0.499,0.971-0.499
			c0.17,0,0.329,0.03,0.471,0.093c0.142,0.062,0.249,0.141,0.321,0.237c0.073,0.097,0.124,0.204,0.154,0.327
			c0.029,0.121,0.044,0.297,0.044,0.523V99.348z"/>
		<path fill="#333333" d="M145.279,96.405h0.433v-0.223c0-0.247,0.027-0.432,0.079-0.555c0.053-0.121,0.149-0.221,0.291-0.297
			s0.319-0.115,0.537-0.115c0.222,0,0.438,0.033,0.65,0.1l-0.106,0.543c-0.121-0.029-0.242-0.044-0.356-0.044
			c-0.113,0-0.194,0.026-0.242,0.079c-0.049,0.053-0.074,0.154-0.074,0.304v0.208h0.581v0.613h-0.581v2.329h-0.778v-2.329h-0.433
			V96.405z"/>
		<path fill="#333333" d="M147.33,97.834c0-0.259,0.063-0.509,0.19-0.75c0.129-0.241,0.31-0.428,0.542-0.556
			c0.232-0.127,0.496-0.19,0.782-0.19c0.446,0,0.811,0.145,1.096,0.435c0.284,0.288,0.427,0.653,0.427,1.096
			c0,0.445-0.144,0.813-0.43,1.105c-0.289,0.294-0.65,0.439-1.086,0.439c-0.27,0-0.526-0.061-0.771-0.182
			c-0.245-0.122-0.431-0.301-0.56-0.537C147.394,98.46,147.33,98.173,147.33,97.834z M148.129,97.876
			c0,0.291,0.068,0.516,0.207,0.671c0.14,0.155,0.31,0.231,0.514,0.231c0.203,0,0.372-0.076,0.51-0.231
			c0.137-0.155,0.206-0.381,0.206-0.677c0-0.287-0.069-0.51-0.206-0.664c-0.138-0.156-0.307-0.233-0.51-0.233
			c-0.204,0-0.374,0.077-0.514,0.233C148.197,97.36,148.129,97.584,148.129,97.876z"/>
		<path fill="#333333" d="M151.721,99.348h-0.778v-2.942h0.725v0.418c0.123-0.197,0.236-0.328,0.333-0.391
			c0.099-0.063,0.211-0.095,0.336-0.095c0.179,0,0.349,0.048,0.513,0.147l-0.239,0.678c-0.132-0.084-0.255-0.127-0.366-0.127
			c-0.11,0-0.202,0.03-0.278,0.09c-0.075,0.06-0.134,0.17-0.178,0.327c-0.045,0.157-0.066,0.484-0.066,0.985V99.348z"/>
		<path fill="#333333" d="M153.127,96.405h0.719v0.4c0.255-0.311,0.562-0.468,0.915-0.468c0.189,0,0.353,0.039,0.49,0.116
			c0.14,0.078,0.253,0.195,0.34,0.352c0.132-0.156,0.271-0.273,0.419-0.352c0.149-0.077,0.31-0.116,0.479-0.116
			c0.217,0,0.4,0.044,0.549,0.132c0.15,0.088,0.264,0.217,0.336,0.387c0.052,0.125,0.08,0.328,0.08,0.609v1.882h-0.778v-1.682
			c0-0.292-0.027-0.481-0.08-0.565c-0.072-0.111-0.183-0.168-0.335-0.168c-0.107,0-0.209,0.035-0.306,0.102
			s-0.165,0.164-0.209,0.291c-0.04,0.129-0.063,0.332-0.063,0.609v1.413h-0.778v-1.612c0-0.287-0.015-0.473-0.041-0.555
			c-0.028-0.084-0.072-0.146-0.13-0.186c-0.058-0.041-0.137-0.063-0.235-0.063c-0.12,0-0.228,0.034-0.325,0.099
			c-0.096,0.064-0.165,0.158-0.207,0.278c-0.04,0.123-0.061,0.325-0.061,0.607v1.431h-0.779V96.405z"/>
		<path fill="#333333" d="M158.812,97.302l-0.707-0.127c0.08-0.285,0.217-0.494,0.411-0.631c0.193-0.137,0.482-0.206,0.864-0.206
			c0.348,0,0.606,0.041,0.775,0.124c0.172,0.082,0.291,0.186,0.36,0.312c0.069,0.128,0.104,0.36,0.104,0.698l-0.01,0.908
			c0,0.259,0.013,0.448,0.038,0.571c0.025,0.122,0.071,0.257,0.141,0.396h-0.771c-0.021-0.052-0.045-0.128-0.076-0.229
			c-0.013-0.047-0.02-0.078-0.026-0.093c-0.134,0.13-0.278,0.227-0.427,0.29c-0.151,0.066-0.313,0.098-0.486,0.098
			c-0.301,0-0.541-0.082-0.715-0.246c-0.175-0.164-0.262-0.372-0.262-0.623c0-0.166,0.039-0.314,0.118-0.445
			c0.08-0.131,0.191-0.23,0.335-0.299c0.143-0.07,0.348-0.129,0.618-0.181c0.364-0.069,0.616-0.133,0.758-0.192v-0.078
			c0-0.148-0.038-0.256-0.111-0.319c-0.074-0.064-0.213-0.097-0.419-0.097c-0.139,0-0.247,0.028-0.323,0.082
			C158.923,97.069,158.858,97.167,158.812,97.302z M159.854,97.935c-0.103,0.033-0.258,0.072-0.475,0.119
			c-0.216,0.045-0.358,0.092-0.425,0.136c-0.101,0.071-0.15,0.163-0.15,0.273c0,0.108,0.039,0.204,0.121,0.282
			c0.081,0.08,0.185,0.119,0.31,0.119c0.141,0,0.274-0.045,0.401-0.138c0.094-0.069,0.157-0.155,0.187-0.258
			c0.021-0.066,0.031-0.192,0.031-0.38V97.935z"/>
		<path fill="#333333" d="M163.951,97.274l-0.768,0.139c-0.025-0.152-0.084-0.269-0.177-0.346c-0.091-0.078-0.209-0.117-0.354-0.117
			c-0.194,0-0.35,0.068-0.465,0.201c-0.115,0.135-0.174,0.357-0.174,0.672c0,0.35,0.059,0.596,0.175,0.74
			c0.118,0.145,0.278,0.215,0.475,0.215c0.147,0,0.268-0.041,0.362-0.125c0.095-0.085,0.161-0.229,0.2-0.434l0.765,0.13
			c-0.078,0.351-0.229,0.616-0.458,0.796c-0.225,0.179-0.526,0.268-0.906,0.268c-0.43,0-0.772-0.135-1.028-0.406
			c-0.255-0.271-0.384-0.648-0.384-1.128c0-0.485,0.129-0.864,0.385-1.136c0.257-0.271,0.604-0.405,1.044-0.405
			c0.356,0,0.643,0.077,0.853,0.231C163.706,96.724,163.859,96.959,163.951,97.274z"/>
		<path fill="#333333" d="M164.542,96.007v-0.721h0.776v0.721H164.542z M164.542,99.348v-2.942h0.776v2.942H164.542z"/>
		<path fill="#333333" d="M165.938,97.834c0-0.259,0.063-0.509,0.191-0.75c0.127-0.241,0.307-0.428,0.539-0.556
			c0.235-0.127,0.495-0.19,0.784-0.19c0.446,0,0.811,0.145,1.095,0.435c0.285,0.288,0.426,0.653,0.426,1.096
			c0,0.445-0.143,0.813-0.431,1.105c-0.285,0.294-0.647,0.439-1.083,0.439c-0.271,0-0.528-0.061-0.773-0.182
			c-0.244-0.122-0.43-0.301-0.557-0.537C166.001,98.46,165.938,98.173,165.938,97.834z M166.736,97.876
			c0,0.291,0.068,0.516,0.208,0.671c0.137,0.155,0.309,0.231,0.513,0.231c0.201,0,0.373-0.076,0.51-0.231
			c0.138-0.155,0.207-0.381,0.207-0.677c0-0.287-0.069-0.51-0.207-0.664c-0.137-0.156-0.309-0.233-0.51-0.233
			c-0.204,0-0.376,0.077-0.513,0.233C166.805,97.36,166.736,97.584,166.736,97.876z M167.063,96.045l0.381-0.829h0.873l-0.761,0.829
			H167.063z"/>
		<path fill="#333333" d="M172.258,99.348h-0.776v-1.503c0-0.316-0.016-0.522-0.05-0.615c-0.034-0.094-0.089-0.167-0.164-0.217
			c-0.071-0.053-0.162-0.08-0.269-0.08c-0.135,0-0.256,0.039-0.362,0.111c-0.106,0.074-0.181,0.172-0.219,0.295
			c-0.042,0.122-0.061,0.347-0.061,0.676v1.333h-0.779v-2.942h0.724v0.432c0.258-0.333,0.579-0.499,0.969-0.499
			c0.174,0,0.33,0.03,0.472,0.093c0.143,0.062,0.251,0.141,0.322,0.237c0.073,0.097,0.124,0.204,0.153,0.327
			c0.028,0.121,0.04,0.297,0.04,0.523V99.348z"/>
		<path fill="#333333" d="M174.632,99.348v-4.062h1.315c0.499,0,0.825,0.02,0.977,0.061c0.233,0.061,0.428,0.191,0.584,0.396
			c0.157,0.205,0.234,0.469,0.234,0.791c0,0.25-0.045,0.461-0.135,0.629c-0.091,0.171-0.206,0.304-0.344,0.401
			c-0.14,0.097-0.282,0.161-0.424,0.191c-0.197,0.04-0.482,0.059-0.854,0.059h-0.534v1.533H174.632z M175.452,95.973v1.153h0.45
			c0.32,0,0.537-0.022,0.647-0.064c0.108-0.043,0.194-0.109,0.256-0.199s0.093-0.196,0.093-0.316c0-0.146-0.043-0.27-0.13-0.365
			s-0.197-0.156-0.331-0.181c-0.097-0.018-0.295-0.027-0.59-0.027H175.452z"/>
		<path fill="#333333" d="M180.35,99.348v-0.441c-0.107,0.157-0.25,0.28-0.425,0.372c-0.175,0.09-0.358,0.135-0.552,0.135
			c-0.199,0-0.375-0.043-0.531-0.13s-0.271-0.21-0.342-0.366c-0.07-0.156-0.105-0.373-0.105-0.65v-1.861h0.778v1.351
			c0,0.415,0.014,0.667,0.043,0.762c0.029,0.093,0.082,0.167,0.157,0.221c0.074,0.054,0.173,0.083,0.287,0.083
			c0.135,0,0.252-0.037,0.359-0.111c0.104-0.072,0.176-0.162,0.215-0.271c0.038-0.108,0.059-0.372,0.059-0.794v-1.24h0.778v2.942
			H180.35z M179.339,96.045l0.384-0.829h0.873l-0.763,0.829H179.339z"/>
		<path fill="#333333" d="M181.844,99.348v-4.062h0.779v1.462c0.24-0.273,0.523-0.41,0.854-0.41c0.358,0,0.653,0.13,0.889,0.39
			c0.234,0.259,0.352,0.632,0.352,1.117c0,0.504-0.12,0.891-0.359,1.162c-0.238,0.271-0.528,0.406-0.871,0.406
			c-0.167,0-0.334-0.043-0.497-0.126c-0.163-0.084-0.305-0.208-0.423-0.372v0.433H181.844z M182.617,97.813
			c0,0.305,0.048,0.529,0.143,0.676c0.135,0.205,0.315,0.309,0.54,0.309c0.171,0,0.317-0.072,0.438-0.22
			c0.121-0.147,0.181-0.378,0.181-0.693c0-0.337-0.06-0.58-0.182-0.728c-0.123-0.148-0.278-0.225-0.468-0.225
			c-0.188,0-0.342,0.072-0.466,0.219C182.679,97.296,182.617,97.517,182.617,97.813z"/>
		<path fill="#333333" d="M185.343,99.348v-4.062h0.779v4.062H185.343z"/>
		<path fill="#333333" d="M186.922,96.007v-0.721h0.777v0.721H186.922z M186.922,99.348v-2.942h0.777v2.942H186.922z"/>
		<path fill="#333333" d="M191.063,97.274l-0.768,0.139c-0.026-0.152-0.086-0.269-0.177-0.346c-0.09-0.078-0.211-0.117-0.355-0.117
			c-0.194,0-0.35,0.068-0.465,0.201c-0.115,0.135-0.173,0.357-0.173,0.672c0,0.35,0.059,0.596,0.178,0.74
			c0.116,0.145,0.273,0.215,0.471,0.215c0.148,0,0.269-0.041,0.363-0.125c0.093-0.085,0.161-0.229,0.199-0.434l0.765,0.13
			c-0.079,0.351-0.232,0.616-0.458,0.796c-0.224,0.179-0.527,0.268-0.906,0.268c-0.43,0-0.771-0.135-1.029-0.406
			c-0.254-0.271-0.383-0.648-0.383-1.128c0-0.485,0.13-0.864,0.385-1.136c0.259-0.271,0.604-0.405,1.041-0.405
			c0.359,0,0.645,0.077,0.856,0.231S190.969,96.959,191.063,97.274z"/>
		<path fill="#333333" d="M192.233,97.302l-0.706-0.127c0.079-0.285,0.216-0.494,0.41-0.631c0.195-0.137,0.481-0.206,0.863-0.206
			c0.349,0,0.607,0.041,0.777,0.124c0.171,0.082,0.289,0.186,0.358,0.312c0.069,0.128,0.104,0.36,0.104,0.698l-0.009,0.908
			c0,0.259,0.013,0.448,0.036,0.571c0.026,0.122,0.072,0.257,0.141,0.396h-0.77c-0.021-0.052-0.046-0.128-0.075-0.229
			c-0.013-0.047-0.023-0.078-0.028-0.093c-0.132,0.13-0.275,0.227-0.426,0.29c-0.151,0.066-0.313,0.098-0.485,0.098
			c-0.303,0-0.542-0.082-0.715-0.246c-0.174-0.164-0.265-0.372-0.265-0.623c0-0.166,0.042-0.314,0.12-0.445
			c0.079-0.131,0.192-0.23,0.335-0.299c0.143-0.07,0.35-0.129,0.617-0.181c0.364-0.069,0.618-0.133,0.758-0.192v-0.078
			c0-0.148-0.036-0.256-0.112-0.319c-0.072-0.064-0.211-0.097-0.417-0.097c-0.138,0-0.246,0.028-0.325,0.082
			C192.346,97.069,192.281,97.167,192.233,97.302z M193.275,97.935c-0.1,0.033-0.256,0.072-0.475,0.119
			c-0.216,0.045-0.356,0.092-0.423,0.136c-0.101,0.071-0.153,0.163-0.153,0.273c0,0.108,0.042,0.204,0.124,0.282
			c0.081,0.08,0.183,0.119,0.31,0.119c0.139,0,0.274-0.045,0.4-0.138c0.096-0.069,0.158-0.155,0.187-0.258
			c0.021-0.066,0.03-0.192,0.03-0.38V97.935z"/>
		<path fill="#333333" d="M196.017,96.405h0.827l0.705,2.09l0.686-2.09h0.806l-1.037,2.83l-0.187,0.514
			c-0.068,0.172-0.134,0.303-0.194,0.393c-0.063,0.092-0.134,0.164-0.214,0.221s-0.18,0.101-0.297,0.131
			c-0.117,0.033-0.249,0.049-0.397,0.049c-0.15,0-0.296-0.016-0.44-0.049l-0.067-0.609c0.12,0.025,0.229,0.037,0.328,0.037
			c0.181,0,0.313-0.054,0.401-0.16c0.088-0.105,0.153-0.242,0.198-0.406L196.017,96.405z"/>
		<path fill="#333333" d="M25.906,106.913v-4.062h1.314c0.5,0,0.826,0.021,0.978,0.061c0.231,0.062,0.428,0.192,0.583,0.397
			c0.156,0.203,0.237,0.469,0.237,0.791c0,0.25-0.048,0.459-0.136,0.629c-0.091,0.17-0.207,0.303-0.346,0.4
			c-0.141,0.096-0.281,0.161-0.426,0.193c-0.196,0.037-0.479,0.058-0.852,0.058h-0.533v1.532H25.906z M26.727,103.538v1.152h0.449
			c0.323,0,0.537-0.021,0.647-0.063c0.109-0.043,0.193-0.109,0.257-0.2c0.063-0.09,0.092-0.195,0.092-0.314
			c0-0.148-0.042-0.27-0.129-0.367c-0.087-0.096-0.196-0.155-0.331-0.18c-0.097-0.018-0.294-0.027-0.589-0.027H26.727z"/>
		<path fill="#333333" d="M30.431,106.913h-0.778v-2.942h0.723v0.419c0.124-0.199,0.234-0.329,0.334-0.393
			c0.1-0.063,0.21-0.094,0.337-0.094c0.178,0,0.348,0.049,0.512,0.146l-0.24,0.68c-0.132-0.085-0.254-0.128-0.365-0.128
			c-0.109,0-0.2,0.03-0.276,0.091c-0.076,0.059-0.137,0.168-0.18,0.325s-0.065,0.485-0.065,0.986V106.913z"/>
		<path fill="#333333" d="M31.712,105.399c0-0.258,0.065-0.509,0.193-0.75c0.127-0.242,0.308-0.427,0.542-0.555
			c0.232-0.127,0.494-0.191,0.781-0.191c0.446,0,0.811,0.145,1.095,0.434s0.426,0.655,0.426,1.096c0,0.447-0.143,0.814-0.43,1.107
			s-0.648,0.439-1.084,0.439c-0.271,0-0.528-0.062-0.773-0.184c-0.243-0.121-0.43-0.301-0.557-0.535
			C31.777,106.024,31.712,105.737,31.712,105.399z M32.511,105.441c0,0.292,0.069,0.516,0.21,0.671
			c0.138,0.155,0.308,0.232,0.512,0.232c0.202,0,0.373-0.077,0.512-0.232c0.137-0.155,0.204-0.381,0.204-0.676
			c0-0.289-0.067-0.511-0.204-0.665c-0.139-0.155-0.31-0.233-0.512-0.233c-0.204,0-0.374,0.078-0.512,0.233
			C32.58,104.926,32.511,105.149,32.511,105.441z"/>
		<path fill="#333333" d="M36.709,103.971v0.62h-0.531v1.186c0,0.24,0.004,0.379,0.014,0.419c0.012,0.04,0.034,0.073,0.071,0.101
			c0.035,0.025,0.078,0.038,0.131,0.038c0.071,0,0.176-0.025,0.312-0.075l0.068,0.604c-0.182,0.078-0.387,0.117-0.617,0.117
			c-0.14,0-0.267-0.024-0.378-0.072c-0.114-0.047-0.196-0.107-0.249-0.182c-0.053-0.075-0.088-0.176-0.108-0.305
			c-0.017-0.089-0.025-0.271-0.025-0.547v-1.283h-0.356v-0.62h0.356v-0.585l0.782-0.454v1.039H36.709z"/>
		<path fill="#333333" d="M38.953,105.976l0.777,0.131c-0.103,0.285-0.259,0.501-0.474,0.649c-0.217,0.148-0.485,0.224-0.809,0.224
			c-0.513,0-0.891-0.167-1.136-0.502c-0.192-0.268-0.288-0.605-0.288-1.014c0-0.487,0.124-0.871,0.38-1.146
			c0.256-0.276,0.577-0.414,0.966-0.414c0.439,0,0.784,0.145,1.038,0.434c0.253,0.289,0.373,0.732,0.362,1.33h-1.951
			c0.006,0.23,0.069,0.408,0.188,0.537c0.121,0.128,0.27,0.193,0.45,0.193c0.122,0,0.224-0.033,0.306-0.101
			C38.848,106.231,38.911,106.124,38.953,105.976z M38.997,105.19c-0.006-0.227-0.063-0.398-0.174-0.516
			c-0.112-0.117-0.246-0.174-0.405-0.174c-0.17,0-0.311,0.061-0.42,0.185c-0.111,0.124-0.167,0.292-0.163,0.505H38.997z"/>
		<path fill="#333333" d="M42.972,104.841l-0.77,0.138c-0.024-0.152-0.083-0.269-0.175-0.346s-0.21-0.116-0.356-0.116
			c-0.194,0-0.349,0.065-0.465,0.199c-0.113,0.135-0.172,0.358-0.172,0.673c0,0.349,0.059,0.596,0.176,0.74
			c0.117,0.144,0.275,0.216,0.473,0.216c0.147,0,0.269-0.042,0.363-0.127c0.093-0.084,0.159-0.228,0.2-0.434l0.763,0.131
			c-0.079,0.352-0.232,0.616-0.457,0.796c-0.224,0.179-0.527,0.269-0.906,0.269c-0.431,0-0.771-0.136-1.028-0.408
			c-0.257-0.271-0.383-0.646-0.383-1.127c0-0.485,0.126-0.864,0.383-1.135c0.258-0.271,0.605-0.406,1.043-0.406
			c0.357,0,0.644,0.077,0.854,0.232C42.726,104.288,42.878,104.524,42.972,104.841z"/>
		<path fill="#333333" d="M46.125,104.841l-0.766,0.138c-0.027-0.152-0.086-0.269-0.177-0.346c-0.09-0.077-0.209-0.116-0.356-0.116
			c-0.192,0-0.349,0.065-0.463,0.199c-0.117,0.135-0.172,0.358-0.172,0.673c0,0.349,0.057,0.596,0.174,0.74
			c0.118,0.144,0.274,0.216,0.473,0.216c0.148,0,0.271-0.042,0.364-0.127c0.094-0.084,0.16-0.228,0.198-0.434l0.765,0.131
			c-0.079,0.352-0.231,0.616-0.457,0.796c-0.226,0.179-0.526,0.269-0.905,0.269c-0.432,0-0.774-0.136-1.031-0.408
			c-0.254-0.271-0.382-0.646-0.382-1.127c0-0.485,0.128-0.864,0.386-1.135c0.255-0.271,0.603-0.406,1.04-0.406
			c0.359,0,0.645,0.077,0.855,0.232C45.882,104.288,46.034,104.524,46.125,104.841z"/>
		<path fill="#333333" d="M46.717,103.571v-0.72h0.777v0.72H46.717z M46.717,106.913v-2.942h0.777v2.942H46.717z"/>
		<path fill="#333333" d="M48.112,105.399c0-0.258,0.064-0.509,0.192-0.75c0.126-0.242,0.309-0.427,0.541-0.555
			c0.234-0.127,0.494-0.191,0.783-0.191c0.444,0,0.809,0.145,1.094,0.434c0.284,0.289,0.428,0.655,0.428,1.096
			c0,0.447-0.145,0.814-0.432,1.107c-0.288,0.293-0.648,0.439-1.085,0.439c-0.27,0-0.526-0.062-0.771-0.184
			c-0.246-0.121-0.432-0.301-0.558-0.535C48.177,106.024,48.112,105.737,48.112,105.399z M48.91,105.441
			c0,0.292,0.07,0.516,0.208,0.671c0.139,0.155,0.31,0.232,0.512,0.232c0.205,0,0.375-0.077,0.513-0.232
			c0.139-0.155,0.206-0.381,0.206-0.676c0-0.289-0.067-0.511-0.206-0.665c-0.138-0.155-0.308-0.233-0.513-0.233
			c-0.202,0-0.373,0.078-0.512,0.233C48.98,104.926,48.91,105.149,48.91,105.441z M49.237,103.61l0.382-0.828h0.874l-0.762,0.828
			H49.237z"/>
		<path fill="#333333" d="M54.436,106.913h-0.779v-1.502c0-0.318-0.017-0.523-0.049-0.617c-0.033-0.093-0.087-0.164-0.161-0.217
			c-0.076-0.052-0.166-0.076-0.271-0.076c-0.135,0-0.255,0.035-0.362,0.109c-0.107,0.075-0.183,0.172-0.221,0.294
			c-0.04,0.122-0.061,0.348-0.061,0.675v1.334h-0.778v-2.942h0.724v0.432c0.257-0.333,0.581-0.499,0.971-0.499
			c0.17,0,0.328,0.03,0.471,0.093c0.142,0.062,0.249,0.141,0.322,0.239c0.072,0.095,0.123,0.203,0.152,0.326
			c0.029,0.121,0.043,0.295,0.043,0.522V106.913z"/>
		<path fill="#333333" d="M59.501,106.913h-0.723v-0.434c-0.122,0.169-0.264,0.294-0.425,0.377c-0.164,0.082-0.33,0.123-0.494,0.123
			c-0.339,0-0.631-0.137-0.87-0.408c-0.242-0.274-0.362-0.653-0.362-1.141c0-0.499,0.117-0.878,0.352-1.137
			c0.235-0.262,0.53-0.391,0.89-0.391c0.327,0,0.612,0.137,0.854,0.41v-1.462h0.779V106.913z M57.423,105.378
			c0,0.314,0.045,0.541,0.131,0.681c0.124,0.204,0.299,0.306,0.524,0.306c0.18,0,0.332-0.076,0.457-0.229
			c0.127-0.153,0.189-0.381,0.189-0.682c0-0.34-0.062-0.583-0.183-0.732c-0.121-0.148-0.278-0.221-0.468-0.221
			c-0.187,0-0.34,0.072-0.466,0.219C57.485,104.866,57.423,105.085,57.423,105.378z"/>
		<path fill="#333333" d="M61.971,105.976l0.775,0.131c-0.099,0.285-0.256,0.501-0.472,0.649c-0.214,0.148-0.484,0.224-0.809,0.224
			c-0.511,0-0.888-0.167-1.134-0.502c-0.193-0.268-0.292-0.605-0.292-1.014c0-0.487,0.128-0.871,0.383-1.146
			c0.255-0.276,0.576-0.414,0.968-0.414c0.437,0,0.783,0.145,1.035,0.434s0.373,0.732,0.363,1.33h-1.951
			c0.005,0.23,0.067,0.408,0.188,0.537c0.121,0.128,0.27,0.193,0.448,0.193c0.123,0,0.225-0.033,0.309-0.101
			C61.866,106.231,61.93,106.124,61.971,105.976z M62.017,105.19c-0.006-0.227-0.064-0.398-0.177-0.516
			c-0.108-0.117-0.246-0.174-0.402-0.174c-0.172,0-0.31,0.061-0.422,0.185c-0.111,0.124-0.167,0.292-0.164,0.505H62.017z"/>
		<path fill="#333333" d="M65.002,102.852H66.5c0.34,0,0.597,0.024,0.773,0.077c0.238,0.07,0.444,0.195,0.613,0.374
			c0.17,0.179,0.299,0.398,0.389,0.657c0.088,0.26,0.132,0.58,0.132,0.961c0,0.334-0.041,0.623-0.124,0.863
			c-0.103,0.297-0.248,0.536-0.435,0.719c-0.144,0.139-0.335,0.246-0.577,0.324c-0.18,0.057-0.423,0.086-0.726,0.086h-1.544V102.852
			z M65.823,103.538v2.689h0.611c0.229,0,0.395-0.012,0.496-0.037c0.132-0.035,0.244-0.091,0.331-0.17
			c0.087-0.078,0.159-0.211,0.214-0.393c0.057-0.182,0.083-0.429,0.083-0.743c0-0.313-0.026-0.555-0.083-0.724
			c-0.055-0.167-0.132-0.299-0.231-0.394c-0.101-0.093-0.228-0.157-0.38-0.19c-0.114-0.025-0.337-0.039-0.673-0.039H65.823z"/>
		<path fill="#333333" d="M69.681,104.868l-0.707-0.127c0.078-0.285,0.215-0.496,0.408-0.632c0.195-0.138,0.482-0.206,0.866-0.206
			c0.346,0,0.604,0.041,0.775,0.123c0.17,0.083,0.288,0.188,0.357,0.314c0.071,0.125,0.105,0.357,0.105,0.695l-0.008,0.91
			c0,0.258,0.011,0.447,0.036,0.571c0.026,0.123,0.072,0.255,0.141,0.396h-0.771c-0.021-0.053-0.047-0.129-0.073-0.23
			c-0.014-0.046-0.023-0.076-0.03-0.092c-0.131,0.131-0.274,0.228-0.426,0.292c-0.151,0.063-0.313,0.097-0.484,0.097
			c-0.304,0-0.543-0.082-0.718-0.247c-0.173-0.164-0.261-0.372-0.261-0.624c0-0.166,0.039-0.314,0.117-0.444
			c0.082-0.13,0.193-0.23,0.335-0.299c0.144-0.069,0.35-0.13,0.62-0.181c0.364-0.069,0.615-0.133,0.756-0.191v-0.078
			c0-0.15-0.037-0.257-0.111-0.32c-0.073-0.064-0.212-0.094-0.416-0.094c-0.141,0-0.248,0.025-0.323,0.079
			C69.789,104.636,69.728,104.731,69.681,104.868z M70.721,105.499c-0.1,0.033-0.257,0.072-0.473,0.119
			c-0.215,0.048-0.356,0.094-0.425,0.137c-0.102,0.072-0.151,0.163-0.151,0.274c0,0.108,0.039,0.202,0.121,0.282
			s0.185,0.119,0.311,0.119c0.139,0,0.273-0.046,0.402-0.139c0.095-0.07,0.155-0.156,0.186-0.258
			c0.02-0.066,0.029-0.192,0.029-0.379V105.499z"/>
		<path fill="#333333" d="M73.603,103.971v0.62H73.07v1.186c0,0.24,0.006,0.379,0.015,0.419c0.012,0.04,0.034,0.073,0.07,0.101
			c0.036,0.025,0.08,0.038,0.132,0.038c0.071,0,0.176-0.025,0.313-0.075l0.065,0.604c-0.18,0.078-0.384,0.117-0.614,0.117
			c-0.141,0-0.265-0.024-0.378-0.072c-0.114-0.047-0.197-0.107-0.248-0.182c-0.054-0.075-0.091-0.176-0.111-0.305
			c-0.016-0.089-0.024-0.271-0.024-0.547v-1.283h-0.356v-0.62h0.356v-0.585l0.781-0.454v1.039H73.603z"/>
		<path fill="#333333" d="M73.964,105.399c0-0.258,0.063-0.509,0.19-0.75c0.127-0.242,0.307-0.427,0.542-0.555
			c0.233-0.127,0.494-0.191,0.783-0.191c0.443,0,0.808,0.145,1.093,0.434s0.427,0.655,0.427,1.096c0,0.447-0.146,0.814-0.432,1.107
			c-0.285,0.293-0.647,0.439-1.084,0.439c-0.269,0-0.528-0.062-0.771-0.184c-0.244-0.121-0.432-0.301-0.559-0.535
			C74.026,106.024,73.964,105.737,73.964,105.399z M74.762,105.441c0,0.292,0.068,0.516,0.207,0.671s0.308,0.232,0.512,0.232
			s0.376-0.077,0.512-0.232c0.137-0.155,0.207-0.381,0.207-0.676c0-0.289-0.07-0.511-0.207-0.665
			c-0.136-0.155-0.308-0.233-0.512-0.233s-0.373,0.078-0.512,0.233C74.83,104.926,74.762,105.149,74.762,105.441z"/>
		<path fill="#333333" d="M77.334,106.073l0.782-0.119c0.033,0.152,0.099,0.266,0.202,0.345c0.103,0.079,0.244,0.119,0.426,0.119
			c0.201,0,0.354-0.038,0.456-0.112c0.068-0.052,0.102-0.121,0.102-0.207c0-0.059-0.019-0.108-0.056-0.147
			c-0.039-0.036-0.126-0.071-0.26-0.103c-0.629-0.137-1.025-0.265-1.195-0.379c-0.232-0.16-0.348-0.38-0.348-0.663
			c0-0.254,0.099-0.469,0.302-0.643c0.201-0.173,0.514-0.261,0.936-0.261c0.403,0,0.702,0.066,0.898,0.197
			c0.195,0.131,0.33,0.324,0.403,0.582l-0.733,0.136c-0.031-0.114-0.092-0.202-0.179-0.263c-0.088-0.062-0.213-0.092-0.377-0.092
			c-0.202,0-0.351,0.027-0.438,0.086c-0.06,0.04-0.09,0.093-0.09,0.157c0,0.056,0.026,0.103,0.078,0.142
			c0.07,0.052,0.312,0.124,0.727,0.219c0.414,0.095,0.704,0.21,0.869,0.346c0.161,0.141,0.243,0.332,0.243,0.58
			c0,0.27-0.113,0.502-0.338,0.695c-0.226,0.194-0.559,0.291-1.001,0.291c-0.4,0-0.717-0.082-0.952-0.244
			C77.559,106.573,77.406,106.353,77.334,106.073z"/>
		<path fill="#333333" d="M82.347,106.913v-4.062h1.316c0.498,0,0.822,0.021,0.975,0.061c0.233,0.062,0.429,0.192,0.587,0.397
			c0.154,0.203,0.233,0.469,0.233,0.791c0,0.25-0.045,0.459-0.136,0.629s-0.206,0.303-0.345,0.4
			c-0.141,0.096-0.283,0.161-0.425,0.193c-0.197,0.037-0.479,0.058-0.853,0.058h-0.533v1.532H82.347z M83.167,103.538v1.152h0.448
			c0.324,0,0.54-0.021,0.648-0.063c0.109-0.043,0.195-0.109,0.256-0.2c0.063-0.09,0.095-0.195,0.095-0.314
			c0-0.148-0.045-0.27-0.132-0.367c-0.086-0.096-0.196-0.155-0.328-0.18c-0.099-0.018-0.296-0.027-0.591-0.027H83.167z"/>
		<path fill="#333333" d="M87.829,105.976l0.775,0.131c-0.099,0.285-0.255,0.501-0.472,0.649c-0.216,0.148-0.484,0.224-0.807,0.224
			c-0.513,0-0.891-0.167-1.137-0.502c-0.195-0.268-0.293-0.605-0.293-1.014c0-0.487,0.129-0.871,0.385-1.146
			c0.254-0.276,0.577-0.414,0.966-0.414c0.438,0,0.784,0.145,1.036,0.434c0.255,0.289,0.375,0.732,0.364,1.33h-1.951
			c0.007,0.23,0.068,0.408,0.188,0.537c0.12,0.128,0.269,0.193,0.449,0.193c0.122,0,0.223-0.033,0.307-0.101
			C87.725,106.231,87.789,106.124,87.829,105.976z M87.874,105.19c-0.005-0.227-0.064-0.398-0.174-0.516
			c-0.111-0.117-0.245-0.174-0.405-0.174c-0.171,0-0.31,0.061-0.421,0.185c-0.109,0.124-0.165,0.292-0.163,0.505H87.874z"/>
		<path fill="#333333" d="M90.026,106.913h-0.778v-2.942h0.723v0.419c0.125-0.199,0.235-0.329,0.335-0.393
			c0.099-0.063,0.211-0.094,0.335-0.094c0.178,0,0.35,0.049,0.514,0.146l-0.24,0.68c-0.132-0.085-0.254-0.128-0.365-0.128
			c-0.109,0-0.203,0.03-0.277,0.091c-0.076,0.059-0.136,0.168-0.18,0.325s-0.065,0.485-0.065,0.986V106.913z"/>
		<path fill="#333333" d="M91.215,106.073l0.783-0.119c0.033,0.152,0.101,0.266,0.201,0.345c0.103,0.079,0.245,0.119,0.426,0.119
			c0.202,0,0.353-0.038,0.455-0.112c0.069-0.052,0.102-0.121,0.102-0.207c0-0.059-0.018-0.108-0.055-0.147
			c-0.039-0.036-0.125-0.071-0.259-0.103c-0.63-0.137-1.026-0.265-1.196-0.379c-0.232-0.16-0.349-0.38-0.349-0.663
			c0-0.254,0.101-0.469,0.303-0.643c0.199-0.173,0.514-0.261,0.937-0.261c0.401,0,0.7,0.066,0.896,0.197
			c0.195,0.131,0.33,0.324,0.404,0.582l-0.733,0.136c-0.032-0.114-0.091-0.202-0.179-0.263c-0.088-0.062-0.213-0.092-0.375-0.092
			c-0.206,0-0.352,0.027-0.441,0.086c-0.059,0.04-0.088,0.093-0.088,0.157c0,0.056,0.025,0.103,0.079,0.142
			c0.068,0.052,0.311,0.124,0.727,0.219c0.413,0.095,0.703,0.21,0.867,0.346c0.162,0.141,0.245,0.332,0.245,0.58
			c0,0.27-0.113,0.502-0.338,0.695c-0.227,0.194-0.561,0.291-1.002,0.291c-0.399,0-0.717-0.082-0.952-0.244
			C91.439,106.573,91.287,106.353,91.215,106.073z"/>
		<path fill="#333333" d="M94.467,105.399c0-0.258,0.063-0.509,0.19-0.75c0.128-0.242,0.308-0.427,0.541-0.555
			c0.233-0.127,0.494-0.191,0.783-0.191c0.446,0,0.81,0.145,1.094,0.434c0.285,0.289,0.428,0.655,0.428,1.096
			c0,0.447-0.146,0.814-0.431,1.107c-0.289,0.293-0.65,0.439-1.085,0.439c-0.269,0-0.527-0.062-0.772-0.184
			c-0.246-0.121-0.43-0.301-0.558-0.535C94.529,106.024,94.467,105.737,94.467,105.399z M95.264,105.441
			c0,0.292,0.068,0.516,0.209,0.671c0.138,0.155,0.308,0.232,0.512,0.232c0.202,0,0.372-0.077,0.512-0.232
			c0.136-0.155,0.205-0.381,0.205-0.676c0-0.289-0.069-0.511-0.205-0.665c-0.14-0.155-0.31-0.233-0.512-0.233
			c-0.204,0-0.374,0.078-0.512,0.233C95.332,104.926,95.264,105.149,95.264,105.441z"/>
		<path fill="#333333" d="M100.787,106.913h-0.777v-1.502c0-0.318-0.018-0.523-0.05-0.617c-0.033-0.093-0.088-0.164-0.163-0.217
			c-0.074-0.052-0.164-0.076-0.27-0.076c-0.135,0-0.256,0.035-0.363,0.109c-0.106,0.075-0.18,0.172-0.221,0.294
			c-0.038,0.122-0.058,0.348-0.058,0.675v1.334h-0.778v-2.942h0.722v0.432c0.257-0.333,0.581-0.499,0.971-0.499
			c0.171,0,0.328,0.03,0.469,0.093c0.143,0.062,0.25,0.141,0.322,0.239c0.074,0.095,0.126,0.203,0.154,0.326
			c0.028,0.121,0.042,0.295,0.042,0.522V106.913z"/>
		<path fill="#333333" d="M102.162,104.868l-0.708-0.127c0.076-0.285,0.216-0.496,0.407-0.632c0.196-0.138,0.483-0.206,0.866-0.206
			c0.346,0,0.605,0.041,0.775,0.123c0.17,0.083,0.289,0.188,0.359,0.314c0.069,0.125,0.104,0.357,0.104,0.695l-0.008,0.91
			c0,0.258,0.011,0.447,0.036,0.571c0.027,0.123,0.072,0.255,0.14,0.396h-0.768c-0.021-0.053-0.048-0.129-0.075-0.23
			c-0.014-0.046-0.022-0.076-0.028-0.092c-0.135,0.131-0.275,0.228-0.427,0.292c-0.153,0.063-0.313,0.097-0.485,0.097
			c-0.302,0-0.542-0.082-0.716-0.247c-0.175-0.164-0.262-0.372-0.262-0.624c0-0.166,0.039-0.314,0.118-0.444
			c0.081-0.13,0.191-0.23,0.335-0.299c0.142-0.069,0.35-0.13,0.619-0.181c0.363-0.069,0.616-0.133,0.756-0.191v-0.078
			c0-0.15-0.036-0.257-0.111-0.32c-0.074-0.064-0.212-0.094-0.417-0.094c-0.14,0-0.247,0.025-0.324,0.079
			C102.269,104.636,102.209,104.731,102.162,104.868z M103.201,105.499c-0.099,0.033-0.258,0.072-0.474,0.119
			c-0.216,0.048-0.358,0.094-0.425,0.137c-0.102,0.072-0.152,0.163-0.152,0.274c0,0.108,0.04,0.202,0.122,0.282
			s0.187,0.119,0.312,0.119c0.141,0,0.273-0.046,0.402-0.139c0.094-0.07,0.154-0.156,0.186-0.258
			c0.018-0.066,0.029-0.192,0.029-0.379V105.499z"/>
		<path fill="#333333" d="M104.732,106.913v-4.062h0.778v4.062H104.732z"/>
		<path fill="#333333" d="M108.014,105.976l0.776,0.131c-0.1,0.285-0.258,0.501-0.473,0.649c-0.216,0.148-0.484,0.224-0.809,0.224
			c-0.511,0-0.89-0.167-1.136-0.502c-0.193-0.268-0.29-0.605-0.29-1.014c0-0.487,0.127-0.871,0.381-1.146
			c0.256-0.276,0.579-0.414,0.969-0.414c0.437,0,0.782,0.145,1.036,0.434c0.253,0.289,0.373,0.732,0.363,1.33h-1.951
			c0.004,0.23,0.068,0.408,0.188,0.537c0.12,0.128,0.269,0.193,0.448,0.193c0.121,0,0.224-0.033,0.308-0.101
			C107.909,106.231,107.97,106.124,108.014,105.976z M108.058,105.19c-0.004-0.227-0.064-0.398-0.174-0.516
			c-0.11-0.117-0.246-0.174-0.405-0.174c-0.168,0-0.31,0.061-0.421,0.185c-0.112,0.124-0.165,0.292-0.163,0.505H108.058z"/>
		<path fill="#333333" d="M109.189,106.073l0.783-0.119c0.032,0.152,0.102,0.266,0.202,0.345s0.244,0.119,0.427,0.119
			c0.2,0,0.353-0.038,0.455-0.112c0.067-0.052,0.101-0.121,0.101-0.207c0-0.059-0.017-0.108-0.054-0.147
			c-0.037-0.036-0.126-0.071-0.26-0.103c-0.63-0.137-1.028-0.265-1.195-0.379c-0.233-0.16-0.35-0.38-0.35-0.663
			c0-0.254,0.103-0.469,0.303-0.643c0.2-0.173,0.514-0.261,0.937-0.261c0.403,0,0.702,0.066,0.898,0.197s0.33,0.324,0.402,0.582
			l-0.732,0.136c-0.032-0.114-0.093-0.202-0.18-0.263c-0.088-0.062-0.213-0.092-0.374-0.092c-0.204,0-0.353,0.027-0.443,0.086
			c-0.06,0.04-0.086,0.093-0.086,0.157c0,0.056,0.024,0.103,0.075,0.142c0.071,0.052,0.313,0.124,0.729,0.219
			c0.415,0.095,0.703,0.21,0.867,0.346c0.162,0.141,0.244,0.332,0.244,0.58c0,0.27-0.113,0.502-0.338,0.695
			c-0.225,0.194-0.558,0.291-1,0.291c-0.401,0-0.719-0.082-0.952-0.244C109.415,106.573,109.263,106.353,109.189,106.073z"/>
		<path fill="#333333" d="M116.896,106.913h-0.722v-0.434c-0.12,0.169-0.262,0.294-0.426,0.377
			c-0.163,0.082-0.327,0.123-0.494,0.123c-0.338,0-0.629-0.137-0.868-0.408c-0.241-0.274-0.361-0.653-0.361-1.141
			c0-0.499,0.116-0.878,0.351-1.137c0.233-0.262,0.531-0.391,0.889-0.391c0.329,0,0.614,0.137,0.854,0.41v-1.462h0.777V106.913z
			 M114.818,105.378c0,0.314,0.044,0.541,0.131,0.681c0.124,0.204,0.3,0.306,0.525,0.306c0.18,0,0.332-0.076,0.457-0.229
			c0.126-0.153,0.188-0.381,0.188-0.682c0-0.34-0.062-0.583-0.182-0.732c-0.123-0.148-0.278-0.221-0.469-0.221
			c-0.186,0-0.339,0.072-0.465,0.219C114.882,104.866,114.818,105.085,114.818,105.378z"/>
		<path fill="#333333" d="M119.368,105.976l0.775,0.131c-0.101,0.285-0.258,0.501-0.474,0.649c-0.214,0.148-0.484,0.224-0.807,0.224
			c-0.512,0-0.891-0.167-1.135-0.502c-0.194-0.268-0.291-0.605-0.291-1.014c0-0.487,0.126-0.871,0.382-1.146
			c0.255-0.276,0.576-0.414,0.968-0.414c0.438,0,0.781,0.145,1.035,0.434c0.253,0.289,0.373,0.732,0.362,1.33h-1.949
			c0.004,0.23,0.067,0.408,0.188,0.537c0.119,0.128,0.27,0.193,0.448,0.193c0.122,0,0.226-0.033,0.307-0.101
			C119.262,106.231,119.326,106.124,119.368,105.976z M119.411,105.19c-0.005-0.227-0.063-0.398-0.175-0.516
			c-0.11-0.117-0.245-0.174-0.402-0.174c-0.172,0-0.312,0.061-0.422,0.185c-0.111,0.124-0.166,0.292-0.164,0.505H119.411z"/>
		<path fill="#333333" d="M120.819,106.913v-4.062h0.779v4.062H120.819z"/>
		<path fill="#333333" d="M123.978,106.913v-4.062h3.013v0.687h-2.191v0.9h2.038v0.685h-2.038v1.104h2.269v0.686H123.978z"/>
		<path fill="#333333" d="M127.482,106.073l0.781-0.119c0.033,0.152,0.101,0.266,0.202,0.345c0.104,0.079,0.245,0.119,0.427,0.119
			c0.2,0,0.354-0.038,0.457-0.112c0.066-0.052,0.101-0.121,0.101-0.207c0-0.059-0.019-0.108-0.055-0.147
			c-0.04-0.036-0.127-0.071-0.261-0.103c-0.629-0.137-1.025-0.265-1.195-0.379c-0.232-0.16-0.35-0.38-0.35-0.663
			c0-0.254,0.102-0.469,0.304-0.643c0.201-0.173,0.514-0.261,0.934-0.261c0.405,0,0.703,0.066,0.899,0.197
			c0.197,0.131,0.332,0.324,0.404,0.582l-0.733,0.136c-0.03-0.114-0.092-0.202-0.178-0.263c-0.089-0.062-0.214-0.092-0.377-0.092
			c-0.204,0-0.352,0.027-0.441,0.086c-0.058,0.04-0.087,0.093-0.087,0.157c0,0.056,0.027,0.103,0.077,0.142
			c0.07,0.052,0.313,0.124,0.729,0.219c0.412,0.095,0.704,0.21,0.867,0.346c0.163,0.141,0.245,0.332,0.245,0.58
			c0,0.27-0.113,0.502-0.339,0.695c-0.226,0.194-0.559,0.291-1.001,0.291c-0.4,0-0.718-0.082-0.951-0.244
			C127.707,106.573,127.555,106.353,127.482,106.073z"/>
		<path fill="#333333" d="M132.262,103.971v0.62h-0.53v1.186c0,0.24,0.006,0.379,0.013,0.419c0.012,0.04,0.033,0.073,0.07,0.101
			c0.036,0.025,0.079,0.038,0.132,0.038c0.073,0,0.178-0.025,0.313-0.075l0.067,0.604c-0.182,0.078-0.386,0.117-0.617,0.117
			c-0.139,0-0.266-0.024-0.377-0.072c-0.113-0.047-0.196-0.107-0.249-0.182c-0.052-0.075-0.088-0.176-0.108-0.305
			c-0.017-0.089-0.025-0.271-0.025-0.547v-1.283h-0.358v-0.62h0.358v-0.585l0.782-0.454v1.039H132.262z"/>
		<path fill="#333333" d="M133.385,104.868l-0.706-0.127c0.079-0.285,0.216-0.496,0.41-0.632c0.193-0.138,0.481-0.206,0.862-0.206
			c0.348,0,0.607,0.041,0.777,0.123c0.17,0.083,0.289,0.188,0.359,0.314c0.067,0.125,0.104,0.357,0.104,0.695l-0.008,0.91
			c0,0.258,0.012,0.447,0.037,0.571c0.024,0.123,0.07,0.255,0.14,0.396h-0.77c-0.02-0.053-0.048-0.129-0.076-0.23
			c-0.013-0.046-0.022-0.076-0.028-0.092c-0.132,0.131-0.273,0.228-0.427,0.292c-0.15,0.063-0.313,0.097-0.484,0.097
			c-0.303,0-0.541-0.082-0.716-0.247c-0.175-0.164-0.262-0.372-0.262-0.624c0-0.166,0.039-0.314,0.118-0.444s0.192-0.23,0.337-0.299
			c0.14-0.069,0.348-0.13,0.616-0.181c0.363-0.069,0.617-0.133,0.757-0.191v-0.078c0-0.15-0.037-0.257-0.11-0.32
			c-0.074-0.064-0.214-0.094-0.419-0.094c-0.137,0-0.246,0.025-0.325,0.079C133.495,104.636,133.433,104.731,133.385,104.868z
			 M134.426,105.499c-0.099,0.033-0.26,0.072-0.475,0.119c-0.215,0.048-0.356,0.094-0.422,0.137
			c-0.104,0.072-0.153,0.163-0.153,0.274c0,0.108,0.042,0.202,0.121,0.282c0.081,0.08,0.186,0.119,0.313,0.119
			c0.139,0,0.271-0.046,0.399-0.139c0.096-0.07,0.155-0.156,0.186-0.258c0.02-0.066,0.03-0.192,0.03-0.379V105.499z"/>
		<path fill="#333333" d="M138.657,106.913h-0.724v-0.434c-0.119,0.169-0.263,0.294-0.425,0.377
			c-0.164,0.082-0.33,0.123-0.495,0.123c-0.337,0-0.627-0.137-0.867-0.408c-0.242-0.274-0.362-0.653-0.362-1.141
			c0-0.499,0.117-0.878,0.352-1.137c0.234-0.262,0.53-0.391,0.889-0.391c0.33,0,0.613,0.137,0.854,0.41v-1.462h0.778V106.913z
			 M136.578,105.378c0,0.314,0.044,0.541,0.131,0.681c0.125,0.204,0.301,0.306,0.526,0.306c0.18,0,0.331-0.076,0.456-0.229
			c0.127-0.153,0.19-0.381,0.19-0.682c0-0.34-0.062-0.583-0.184-0.732c-0.122-0.148-0.277-0.221-0.469-0.221
			c-0.185,0-0.338,0.072-0.464,0.219C136.642,104.866,136.578,105.085,136.578,105.378z"/>
		<path fill="#333333" d="M139.245,105.399c0-0.258,0.063-0.509,0.19-0.75c0.128-0.242,0.308-0.427,0.541-0.555
			c0.233-0.127,0.495-0.191,0.784-0.191c0.446,0,0.81,0.145,1.094,0.434c0.285,0.289,0.427,0.655,0.427,1.096
			c0,0.447-0.145,0.814-0.433,1.107c-0.286,0.293-0.648,0.439-1.083,0.439c-0.271,0-0.528-0.062-0.772-0.184
			c-0.244-0.121-0.43-0.301-0.558-0.535C139.308,106.024,139.245,105.737,139.245,105.399z M140.043,105.441
			c0,0.292,0.068,0.516,0.207,0.671s0.309,0.232,0.514,0.232c0.201,0,0.373-0.077,0.51-0.232c0.138-0.155,0.207-0.381,0.207-0.676
			c0-0.289-0.069-0.511-0.207-0.665c-0.137-0.155-0.309-0.233-0.51-0.233c-0.205,0-0.375,0.078-0.514,0.233
			C140.111,104.926,140.043,105.149,140.043,105.441z"/>
		<path fill="#333333" d="M147.165,106.913h-0.724v-0.434c-0.12,0.169-0.262,0.294-0.424,0.377
			c-0.164,0.082-0.328,0.123-0.496,0.123c-0.338,0-0.628-0.137-0.868-0.408c-0.24-0.274-0.362-0.653-0.362-1.141
			c0-0.499,0.119-0.878,0.354-1.137c0.234-0.262,0.532-0.391,0.889-0.391c0.328,0,0.615,0.137,0.854,0.41v-1.462h0.778V106.913z
			 M145.088,105.378c0,0.314,0.042,0.541,0.13,0.681c0.126,0.204,0.301,0.306,0.526,0.306c0.178,0,0.332-0.076,0.457-0.229
			c0.127-0.153,0.188-0.381,0.188-0.682c0-0.34-0.061-0.583-0.183-0.732c-0.122-0.148-0.278-0.221-0.467-0.221
			c-0.185,0-0.34,0.072-0.465,0.219C145.15,104.866,145.088,105.085,145.088,105.378z"/>
		<path fill="#333333" d="M149.636,105.976l0.777,0.131c-0.101,0.285-0.258,0.501-0.473,0.649c-0.216,0.148-0.485,0.224-0.809,0.224
			c-0.51,0-0.889-0.167-1.135-0.502c-0.194-0.268-0.291-0.605-0.291-1.014c0-0.487,0.127-0.871,0.382-1.146
			c0.256-0.276,0.577-0.414,0.966-0.414c0.439,0,0.784,0.145,1.038,0.434s0.374,0.732,0.363,1.33h-1.951
			c0.005,0.23,0.069,0.408,0.188,0.537c0.118,0.128,0.269,0.193,0.449,0.193c0.123,0,0.225-0.033,0.307-0.101
			C149.531,106.231,149.596,106.124,149.636,105.976z M149.681,105.19c-0.004-0.227-0.063-0.398-0.174-0.516
			c-0.111-0.117-0.245-0.174-0.404-0.174c-0.17,0-0.313,0.061-0.421,0.185c-0.11,0.124-0.166,0.292-0.163,0.505H149.681z"/>
		<path fill="#333333" d="M152.66,106.913v-4.062h1.226l0.737,2.771l0.73-2.771h1.229v4.062h-0.762v-3.197l-0.807,3.197h-0.79
			l-0.804-3.197v3.197H152.66z"/>
		<path fill="#333333" d="M159.097,105.976l0.775,0.131c-0.099,0.285-0.258,0.501-0.473,0.649s-0.485,0.224-0.81,0.224
			c-0.509,0-0.888-0.167-1.134-0.502c-0.194-0.268-0.292-0.605-0.292-1.014c0-0.487,0.128-0.871,0.384-1.146
			c0.254-0.276,0.577-0.414,0.966-0.414c0.439,0,0.785,0.145,1.036,0.434c0.252,0.289,0.373,0.732,0.363,1.33h-1.95
			c0.004,0.23,0.068,0.408,0.188,0.537c0.12,0.128,0.271,0.193,0.449,0.193c0.121,0,0.225-0.033,0.307-0.101
			C158.989,106.231,159.054,106.124,159.097,105.976z M159.14,105.19c-0.005-0.227-0.063-0.398-0.174-0.516
			c-0.111-0.117-0.247-0.174-0.404-0.174c-0.17,0-0.31,0.061-0.421,0.185c-0.113,0.124-0.167,0.292-0.164,0.505H159.14z
			 M158.146,103.61l0.381-0.828h0.873l-0.761,0.828H158.146z"/>
		<path fill="#333333" d="M160.174,106.913l1.06-1.516l-1.014-1.427h0.949l0.521,0.81l0.548-0.81h0.915l-0.999,1.394l1.091,1.549
			h-0.957l-0.598-0.912l-0.605,0.912H160.174z"/>
		<path fill="#333333" d="M163.704,103.571v-0.72h0.779v0.72H163.704z M163.704,106.913v-2.942h0.779v2.942H163.704z"/>
		<path fill="#333333" d="M167.846,104.841l-0.768,0.138c-0.026-0.152-0.085-0.269-0.176-0.346
			c-0.092-0.077-0.211-0.116-0.355-0.116c-0.195,0-0.349,0.065-0.465,0.199c-0.116,0.135-0.175,0.358-0.175,0.673
			c0,0.349,0.06,0.596,0.178,0.74c0.117,0.144,0.274,0.216,0.473,0.216c0.146,0,0.269-0.042,0.361-0.127
			c0.095-0.084,0.162-0.228,0.201-0.434l0.765,0.131c-0.079,0.352-0.231,0.616-0.459,0.796c-0.226,0.179-0.526,0.269-0.903,0.269
			c-0.432,0-0.775-0.136-1.03-0.408c-0.257-0.271-0.384-0.646-0.384-1.127c0-0.485,0.127-0.864,0.385-1.135
			c0.256-0.271,0.604-0.406,1.042-0.406c0.358,0,0.644,0.077,0.854,0.232C167.602,104.288,167.752,104.524,167.846,104.841z"/>
		<path fill="#333333" d="M168.257,105.399c0-0.258,0.063-0.509,0.19-0.75c0.127-0.242,0.307-0.427,0.541-0.555
			c0.232-0.127,0.494-0.191,0.783-0.191c0.445,0,0.811,0.145,1.093,0.434c0.284,0.289,0.428,0.655,0.428,1.096
			c0,0.447-0.145,0.814-0.431,1.107c-0.288,0.293-0.649,0.439-1.085,0.439c-0.271,0-0.526-0.062-0.771-0.184
			c-0.245-0.121-0.431-0.301-0.558-0.535C168.319,106.024,168.257,105.737,168.257,105.399z M169.054,105.441
			c0,0.292,0.069,0.516,0.207,0.671c0.14,0.155,0.31,0.232,0.514,0.232c0.202,0,0.373-0.077,0.512-0.232
			c0.137-0.155,0.205-0.381,0.205-0.676c0-0.289-0.068-0.511-0.205-0.665c-0.139-0.155-0.31-0.233-0.512-0.233
			c-0.204,0-0.374,0.078-0.514,0.233C169.123,104.926,169.054,105.149,169.054,105.441z"/>
		<path fill="#333333" d="M173.109,103.971h0.829l0.704,2.088l0.688-2.088h0.806l-1.041,2.831l-0.183,0.513
			c-0.069,0.172-0.137,0.304-0.197,0.394c-0.062,0.09-0.133,0.164-0.212,0.219c-0.082,0.057-0.18,0.102-0.297,0.133
			c-0.118,0.032-0.248,0.048-0.397,0.048c-0.151,0-0.297-0.016-0.439-0.048l-0.07-0.609c0.121,0.023,0.231,0.036,0.329,0.036
			c0.182,0,0.314-0.054,0.401-0.16s0.153-0.241,0.2-0.405L173.109,103.971z"/>
		<path fill="#333333" d="M178.205,106.913v-4.062h1.228l0.736,2.771l0.729-2.771h1.23v4.062h-0.764v-3.197l-0.806,3.197h-0.791
			l-0.801-3.197v3.197H178.205z"/>
		<path fill="#333333" d="M184.874,106.913v-0.441c-0.107,0.158-0.248,0.281-0.421,0.372c-0.176,0.09-0.36,0.136-0.555,0.136
			c-0.197,0-0.376-0.043-0.532-0.131c-0.156-0.086-0.271-0.208-0.343-0.365c-0.066-0.157-0.104-0.375-0.104-0.651v-1.861h0.779
			v1.353c0,0.413,0.014,0.666,0.042,0.76s0.08,0.166,0.157,0.221c0.076,0.055,0.171,0.082,0.289,0.082
			c0.132,0,0.25-0.036,0.355-0.109c0.107-0.073,0.179-0.163,0.217-0.271c0.038-0.107,0.059-0.373,0.059-0.793v-1.241h0.778v2.942
			H184.874z"/>
		<path fill="#333333" d="M189.079,106.913h-0.778v-1.502c0-0.318-0.018-0.523-0.051-0.617c-0.032-0.093-0.086-0.164-0.161-0.217
			c-0.074-0.052-0.165-0.076-0.27-0.076c-0.136,0-0.255,0.035-0.363,0.109c-0.106,0.075-0.181,0.172-0.221,0.294
			c-0.039,0.122-0.059,0.348-0.059,0.675v1.334h-0.779v-2.942h0.725v0.432c0.255-0.333,0.579-0.499,0.969-0.499
			c0.17,0,0.329,0.03,0.471,0.093c0.143,0.062,0.249,0.141,0.322,0.239c0.073,0.095,0.123,0.203,0.153,0.326
			c0.029,0.121,0.042,0.295,0.042,0.522V106.913z"/>
		<path fill="#333333" d="M189.869,103.571v-0.72h0.779v0.72H189.869z M189.869,106.913v-2.942h0.779v2.942H189.869z"/>
		<path fill="#333333" d="M194.012,104.841l-0.769,0.138c-0.025-0.152-0.083-0.269-0.176-0.346
			c-0.092-0.077-0.209-0.116-0.355-0.116c-0.195,0-0.349,0.065-0.465,0.199c-0.114,0.135-0.173,0.358-0.173,0.673
			c0,0.349,0.06,0.596,0.177,0.74c0.117,0.144,0.275,0.216,0.473,0.216c0.147,0,0.267-0.042,0.363-0.127
			c0.095-0.084,0.158-0.228,0.197-0.434l0.767,0.131c-0.081,0.352-0.232,0.616-0.456,0.796c-0.227,0.179-0.528,0.269-0.907,0.269
			c-0.432,0-0.772-0.136-1.029-0.408c-0.258-0.271-0.384-0.646-0.384-1.127c0-0.485,0.127-0.864,0.384-1.135
			c0.258-0.271,0.605-0.406,1.043-0.406c0.357,0,0.641,0.077,0.854,0.232C193.768,104.288,193.918,104.524,194.012,104.841z"/>
		<path fill="#333333" d="M194.602,103.571v-0.72h0.778v0.72H194.602z M194.602,106.913v-2.942h0.778v2.942H194.602z"/>
		<path fill="#333333" d="M196.156,103.971h0.726v0.432c0.095-0.147,0.223-0.267,0.382-0.36c0.16-0.092,0.34-0.139,0.535-0.139
			c0.342,0,0.632,0.135,0.871,0.402c0.235,0.268,0.356,0.641,0.356,1.119c0,0.491-0.121,0.872-0.358,1.146
			c-0.243,0.271-0.533,0.408-0.875,0.408c-0.163,0-0.31-0.033-0.441-0.097c-0.132-0.064-0.271-0.176-0.418-0.333v1.482h-0.777
			V103.971z M196.926,105.392c0,0.33,0.065,0.574,0.197,0.732s0.289,0.237,0.479,0.237c0.182,0,0.332-0.073,0.451-0.218
			c0.121-0.146,0.181-0.383,0.181-0.713c0-0.309-0.062-0.537-0.184-0.688c-0.125-0.15-0.279-0.225-0.462-0.225
			c-0.191,0-0.348,0.072-0.475,0.221C196.989,104.886,196.926,105.104,196.926,105.392z"/>
		<path fill="#333333" d="M199.644,103.571v-0.72h0.778v0.72H199.644z M199.644,106.913v-2.942h0.778v2.942H199.644z"/>
		<path fill="#333333" d="M201.041,105.399c0-0.258,0.063-0.509,0.19-0.75c0.128-0.242,0.308-0.427,0.542-0.555
			c0.233-0.127,0.495-0.191,0.783-0.191c0.444,0,0.809,0.145,1.092,0.434c0.286,0.289,0.428,0.655,0.428,1.096
			c0,0.447-0.144,0.814-0.431,1.107s-0.649,0.439-1.083,0.439c-0.271,0-0.529-0.062-0.773-0.184
			c-0.243-0.121-0.43-0.301-0.558-0.535C201.104,106.024,201.041,105.737,201.041,105.399z M201.837,105.441
			c0,0.292,0.07,0.516,0.209,0.671s0.31,0.232,0.514,0.232c0.203,0,0.372-0.077,0.511-0.232c0.138-0.155,0.207-0.381,0.207-0.676
			c0-0.289-0.069-0.511-0.207-0.665c-0.139-0.155-0.308-0.233-0.511-0.233c-0.204,0-0.375,0.078-0.514,0.233
			C201.907,104.926,201.837,105.149,201.837,105.441z"/>
		<path fill="#333333" d="M204.412,106.073l0.782-0.119c0.033,0.152,0.099,0.266,0.201,0.345s0.245,0.119,0.426,0.119
			c0.203,0,0.354-0.038,0.455-0.112c0.07-0.052,0.104-0.121,0.104-0.207c0-0.059-0.02-0.108-0.057-0.147
			c-0.038-0.036-0.125-0.071-0.26-0.103c-0.629-0.137-1.027-0.265-1.194-0.379c-0.232-0.16-0.348-0.38-0.348-0.663
			c0-0.254,0.1-0.469,0.301-0.643c0.2-0.173,0.514-0.261,0.938-0.261c0.401,0,0.698,0.066,0.896,0.197
			c0.195,0.131,0.33,0.324,0.402,0.582l-0.731,0.136c-0.033-0.114-0.092-0.202-0.179-0.263c-0.09-0.062-0.213-0.092-0.375-0.092
			c-0.206,0-0.352,0.027-0.441,0.086c-0.059,0.04-0.089,0.093-0.089,0.157c0,0.056,0.026,0.103,0.078,0.142
			c0.071,0.052,0.311,0.124,0.727,0.219s0.704,0.21,0.87,0.346c0.161,0.141,0.242,0.332,0.242,0.58c0,0.27-0.113,0.502-0.338,0.695
			c-0.224,0.194-0.559,0.291-1.001,0.291c-0.399,0-0.718-0.082-0.951-0.244S204.485,106.353,204.412,106.073z"/>
	</g>
	<g>
		<g>
			<path fill="#00B1AB" d="M94.602,75.099h-6.555V62.441c0-2.668-0.14-4.399-0.423-5.187c-0.285-0.791-0.733-1.4-1.367-1.834
				c-0.627-0.441-1.389-0.658-2.273-0.658c-1.139,0-2.155,0.316-3.065,0.938c-0.906,0.619-1.521,1.442-1.849,2.472
				c-0.343,1.027-0.516,2.922-0.516,5.701v11.225h-6.556V50.291h6.089v3.641c2.17-2.785,4.892-4.187,8.178-4.187
				c1.448,0,2.773,0.265,3.971,0.785c1.199,0.52,2.114,1.182,2.721,1.991c0.61,0.817,1.047,1.729,1.29,2.755
				c0.241,1.033,0.355,2.501,0.355,4.414V75.099z"/>
			<path fill="#00B1AB" d="M98.37,50.291h3.637v-1.857c0-2.088,0.213-3.644,0.658-4.671c0.44-1.027,1.264-1.861,2.453-2.507
				c1.188-0.646,2.699-0.973,4.516-0.973c1.87,0,3.698,0.281,5.493,0.843l-0.876,4.555c-1.049-0.249-2.06-0.377-3.026-0.377
				c-0.954,0-1.633,0.224-2.044,0.672c-0.41,0.443-0.619,1.305-0.619,2.566v1.749h4.913v5.153h-4.913v19.655h-6.555V55.443H98.37
				V50.291z"/>
			<path fill="#00B1AB" d="M160.722,67.178l6.533,1.099c-0.841,2.402-2.166,4.232-3.987,5.484c-1.806,1.259-4.073,1.883-6.801,1.883
				c-4.313,0-7.504-1.399-9.573-4.222c-1.641-2.257-2.459-5.099-2.459-8.538c0-4.108,1.078-7.327,3.224-9.654
				c2.152-2.316,4.864-3.484,8.154-3.484c3.683,0,6.597,1.22,8.723,3.655c2.135,2.431,3.153,6.168,3.062,11.187h-16.439
				c0.047,1.941,0.573,3.451,1.588,4.523c1.017,1.082,2.276,1.619,3.794,1.619c1.024,0,1.888-0.277,2.588-0.83
				C159.826,69.329,160.369,68.423,160.722,67.178z M161.089,60.565c-0.051-1.895-0.54-3.336-1.476-4.32
				c-0.933-0.984-2.067-1.482-3.413-1.482c-1.433,0-2.61,0.528-3.543,1.572c-0.94,1.029-1.405,2.445-1.385,4.23H161.089z"/>
			<path fill="#00B1AB" d="M172.451,50.291h6.046v3.388c2.156-2.621,4.729-3.934,7.715-3.934c1.587,0,2.969,0.327,4.131,0.981
				c1.17,0.65,2.134,1.644,2.88,2.964c1.087-1.32,2.265-2.314,3.524-2.964c1.26-0.654,2.605-0.981,4.037-0.981
				c1.826,0,3.36,0.376,4.621,1.111c1.272,0.738,2.212,1.822,2.832,3.256c0.444,1.059,0.68,2.768,0.68,5.133v15.854h-6.562V60.923
				c0-2.453-0.228-4.043-0.684-4.762c-0.604-0.932-1.534-1.398-2.802-1.398c-0.918,0-1.777,0.28-2.591,0.844
				c-0.812,0.555-1.393,1.378-1.753,2.461c-0.356,1.082-0.538,2.788-0.538,5.119v11.912h-6.558V61.511
				c0-2.412-0.115-3.967-0.353-4.671c-0.229-0.696-0.593-1.225-1.079-1.563c-0.491-0.336-1.158-0.514-1.99-0.514
				c-1.017,0-1.919,0.27-2.735,0.818c-0.802,0.546-1.378,1.334-1.736,2.354c-0.348,1.029-0.524,2.732-0.524,5.117v12.047h-6.562
				V50.291z"/>
			<path fill="#00B1AB" d="M137.634,53.4c-2.398-2.44-5.471-3.655-9.224-3.655c-2.428,0-4.623,0.541-6.589,1.608
				c-1.972,1.08-3.493,2.633-4.571,4.669c-1.074,2.045-1.604,4.145-1.604,6.322c0,2.846,0.529,5.266,1.604,7.244
				c1.078,1.988,2.644,3.489,4.707,4.523c2.063,1.016,4.229,1.531,6.503,1.531c3.674,0,6.713-1.228,9.135-3.697
				c2.421-2.462,3.638-5.574,3.638-9.32C141.232,58.905,140.026,55.831,137.634,53.4z M139.295,65.656l-0.235,0.192l-0.444,0.345
				l-0.436,0.192h-0.247h-0.387l-0.345-0.096l-0.245-0.289v-0.248c0,0,0.245,0.146-0.141-0.146
				c-0.396-0.299-0.396-0.299-0.396-0.299h-0.138h-0.149l-0.192-0.234v-0.34v-0.395l-0.102-0.242v-0.294l0.102-0.289l-0.051-0.201
				c0,0-0.051-0.185,0-0.335c0.051-0.143,0.193-0.633,0.193-0.633l-0.244-0.051l-0.337-0.336l-0.243-0.101h-0.148l-0.192-0.146
				v-0.339l-0.149-0.294l-0.292-0.193l-0.294-0.151l-0.05-0.285l0.05-0.293l-0.293-0.046l-0.05,0.143v0.298c0,0,0.151,0.138,0,0.184
				c-0.141,0.055-0.285,0.102-0.285,0.102h-0.294h-0.145l-0.145,0.197l0.046,0.49l-0.101,0.143l-0.197,0.192l-0.432,0.243
				l-0.247,0.047c0,0,0.055,0.344-0.097,0.439c-0.141,0.098-0.285,0.146-0.285,0.146s-0.101,0.102-0.055,0.244
				c0.055,0.15,0.147,0.293,0.147,0.293s0.146,0.146,0.192,0.289c0.051,0.146,0.151,0.34,0.151,0.34l0.044,0.298l0.052,0.29v0.343
				c0,0-0.247-0.097-0.247,0.05c0,0.143,0,0.533,0,0.533v0.436l0.097,0.441v0.142l-0.382,0.294c0,0-0.199,0.247-0.342,0.247
				c-0.153,0-0.153,0-0.153,0l-0.146,0.285l-0.044,0.247l-0.048,0.293l-0.298,0.248c0,0-0.046,0.093-0.092,0.243
				c-0.046,0.144-0.194,0.29-0.194,0.29l-0.146,0.34l-0.298,0.096l-0.48-0.047l-0.099-0.242l-0.05-0.201c0,0,0.096-0.092-0.145,0
				c-0.238,0.096-0.238,0.096-0.238,0.096l-0.347-0.142l-0.101-0.29l-0.241-0.05h-0.195l0.148,0.192l0.094,0.344l-0.341-0.242
				c0,0-0.145-0.102-0.337,0.146c-0.189,0.242-0.244,0.482-0.244,0.482v0.247c0,0,0.055,0.146-0.102,0.192
				c-0.149,0.051-0.246,0.189-0.386,0.189c-0.151,0-0.392,0.054-0.392,0.054s0.051-0.054-0.146,0
				c-0.194,0.051-0.388,0.051-0.536,0.051c-0.146,0-0.338,0.104-0.338,0.104l-0.098,0.18c0,0-0.15,0.152-0.296,0.152
				c-0.144,0-0.29,0-0.29,0l-0.089-0.102l-0.198-0.143h-0.145l-0.2,0.051l-0.094,0.289l-0.197,0.146c0,0-0.101,0.244-0.247,0.244
				c-0.146,0-0.388,0.096-0.388,0.096l-0.145,0.243l-0.197,0.202l-0.533,0.243l-0.196,0.188c0,0-0.144,0-0.144,0.15
				c0,0.139-0.05,0.387-0.05,0.387h-0.338c-0.29-0.198-0.483-0.34-0.483-0.34s-0.057-0.047-0.206-0.102
				c-0.146-0.05-0.238-0.05-0.238-0.05c-0.051-0.234-0.143-0.188-0.051-0.386c0.097-0.197,0.247-0.294,0.247-0.294l-0.15-0.192
				c-0.146-0.146-0.046-0.243-0.239-0.146c-0.193,0.096-0.243,0.193-0.243,0.193l-0.196-0.047l-0.047-0.496V70.13v-0.143
				l-0.342-0.34l-0.146-0.146l0.192-0.143l0.049-0.248c0,0,0.15,0.143,0.196-0.242c0.051-0.39,0.051-0.39,0.051-0.39l0.194-0.046
				l-0.194-0.102l-0.197-0.242l-0.191-0.09l-0.198-0.054l-0.247-0.192c0,0-0.138-0.051-0.286-0.102
				c-0.142-0.045-0.297-0.197-0.297-0.197s-0.143-0.045-0.287-0.092c-0.145-0.05-0.292-0.197-0.292-0.197s0.193-0.192,0.34-0.192
				c0.15,0,0.239-0.05,0.239-0.05h0.155v-0.294c0,0,0.088-0.101,0.088-0.243s0.054-0.34,0.054-0.34l0.286-0.146h0.295
				c0,0,0.051-0.146,0.197-0.146c0.145,0,0.342-0.097,0.342-0.097l0.148-0.243l0.287-0.201v-0.256c-0.012,0.008,0-0.029,0-0.029
				v0.029c0.008-0.008,0.035-0.043,0.102-0.176c0.143-0.293,0.188-0.486,0.188-0.486l0.192-0.34l0.349-0.344l0.141-0.387
				l-0.046-0.686l0.148-0.285l0.143-0.105h0.486c0,0,0.242-0.047,0.297-0.239c0.043-0.197,0.043-0.386,0.043-0.386
				s0.146-0.197,0.146-0.348c0-0.143,0.149-0.29-0.055-0.387c-0.189-0.101-0.382-0.238-0.382-0.238s-0.095,0.096-0.146-0.248
				c-0.048-0.34-0.048-0.34-0.048-0.34l-0.192-0.443l-0.05-0.387l0.242-0.05h0.34h0.34l0.287-0.29l0.2-0.381l-0.047-0.344v-0.389
				l0.047-0.248h0.246h0.143l0.243-0.155l-0.293-0.187l-0.146-0.199c0,0,0-0.188,0-0.336c0-0.144,0-0.393,0-0.393v-0.283
				l0.243-0.102h0.444l0.189-0.148l0.15-0.143l0.143-0.101h0.243l0.34,0.101h0.15c0,0,0.138-0.146,0.138-0.297
				c0-0.146,0-0.437,0-0.437v-0.246l-0.094-0.141l-0.334-0.343l-0.104-0.243l0.051-0.19h0.249v0.287l0.232-0.046l0.202-0.298
				l0.234-0.042c0.493,0.042,0.493,0.042,0.493,0.042s-0.048,0.101,0.146,0.248c0.192,0.147,0.581,0.394,0.581,0.394l0.196,0.192
				l0.296,0.141l0.144,0.052c0,0,0.148-0.052,0.296-0.052c0.143,0,0.532,0,0.532,0l0.051,0.193c0-0.002,0.027-0.023,0.188-0.092
				c0.249-0.101,0.35-0.242,0.35-0.242s0.288-0.054,0.436,0c0.146,0.043,0.146,0.091,0.339,0.334
				c0.194,0.246,0.393,0.489,0.393,0.489l0.246,0.531v0.441l-0.196,0.297l-0.192,0.141c0,0-0.203,0.291-0.056,0.346
				c0.15,0.047,0.296,0.145,0.296,0.145s-0.048,0,0.098,0.145c0.143,0.151,0.292,0.25,0.292,0.25l0.337,0.139l0.096,0.395
				l0.395,0.294l0.245-0.104l0.191-0.047c0,0-0.191-0.092,0-0.295c0.196-0.186,0.242-0.291,0.39-0.381
				c0.146-0.099,0.335-0.25,0.335-0.25s-0.05,0.093,0.149-0.145c0.199-0.249,0.199-0.249,0.199-0.249s0-0.138,0.048-0.34
				c0.05-0.19,0.095-0.339,0.249-0.382c0.143-0.053,0.24-0.194,0.24-0.194s0.339-0.099,0.487-0.099c0.141,0,0.294,0,0.294,0
				l0.19,0.24h0.243h0.29c0,0,0.148,0.053,0.286,0.096c0.154,0.045,0.342,0.297,0.342,0.297v0.289l0.101,0.244l-0.192,0.145
				l-0.388,0.053l0.048,0.385c0,0,0.09-0.09,0.244,0.049c0.142,0.148,0.339,0.299,0.339,0.299c0.243-0.348,0.243-0.348,0.243-0.348
				l0.192-0.09l0.095-0.25l0.05-0.242h0.486l0.296,0.145c0,0,0,0.053,0.294,0.053c0.297,0,0.68,0.045,0.68,0.045l0.441,0.289
				c0,0,0.049,0.051,0.188,0.1c0.147,0.057,0.251,0.197,0.251,0.197l0.189,0.289l0.247,0.303l-0.049,0.238l-0.048,0.235v0.39h-0.289
				c0,0-0.248,0.051-0.248,0.197s-0.054,0.537-0.054,0.537l-0.382,0.101v0.339l0.143,0.34l0.293,0.197c0,0,0.197,0.239,0.197,0.387
				c0,0.15,0,0.536,0,0.536l0.095,0.482v0.247c0,0,0.048,0.246,0.048,0.389c0,0.148,0,0.391,0,0.391v0.386l0.197,0.587l0.048,0.391
				c0,0,0,0.293,0,0.432c0,0.154,0.049,0.395,0.049,0.395L139.295,65.656z"/>
			<polygon fill="#00B1AB" points="32.953,83.465 39.684,80.626 39.684,36.258 32.953,39.103 			"/>
			<linearGradient id="SVGID_1_" gradientUnits="userSpaceOnUse" x1="36.3174" y1="83.4648" x2="36.3174" y2="36.2588">
				<stop  offset="0.5" style="stop-color:#FFFFFF;stop-opacity:0"/>
				<stop  offset="0.9552" style="stop-color:#FFFFFF;stop-opacity:0.9104"/>
				<stop  offset="1" style="stop-color:#FFFFFF"/>
			</linearGradient>
			<polygon fill="url(#SVGID_1_)" points="32.951,83.465 39.684,80.626 39.684,36.258 32.953,39.103 			"/>
			<polygon fill="#96509D" points="47.325,38.187 47.325,46.99 58.14,42.435 58.14,77.846 64.891,75.124 64.891,30.766 			"/>
			<polyline fill="#CCA6CD" points="58.136,42.435 52.662,44.744 52.662,75.003 58.136,77.846 58.136,42.435 			"/>
			<polyline fill="#8FD9D3" points="27.472,36.258 27.472,80.626 32.951,83.465 32.951,39.109 27.472,36.258 			"/>
			<polyline fill="#CCA6CD" points="41.854,35.335 41.854,44.153 47.325,46.99 47.325,38.187 41.854,35.335 			"/>
			<path fill="#96509D" d="M63.353,12.288c-2.746-4.21-8.22-5.061-12.216-1.906c-4.006,3.153-5.019,9.122-2.272,13.327
				c2.75,4.201,8.223,5.059,12.219,1.906C65.084,22.459,66.104,16.493,63.353,12.288z"/>
			<path fill="#00B1AB" d="M38.14,17.784c-2.75-4.209-8.218-5.061-12.22-1.907c-3.996,3.157-5.019,9.123-2.268,13.329
				c2.743,4.206,8.214,5.057,12.219,1.905C39.867,27.956,40.89,21.985,38.14,17.784z"/>
			<linearGradient id="SVGID_2_" gradientUnits="userSpaceOnUse" x1="30.8955" y1="32.0156" x2="30.8955" y2="14.9692">
				<stop  offset="0" style="stop-color:#FFFFFF"/>
				<stop  offset="0.0448" style="stop-color:#FFFFFF;stop-opacity:0.9104"/>
				<stop  offset="0.5" style="stop-color:#FFFFFF;stop-opacity:0"/>
			</linearGradient>
			<path fill="url(#SVGID_2_)" d="M37.383,18.382c-2.457-3.771-7.358-4.53-10.941-1.708c-3.582,2.822-4.49,8.167-2.033,11.935
				c2.458,3.763,7.357,4.526,10.941,1.704C38.932,27.491,39.841,22.143,37.383,18.382z"/>
			<radialGradient id="SVGID_3_" cx="32.1113" cy="19.1396" r="5.5607" gradientUnits="userSpaceOnUse">
				<stop  offset="0" style="stop-color:#FFFFFF"/>
				<stop  offset="0.75" style="stop-color:#FFFFFF;stop-opacity:0"/>
			</radialGradient>
			<path fill="url(#SVGID_3_)" d="M37.383,18.382c-2.457-3.771-7.358-4.53-10.941-1.708c-3.582,2.822-4.49,8.167-2.033,11.935
				c2.458,3.763,7.357,4.526,10.941,1.704C38.932,27.491,39.841,22.143,37.383,18.382z"/>
			<linearGradient id="SVGID_4_" gradientUnits="userSpaceOnUse" x1="56.1113" y1="26.5215" x2="56.1113" y2="9.4722">
				<stop  offset="0" style="stop-color:#FFFFFF"/>
				<stop  offset="0.0448" style="stop-color:#FFFFFF;stop-opacity:0.9104"/>
				<stop  offset="0.5" style="stop-color:#FFFFFF;stop-opacity:0"/>
			</linearGradient>
			<path fill="url(#SVGID_4_)" d="M62.595,12.883c-2.456-3.77-7.354-4.526-10.936-1.707c-3.583,2.822-4.496,8.168-2.033,11.937
				c2.461,3.761,7.357,4.53,10.939,1.703C64.148,21.989,65.059,16.648,62.595,12.883z"/>
			<radialGradient id="SVGID_5_" cx="57.3276" cy="13.6436" r="5.5613" gradientUnits="userSpaceOnUse">
				<stop  offset="0" style="stop-color:#FFFFFF"/>
				<stop  offset="0.75" style="stop-color:#FFFFFF;stop-opacity:0"/>
			</radialGradient>
			<path fill="url(#SVGID_5_)" d="M62.595,12.883c-2.456-3.77-7.354-4.526-10.936-1.707c-3.583,2.822-4.496,8.168-2.033,11.937
				c2.461,3.761,7.357,4.53,10.939,1.703C64.148,21.989,65.059,16.648,62.595,12.883z"/>
			<linearGradient id="SVGID_6_" gradientUnits="userSpaceOnUse" x1="56.1079" y1="77.8457" x2="56.1079" y2="30.7661">
				<stop  offset="0.5" style="stop-color:#FFFFFF;stop-opacity:0"/>
				<stop  offset="0.9552" style="stop-color:#FFFFFF;stop-opacity:0.9104"/>
				<stop  offset="1" style="stop-color:#FFFFFF"/>
			</linearGradient>
			<polygon fill="url(#SVGID_6_)" points="47.325,46.99 58.136,42.435 58.136,77.846 64.891,75.124 64.891,30.766 47.325,38.187 			
				"/>
		</g>
	</g>
</g>
</svg>
